<svg xmlns="http://www.w3.org/2000/svg" xmlns:xlink="http://www.w3.org/1999/xlink" width="274" height="196" viewBox="0 0 274 196">
  <defs>
    <clipPath id="clip-path">
      <rect id="사각형_6492" data-name="사각형 6492" width="274" height="196" transform="translate(394 164)" fill="#fff" stroke="#707070" stroke-width="1"/>
    </clipPath>
  </defs>
  <g id="char_notice" transform="translate(-394 -164)" clip-path="url(#clip-path)">
    <g id="그룹_12938" data-name="그룹 12938" transform="translate(397.042 170.989)">
      <g id="그룹_12907" data-name="그룹 12907" transform="translate(-0.042 93.096)">
        <path id="패스_13216" data-name="패스 13216" d="M10.779,104.3c2.148-5.011,8.949-4.3,11.335.239a6.117,6.117,0,0,1-4.057,9.068c-3.579.6-7.994-3.937-7.4-8.352.6-4.773,10.022-23.147,10.977-24.579s-7.278-3.341-13.96.955C1.592,85.565-1.152,91.411,3.024,92.6c1.551.477,0,0,5.846-2.744a11.178,11.178,0,0,1,8.352-.477" transform="translate(0.247 -77.842)" fill="#fcb338"/>
        <path id="패스_13217" data-name="패스 13217" d="M17.667,114.982a7.6,7.6,0,0,1-5.25-2.386,9.045,9.045,0,0,1-2.864-7.4,3.484,3.484,0,0,1,.239-1.074v-.119c.835-3.1,3.341-8.71,5.727-13.721a9.819,9.819,0,0,0-6.2.835,26.053,26.053,0,0,0-4.3,2.386,2.164,2.164,0,0,1-2.386.358A3.6,3.6,0,0,1,.008,91c-.477-2.983,2.506-7.159,7.159-10.142,5.966-3.818,13.482-3.221,15.272-1.432a1.643,1.643,0,0,1,.239,2.148c-.477.716-2.267,4.3-4.3,8.471h0a.117.117,0,0,1-.119.119c-1.551,3.341-3.341,7.04-4.534,10.022A12.673,12.673,0,0,1,16,99.71a8.084,8.084,0,0,1,7.4,4.415,7.474,7.474,0,0,1,.119,6.92,7.166,7.166,0,0,1-5.131,3.818A1.513,1.513,0,0,1,17.667,114.982ZM12.178,104.84a1.513,1.513,0,0,0-.119.716,6.678,6.678,0,0,0,2.148,5.369,5.236,5.236,0,0,0,3.937,1.67,4.84,4.84,0,0,0,3.341-2.625,5.115,5.115,0,0,0-.119-4.773,5.929,5.929,0,0,0-5.25-3.1A4.424,4.424,0,0,0,12.178,104.84Zm4.773-24.459a16.4,16.4,0,0,0-8.471,2.386c-4.057,2.625-6.324,6.085-6.085,7.755,0,.358.239.716,1.074.955.119,0,.119,0,.239.119h.119a34.807,34.807,0,0,1,4.653-2.625,12.457,12.457,0,0,1,8.233-.835c1.551-3.221,2.983-5.966,3.7-7.278A11.334,11.334,0,0,0,16.951,80.381Z" transform="translate(0.042 -78.028)" fill="#dc9127"/>
      </g>
      <g id="그룹_12933" data-name="그룹 12933" transform="translate(32.405 0.011)">
        <g id="그룹_12918" data-name="그룹 12918">
          <path id="패스_13218" data-name="패스 13218" d="M87.752,139.9c-11.454,18.255.955,59.06,8.591,63.714,3.818,2.267,10.261,1.79,11.454-3.341,1.312-5.25-3.341-14.437,3.221-16.585,5.727-1.909,11.693-3.1,14.079.477,1.432,2.267,5.966,14.318,14.318,13.125,5.727-.835,7.159-4.773,5.966-9.545-2.148-8.829-6.085-28.635-6.085-28.635s-2.625-21.6-7.636-29.113Z" transform="translate(-16.346 25.095)" fill="#fff"/>
          <path id="패스_13219" data-name="패스 13219" d="M101.437,204.806a11.085,11.085,0,0,1-5.488-1.432c-3.818-2.386-8.471-12.289-11.335-24.221-1.909-8.233-5.608-28.635,2.267-41.163a1.208,1.208,0,0,1,2.028,1.312c-5.131,8.233-5.846,22.908-2.028,39.374,2.983,12.528,7.517,21,10.261,22.789a8.334,8.334,0,0,0,6.92.6,4.322,4.322,0,0,0,2.864-3.341,18.368,18.368,0,0,0,0-5.727c-.477-4.057-.955-8.591,3.579-11.215,3.937-2.267,8.352-2.506,11.335-2.506,3.341,0,5.131,3.46,7.159,7.278,2.386,4.415,4.773,8.829,9.426,8.352a6.37,6.37,0,0,0,4.773-2.386c1.67-2.386.955-6.2.239-9.306-1.312-5.25-4.773-24.221-5.011-25.056a1.308,1.308,0,0,1,.955-1.432,1.238,1.238,0,0,1,1.432.955c0,.239,3.579,19.806,4.892,24.937.835,3.579,1.67,7.994-.477,11.215a8.627,8.627,0,0,1-6.443,3.46c-6.2.835-9.307-4.892-11.812-9.545-1.67-3.1-3.221-5.966-5.131-5.966-4.3,0-7.517.716-10.142,2.267-3.221,1.79-2.864,5.131-2.386,8.829a20.186,20.186,0,0,1,0,6.562,6.834,6.834,0,0,1-4.3,4.892A17.268,17.268,0,0,1,101.437,204.806Z" transform="translate(-16.548 26.53)" fill="#bbbdbf"/>
          <g id="그룹_12917" data-name="그룹 12917">
            <g id="그룹_12908" data-name="그룹 12908" transform="translate(114.046 150.998)">
              <path id="패스_13220" data-name="패스 13220" d="M123.8,134.162a85.6,85.6,0,0,1,17.658-4.653c8.949-1.193,19.21-5.25,21.119,4.057,1.67,7.875-13.6,13.84-32.811,15.749" transform="translate(-122.532 -126.366)" fill="#fff"/>
              <path id="패스_13221" data-name="패스 13221" d="M129.971,150.708a1.269,1.269,0,0,1-1.193-1.074,1.185,1.185,0,0,1,1.074-1.312c15.391-1.432,27.2-5.488,30.783-10.38a4.437,4.437,0,0,0,.955-3.937c-1.312-6.2-6.562-5.488-14.914-3.937-1.67.358-3.341.6-4.892.835a96.712,96.712,0,0,0-17.42,4.534,1.208,1.208,0,0,1-.835-2.267,89.512,89.512,0,0,1,17.9-4.653c1.551-.239,3.221-.477,4.773-.835,7.4-1.432,15.869-2.983,17.658,5.727a6.758,6.758,0,0,1-1.432,5.846c-3.937,5.608-16.107,9.9-32.453,11.454Z" transform="translate(-122.737 -126.566)" fill="#bfbfbf"/>
            </g>
            <g id="그룹_12910" data-name="그룹 12910" transform="translate(15.517 37.505)">
              <g id="그룹_12909" data-name="그룹 12909">
                <path id="패스_13222" data-name="패스 13222" d="M180.209,87.753C171.738,65.68,146.444,51,122.461,42.891c-26.488-8.949-28.516-17.658-43.908-1.074C64.117,57.328,37.033,91.332,41.686,124.382c5.369,38.3,37.107,45.7,83.878,34.84C173.766,148.006,193.931,123.547,180.209,87.753Z" transform="translate(-39.965 -31.251)" fill="#fdc6c6"/>
                <path id="패스_13223" data-name="패스 13223" d="M91.036,165.262c-13.6,0-24.34-2.864-32.573-8.471-9.664-6.682-15.63-17.42-17.778-31.976-2.028-14.2.119-43.788,37.226-83.52,12.17-13.125,16.823-11.1,29.351-5.608a161.348,161.348,0,0,0,15.749,6.2c17.539,5.966,48.561,19.806,58.464,45.578h0c5.846,15.153,5.727,28.635-.239,39.97-8.113,15.272-26.726,26.368-55.242,33.05C112.751,163.591,101.058,165.262,91.036,165.262ZM93.661,33.9c-4.176,0-7.994,2.506-14.079,8.949-36.271,39.016-38.419,67.89-36.51,81.611,1.909,13.84,7.636,24.1,16.7,30.306,13.721,9.426,35.2,10.5,65.742,3.46,27.8-6.443,45.817-17.181,53.572-31.857,5.727-10.738,5.727-23.5.119-38.061C169.664,63.487,139.477,50,122.3,44.158c-6.682-2.267-11.812-4.534-15.988-6.324C100.82,35.448,97.121,33.9,93.661,33.9Z" transform="translate(-40.158 -31.445)" fill="#f3a0a0"/>
              </g>
            </g>
            <path id="패스_13224" data-name="패스 13224" d="M80.287,120.449c4.176,6.324,18.852,6.92,31.976,3.46,13.721-3.579,27.323-9.068,26.607-19.806-.358-5.966-7.159-14.079-16.823-8.829-8.233,4.534-21.954,8.113-31.022,8.113C77.543,103.387,75.4,112.932,80.287,120.449Z" transform="translate(-17.353 18.062)" fill="#a43434"/>
            <ellipse id="타원_246" data-name="타원 246" cx="12.767" cy="8.471" rx="12.767" ry="8.471" transform="translate(124.078 105.04) rotate(-14.774)" fill="#f66c6c"/>
            <ellipse id="타원_247" data-name="타원 247" cx="12.051" cy="7.994" rx="12.051" ry="7.994" transform="translate(28.721 130.637) rotate(-14.774)" fill="#f66c6c"/>
            <g id="그룹_12911" data-name="그룹 12911" transform="translate(85.224 117.25)">
              <path id="패스_13225" data-name="패스 13225" d="M108.31,99.3c1.193,4.534,2.744,6.92-2.148,8.233-5.25,1.432-5.13-.358-6.562-5.846" transform="translate(-98.384 -98.084)" fill="#fff"/>
              <path id="패스_13226" data-name="패스 13226" d="M103.5,109.281a3.922,3.922,0,0,1-2.028-.477c-1.432-.835-1.909-2.625-2.506-5.25-.119-.477-.239-.955-.358-1.551a1.172,1.172,0,0,1,2.267-.6c.119.6.239,1.074.358,1.551.477,1.909.835,3.341,1.432,3.7.477.239,1.551.239,3.221-.239,1.312-.358,2.148-.716,2.386-1.193.358-.716,0-2.028-.477-3.7-.119-.6-.358-1.193-.477-1.79a1.172,1.172,0,1,1,2.267-.6c.119.6.358,1.193.477,1.79.6,2.267,1.193,3.937.358,5.488-.6,1.074-1.79,1.79-3.818,2.386A10.353,10.353,0,0,1,103.5,109.281Z" transform="translate(-98.581 -98.281)" fill="#fff"/>
            </g>
            <path id="패스_13227" data-name="패스 13227" d="M97.323,128.1c-7.994,0-15.034-1.909-17.9-6.324h0c-2.864-4.415-3.46-9.426-1.432-13.125,2.148-3.937,6.92-6.2,13.482-6.2,9.187,0,23.028-3.579,31.38-8.233,5.369-2.983,9.426-2.028,11.812-.716a13.2,13.2,0,0,1,6.324,10.38c.6,9.784-8.352,17.062-27.442,22.073A68.878,68.878,0,0,1,97.323,128.1Zm-15.988-7.636c3.579,5.488,17.42,6.8,31.618,3.1,17.778-4.653,26.13-11.1,25.653-19.567a10.44,10.44,0,0,0-5.131-8.352c-2.744-1.551-5.966-1.312-9.545.716-8.591,4.773-22.908,8.471-32.453,8.591-5.608,0-9.664,1.79-11.454,4.892-1.551,2.864-1.074,6.92,1.312,10.619Z" transform="translate(-17.565 17.804)" fill="#7a2a2a"/>
            <g id="그룹_12916" data-name="그룹 12916">
              <g id="그룹_12912" data-name="그룹 12912">
                <path id="패스_13228" data-name="패스 13228" d="M49.207,6.131c14.556-7.278,29.828-6.682,35.675.955l40.925,44.623S69.968,73.662,54.815,87.741L29.4,37.271C24.748,27.965,33.577,14.005,49.207,6.131Z" transform="translate(-26.958 0.18)" fill="#e55757"/>
                <path id="패스_13229" data-name="패스 13229" d="M55.009,89.125h-.239a1.522,1.522,0,0,1-.835-.6L28.522,38.059c-5.011-9.9,4.176-24.7,20.4-32.811,14.914-7.4,30.783-6.92,37.107,1.193l40.925,44.623a1.144,1.144,0,0,1,.239,1.074,1.261,1.261,0,0,1-.716.835c-.6.239-55.839,22.073-70.634,35.794A1.083,1.083,0,0,1,55.009,89.125ZM69.566,2.384A44.9,44.9,0,0,0,50,7.4h0c-15.034,7.517-23.743,20.761-19.329,29.59l24.7,49.038c15.153-12.767,59.418-30.9,68.606-34.6L84.241,7.992C81.258,4.293,76.009,2.384,69.566,2.384ZM49.4,6.322Z" transform="translate(-27.153 -0.011)" fill="#b43939"/>
              </g>
              <g id="그룹_12913" data-name="그룹 12913" transform="translate(17.476 36.616)">
                <path id="패스_13230" data-name="패스 13230" d="M125.7,45.321,113.176,31.6S85.972,32.674,42.9,68.229l7.517,14.914C50.3,83.144,107.33,50.213,125.7,45.321Z" transform="translate(-41.588 -30.526)" fill="#fff"/>
                <path id="패스_13231" data-name="패스 13231" d="M50.51,84.511h-.358a1.222,1.222,0,0,1-.716-.6L41.919,69a1.139,1.139,0,0,1,.358-1.432C85.23,32.132,112.2,30.7,113.269,30.7a1.355,1.355,0,0,1,.955.358l12.528,13.6a1.387,1.387,0,0,1,.239,1.193,1.441,1.441,0,0,1-.835.835c-17.9,4.892-74.452,37.465-75.048,37.7A.894.894,0,0,1,50.51,84.511ZM44.544,68.761l6.562,12.886C59.1,77.113,105.275,50.864,123.769,44.9L112.911,33.086C108.854,33.444,83.083,37.143,44.544,68.761Z" transform="translate(-41.8 -30.7)" fill="#bfbfbf"/>
              </g>
              <g id="그룹_12914" data-name="그룹 12914" transform="translate(26.633 27.145)">
                <path id="패스_13232" data-name="패스 13232" d="M126.5,45.619c13.482-3.937,13.96-25.653-7.755-21.119S50.5,83.322,50.5,83.322,106.1,51.585,126.5,45.619Z" transform="translate(-49.277 -22.545)" fill="#604e2c"/>
                <path id="패스_13233" data-name="패스 13233" d="M50.7,84.731a1.085,1.085,0,0,1-.955-.477,1.254,1.254,0,0,1,0-1.551c1.909-2.267,47.129-54.765,68.963-59.3,11.454-2.386,16.943,2.267,18.255,7.517,1.432,5.846-1.909,13.6-9.9,15.988h0c-20.045,5.966-75.168,37.345-75.764,37.584C51.056,84.612,50.937,84.731,50.7,84.731Zm73.855-59.538a28.327,28.327,0,0,0-5.25.6C102.242,29.37,68.714,65.283,56.306,79,71.459,70.533,110,49.534,126.462,44.642c6.443-1.909,9.545-8.352,8.352-13.125C133.621,27.461,130.042,25.194,124.553,25.194Z" transform="translate(-49.475 -22.762)" fill="#594728"/>
              </g>
              <path id="패스_13234" data-name="패스 13234" d="M118.668,78.727a4.7,4.7,0,0,1,3.579.477,4.354,4.354,0,0,1,2.148,2.864,4.792,4.792,0,0,1-3.341,5.846,4.059,4.059,0,0,1-1.193.119,5.431,5.431,0,0,1-2.386-.6,4.354,4.354,0,0,1-2.148-2.864,4.7,4.7,0,0,1,.477-3.579A4.85,4.85,0,0,1,118.668,78.727Z" transform="translate(-10.155 15.16)" fill="#6e4a4a"/>
              <path id="패스_13235" data-name="패스 13235" d="M80.768,88.727a4.7,4.7,0,0,1,3.579.477A4.354,4.354,0,0,1,86.5,92.068a4.7,4.7,0,0,1-.477,3.579A4.354,4.354,0,0,1,83.154,97.8a4.059,4.059,0,0,1-1.193.119,5.431,5.431,0,0,1-2.386-.6,4.354,4.354,0,0,1-2.148-2.864,4.7,4.7,0,0,1,.477-3.579A4.763,4.763,0,0,1,80.768,88.727Z" transform="translate(-17.475 17.091)" fill="#6e4a4a"/>
              <g id="그룹_12915" data-name="그룹 12915" transform="translate(17.906 75.065)">
                <ellipse id="타원_248" data-name="타원 248" cx="8.591" cy="6.92" rx="8.591" ry="6.92" transform="matrix(0.164, -0.987, 0.987, 0.164, 0, 17.153)" fill="#ffde40"/>
                <path id="패스_13236" data-name="패스 13236" d="M49.927,82.463a3.3,3.3,0,0,1-1.074-.119c-4.415-.716-7.278-5.608-6.324-10.977h0a11.632,11.632,0,0,1,3.341-6.324,7.34,7.34,0,0,1,6.2-2.028c4.415.716,7.278,5.608,6.324,10.977C57.563,78.883,53.865,82.463,49.927,82.463ZM44.8,71.844c-.716,4.057,1.312,7.755,4.415,8.233s6.2-2.386,6.8-6.324C56.728,69.7,54.7,66,51.6,65.52a4.8,4.8,0,0,0-4.176,1.432A8.171,8.171,0,0,0,44.8,71.844Z" transform="translate(-42.125 -62.925)" fill="#f1b71c"/>
              </g>
            </g>
          </g>
          <path id="패스_13237" data-name="패스 13237" d="M130.822,157.608a1.269,1.269,0,0,1-1.193-1.074,138.439,138.439,0,0,0-2.625-14.2,1.172,1.172,0,0,1,2.267-.6,126.847,126.847,0,0,1,2.744,14.437,1.185,1.185,0,0,1-1.074,1.312A.117.117,0,0,1,130.822,157.608Z" transform="translate(-7.872 27.197)" fill="#bbbdbf"/>
        </g>
        <g id="그룹_12919" data-name="그룹 12919" transform="translate(77.73 151.276)">
          <path id="패스_13238" data-name="패스 13238" d="M93.2,146.19c3.46,0,6.443-2.267,9.068-4.653,5.011-4.534,8.352-12.528,15.511-13.721,2.506-.358,5.25.239,6.8,2.267,3.818,4.534-.119,10.858-3.221,14.556-10.022,11.812-18.852,13.84-23.5,13.125" transform="translate(-92.126 -126.622)" fill="#fff"/>
          <path id="패스_13239" data-name="패스 13239" d="M99.7,159.254c-.835,0-1.432-.119-1.79-.119a1.148,1.148,0,0,1,.358-2.267c2.386.358,11.216.6,22.431-12.767,2.625-3.1,6.562-8.949,3.221-13.005a6.277,6.277,0,0,0-5.727-1.79c-4.415.716-7.278,4.3-10.261,8.113a48.759,48.759,0,0,1-4.653,5.25c-2.864,2.625-5.966,4.892-9.784,4.892h0a1.193,1.193,0,1,1,0-2.386h0c2.983,0,5.727-2.028,8.233-4.3a47.108,47.108,0,0,0,4.415-5.011c3.221-4.057,6.443-8.113,11.812-8.949a8.44,8.44,0,0,1,7.875,2.625c3.341,3.937,2.148,9.664-3.221,15.988C112.345,157.464,103.754,159.254,99.7,159.254Z" transform="translate(-92.3 -126.799)" fill="#bfbfbf"/>
        </g>
        <g id="그룹_12932" data-name="그룹 12932" transform="translate(120.225 79.162)">
          <g id="그룹_12920" data-name="그룹 12920" transform="translate(15.462 63.861)">
            <path id="패스_13240" data-name="패스 13240" d="M155.621,141.68c.239-.119.358-.119.6-.239l7.994-3.341a9.688,9.688,0,0,0,5.131-12.767l-1.432-3.341a1.928,1.928,0,0,0-3.579,1.432l1.432,3.341a5.836,5.836,0,0,1-3.1,7.636l-7.994,3.341a5.837,5.837,0,0,1-7.636-3.1L145.6,131.3a1.928,1.928,0,0,0-3.579,1.432l1.432,3.341A9.751,9.751,0,0,0,155.621,141.68Z" transform="translate(-140.677 -119.706)" fill="#e55757"/>
            <path id="패스_13241" data-name="패스 13241" d="M152.6,143.527a10.733,10.733,0,0,1-10.022-6.682l-1.432-3.341a2.786,2.786,0,0,1,0-2.386,3.258,3.258,0,0,1,1.67-1.67,2.786,2.786,0,0,1,2.386,0,2.875,2.875,0,0,1,1.67,1.67l1.432,3.341a4.653,4.653,0,0,0,6.085,2.506l7.994-3.341a4.653,4.653,0,0,0,2.506-6.085l-1.432-3.341a2.786,2.786,0,0,1,0-2.386,3.258,3.258,0,0,1,1.67-1.67,3.07,3.07,0,0,1,4.057,1.67l1.432,3.341a10.906,10.906,0,0,1-5.846,14.318l-7.994,3.341a1.7,1.7,0,0,1-.716.239A11.031,11.031,0,0,1,152.6,143.527ZM144.007,131.6c-.119,0-.239,0-.239.119q-.358.179-.358.358a.542.542,0,0,0,0,.6l1.432,3.341a8.557,8.557,0,0,0,10.619,4.773h0c.119-.119.358-.119.477-.239l7.994-3.341a8.6,8.6,0,0,0,4.534-11.216l-1.432-3.341a.66.66,0,0,0-.955-.358q-.358.179-.358.358a.542.542,0,0,0,0,.6l1.432,3.341a6.978,6.978,0,0,1,0,5.369,6.684,6.684,0,0,1-3.818,3.818l-7.994,3.341a6.978,6.978,0,0,1-5.369,0,6.684,6.684,0,0,1-3.818-3.818l-1.432-3.341q-.179-.358-.358-.358Z" transform="translate(-140.875 -119.883)" fill="#b43939"/>
          </g>
          <g id="그룹_12921" data-name="그룹 12921" transform="translate(35.924 4.583)">
            <path id="패스_13242" data-name="패스 13242" d="M198.732,71.1,211.5,101.525l2.148,5.011,2.267,5.369,10.5,24.937s-31.738-15.988-60.731-3.818l-2.267-5.369-2.148-5.011L159,117.275C188.113,105.1,198.732,71.1,198.732,71.1Z" transform="translate(-157.837 -70.026)" fill="#ffde40"/>
            <path id="패스_13243" data-name="패스 13243" d="M226.72,138.328a1.076,1.076,0,0,1-.6-.119c-.358-.119-31.618-15.63-59.776-3.7a1.184,1.184,0,0,1-1.551-.6l-6.682-15.869a1.307,1.307,0,0,1,0-.955,1.438,1.438,0,0,1,.6-.6c28.158-11.931,38.9-45.1,39.016-45.459A1.146,1.146,0,0,1,198.8,70.2a1.312,1.312,0,0,1,1.193.716l27.8,65.861a1.089,1.089,0,0,1-.239,1.312A2.212,2.212,0,0,1,226.72,138.328ZM189.733,127.59c15.511,0,28.993,4.892,34.72,7.159L199.039,74.5c-3.341,8.471-14.795,33.05-38.18,43.55l5.727,13.721A64.7,64.7,0,0,1,189.733,127.59Z" transform="translate(-158.025 -70.2)" fill="#f1b71c"/>
          </g>
          <g id="그룹_12922" data-name="그룹 12922" transform="translate(63.386)">
            <ellipse id="타원_249" data-name="타원 249" cx="14.676" cy="35.675" rx="14.676" ry="35.675" transform="translate(0 11.409) rotate(-22.873)" fill="#ffde40"/>
            <path id="패스_13244" data-name="패스 13244" d="M218.677,138.9c-8.113,0-18.852-11.573-26.01-28.4-3.818-8.949-5.846-17.9-5.966-25.414-.119-7.755,2.148-13.005,6.2-14.795,4.057-1.67,9.426.358,14.914,5.846,5.25,5.25,10.261,13.005,14.079,21.954s5.846,17.9,5.966,25.414c.119,7.755-2.148,13.005-6.2,14.795A8.307,8.307,0,0,1,218.677,138.9ZM195.888,72.082a5.573,5.573,0,0,0-2.028.358h0c-3.1,1.312-4.773,5.846-4.773,12.528.119,7.159,2.148,15.869,5.727,24.459,7.278,17.181,19.09,29.351,25.891,26.607,3.1-1.312,4.773-5.846,4.773-12.528-.119-7.159-2.148-15.869-5.727-24.459-3.7-8.591-8.471-16.227-13.482-21.238C202.45,74.11,198.871,72.082,195.888,72.082Zm-2.506-.716Z" transform="translate(-179.949 -65.709)" fill="#f1b71c"/>
          </g>
          <g id="그룹_12924" data-name="그룹 12924" transform="translate(70.711 24.132)">
            <g id="그룹_12923" data-name="그룹 12923">
              <path id="패스_13245" data-name="패스 13245" d="M204.665,101.928c4.176,9.784,3.46,19.329-1.312,21.477-.119,0-.119,0-.239.119a76.889,76.889,0,0,1-9.545-16.823A78.142,78.142,0,0,1,188.2,88.087c.119,0,.119-.119.239-.119C193.211,85.82,200.489,92.144,204.665,101.928Z" transform="translate(-186.984 -86.398)" fill="#fcb338"/>
              <path id="패스_13246" data-name="패스 13246" d="M203.311,124.783a1.085,1.085,0,0,1-.955-.477,80.82,80.82,0,0,1-9.784-17.062A73.935,73.935,0,0,1,187.2,88.393a1.058,1.058,0,0,1,.716-1.193.417.417,0,0,1,.239-.119c5.608-2.386,13.363,4.057,17.9,14.676,2.028,4.892,3.1,9.9,2.744,14.2-.239,4.534-2.028,7.636-4.773,8.829l-.239.119A.9.9,0,0,0,203.311,124.783Zm-13.6-35.794a72.575,72.575,0,0,0,5.13,17.3,76.238,76.238,0,0,0,8.829,15.749c1.551-1.074,2.506-3.341,2.744-6.443a30.966,30.966,0,0,0-2.625-13.125h0C200.09,94,193.885,88.035,189.709,88.989Z" transform="translate(-187.181 -86.584)" fill="#dc9127"/>
            </g>
          </g>
          <g id="그룹_12926" data-name="그룹 12926" transform="translate(2.463 49.135)">
            <g id="그룹_12925" data-name="그룹 12925">
              <path id="패스_13247" data-name="패스 13247" d="M141.042,138.667l33.169-13.96a16.938,16.938,0,0,1-5.131-6.92,16.414,16.414,0,0,1-1.312-9.187l-33.885,14.318h0c-2.267,1.074-2.983,1.312-2.983,1.312l1.193,8.113,3.818,5.846Z" transform="translate(-129.803 -107.336)" fill="#e55757"/>
              <path id="패스_13248" data-name="패스 13248" d="M141.219,140.065H141.1l-5.011-.6a1,1,0,0,1-.835-.477l-3.818-5.846c-.119-.119-.119-.358-.239-.477L130,124.554a1.161,1.161,0,0,1,.835-1.312,27.411,27.411,0,0,0,2.864-1.312l33.885-14.318a1.139,1.139,0,0,1,1.193.239,1.08,1.08,0,0,1,.358,1.193,15.884,15.884,0,0,0,1.193,8.471,16.085,16.085,0,0,0,4.653,6.443,1.3,1.3,0,0,1,.477,1.074,1.039,1.039,0,0,1-.716.955l-33.169,13.96A.523.523,0,0,1,141.219,140.065Zm-4.3-2.983,4.176.477,31.141-13.125a18.494,18.494,0,0,1-3.937-6.085,21.138,21.138,0,0,1-1.67-7.755l-31.976,13.482c-.954.477-1.551.716-2.028.955l1.074,6.92Z" transform="translate(-129.981 -107.54)" fill="#b43939"/>
            </g>
          </g>
          <path id="패스_13249" data-name="패스 13249" d="M218.677,138.9c-8.113,0-18.852-11.573-26.01-28.4-3.818-8.949-5.846-17.9-5.966-25.414-.119-7.755,2.148-13.005,6.2-14.795,4.057-1.67,9.426.358,14.914,5.846,5.25,5.25,10.261,13.005,14.079,21.954s5.846,17.9,5.966,25.414c.119,7.755-2.148,13.005-6.2,14.795A8.307,8.307,0,0,1,218.677,138.9ZM195.888,72.082a5.573,5.573,0,0,0-2.028.358h0c-3.1,1.312-4.773,5.846-4.773,12.528.119,7.159,2.148,15.869,5.727,24.459,7.278,17.181,19.09,29.351,25.891,26.607,3.1-1.312,4.773-5.846,4.773-12.528-.119-7.159-2.148-15.869-5.727-24.459-3.7-8.591-8.471-16.227-13.482-21.238C202.45,74.11,198.871,72.082,195.888,72.082Z" transform="translate(-116.564 -65.709)" fill="#fcb338"/>
          <g id="그룹_12929" data-name="그룹 12929" transform="translate(9.884 49.922)">
            <g id="그룹_12927" data-name="그룹 12927" transform="translate(12.06)">
              <path id="패스_13250" data-name="패스 13250" d="M151.829,116.831l3.1-1.312a3.4,3.4,0,0,0,1.79-4.3h0a3.4,3.4,0,0,0-4.3-1.79l-3.1,1.312a3.4,3.4,0,0,0-1.79,4.3h0A3.29,3.29,0,0,0,151.829,116.831Z" transform="translate(-146.111 -108.002)" fill="#a1d6d3"/>
              <path id="패스_13251" data-name="패스 13251" d="M150.832,118.461a4.564,4.564,0,0,1-4.176-2.744,4.473,4.473,0,0,1,2.386-5.846l3.1-1.312a4.357,4.357,0,0,1,3.46,0,4.263,4.263,0,0,1,2.386,2.386,4.357,4.357,0,0,1,0,3.46,3.935,3.935,0,0,1-2.386,2.386l-3.1,1.312A4.684,4.684,0,0,1,150.832,118.461Zm2.983-7.875a2.03,2.03,0,0,0-.835.119l-3.1,1.312a2.084,2.084,0,0,0,1.67,3.818h0l3.1-1.312a2.053,2.053,0,0,0,1.074-2.744A2.125,2.125,0,0,0,153.815,110.586Z" transform="translate(-146.308 -108.2)" fill="#7cbebc"/>
            </g>
            <g id="그룹_12928" data-name="그룹 12928" transform="translate(0 5.13)">
              <path id="패스_13252" data-name="패스 13252" d="M141.729,121.131l3.1-1.312a3.4,3.4,0,0,0,1.79-4.3h0a3.4,3.4,0,0,0-4.3-1.79l-3.1,1.312a3.4,3.4,0,0,0-1.79,4.3h0A3.29,3.29,0,0,0,141.729,121.131Z" transform="translate(-136.002 -112.302)" fill="#a1d6d3"/>
              <path id="패스_13253" data-name="패스 13253" d="M140.615,122.761a3.811,3.811,0,0,1-1.67-.358,4.263,4.263,0,0,1-2.386-2.386,4.357,4.357,0,0,1,0-3.46,4.263,4.263,0,0,1,2.386-2.386l3.1-1.312a4.357,4.357,0,0,1,3.46,0,4.263,4.263,0,0,1,2.386,2.386,4.357,4.357,0,0,1,0,3.46,4.263,4.263,0,0,1-2.386,2.386l-3.1,1.312h0A4.788,4.788,0,0,1,140.615,122.761Zm1.312-1.432Zm1.67-6.443a2.03,2.03,0,0,0-.835.119l-3.1,1.312a1.794,1.794,0,0,0-1.074,1.193,1.77,1.77,0,0,0,0,1.551,1.794,1.794,0,0,0,1.193,1.074,1.77,1.77,0,0,0,1.551,0l3.1-1.312a1.794,1.794,0,0,0,1.074-1.193,1.77,1.77,0,0,0,0-1.551,1.794,1.794,0,0,0-1.193-1.074A4.219,4.219,0,0,0,143.6,114.886Z" transform="translate(-136.2 -112.5)" fill="#7cbebc"/>
            </g>
          </g>
          <g id="그룹_12930" data-name="그룹 12930" transform="translate(36.33 43.569)">
            <path id="패스_13254" data-name="패스 13254" d="M173.827,128.863a2.382,2.382,0,1,0-1.79-4.415c-1.074.477-4.415-1.67-6.562-6.682s-1.312-8.949-.239-9.426a2.382,2.382,0,1,0-1.79-4.415c-4.3,1.79-5.25,8.591-2.267,15.63S169.532,130.653,173.827,128.863Z" transform="translate(-158.156 -102.704)" fill="#e55757"/>
            <path id="패스_13255" data-name="패스 13255" d="M171.889,130.7a9.814,9.814,0,0,1-5.369-1.909,20.565,20.565,0,0,1-6.324-8.471,19.593,19.593,0,0,1-1.67-10.38c.477-3.341,2.148-5.727,4.653-6.8a3.641,3.641,0,0,1,2.744,0,3.726,3.726,0,0,1,1.909,1.909,3.641,3.641,0,0,1,0,2.744,3.51,3.51,0,0,1-1.79,1.909c-.477.6-.955,3.7.835,7.875s4.3,5.966,5.011,6.085a3.342,3.342,0,0,1,2.625,0,3.726,3.726,0,0,1,1.909,1.909,3.641,3.641,0,0,1,0,2.744,3.726,3.726,0,0,1-1.909,1.909h0A10.148,10.148,0,0,1,171.889,130.7Zm2.148-1.67Zm-9.545-23.863a.717.717,0,0,0-.477.119c-1.67.716-2.864,2.506-3.221,4.892a17.6,17.6,0,0,0,1.551,9.187,18.4,18.4,0,0,0,5.488,7.517c2.028,1.432,4.057,1.909,5.727,1.193a1.438,1.438,0,0,0,.6-.6,1.307,1.307,0,0,0,0-.955,1.438,1.438,0,0,0-.6-.6,1.307,1.307,0,0,0-.955,0c-1.074.477-2.625-.119-4.176-1.551a16.265,16.265,0,0,1-3.937-5.846,16.744,16.744,0,0,1-1.432-6.92c.119-2.148.716-3.579,1.79-4.057a1.438,1.438,0,0,0,.6-.6,1.307,1.307,0,0,0,0-.955,1.438,1.438,0,0,0-.6-.6C164.73,105.172,164.611,105.172,164.492,105.172Zm7.278,18.374Zm-5.846-13.96Z" transform="translate(-158.366 -102.875)" fill="#b43939"/>
          </g>
          <g id="그룹_12931" data-name="그룹 12931" transform="translate(0 58.416)">
            <path id="패스_13256" data-name="패스 13256" d="M143.895,141.217a2.35,2.35,0,0,0-1.909-4.3c-1.074.477-4.534-1.551-6.682-6.562-2.267-4.892-1.551-8.829-.477-9.426a2.35,2.35,0,0,0-1.909-4.3c-4.3,1.909-5.011,8.71-1.909,15.749C133.991,139.308,139.6,143.126,143.895,141.217Z" transform="translate(-127.687 -115.109)" fill="#e55757"/>
            <path id="패스_13257" data-name="패스 13257" d="M141.737,143.1a9.564,9.564,0,0,1-5.25-1.79,20.542,20.542,0,0,1-6.562-8.352,19.747,19.747,0,0,1-1.909-10.38c.358-3.341,1.909-5.727,4.415-6.92a3.624,3.624,0,0,1,2.744-.119,3.538,3.538,0,0,1,2.028,1.909,3.624,3.624,0,0,1,.119,2.744,3.51,3.51,0,0,1-1.79,1.909c-.477.6-.835,3.7.955,7.875,1.909,4.057,4.534,5.846,5.25,5.966A3.58,3.58,0,0,1,144.6,142.5h0A5.618,5.618,0,0,1,141.737,143.1ZM133.863,117.8a.717.717,0,0,0-.477.119c-1.67.716-2.744,2.506-2.983,5.011a17.359,17.359,0,0,0,1.79,9.068,16.466,16.466,0,0,0,5.727,7.278c2.028,1.432,4.057,1.79,5.727.955h0a1.175,1.175,0,0,0-.955-2.148c-1.074.477-2.625,0-4.176-1.432a17.961,17.961,0,0,1-5.608-12.528c0-2.148.6-3.579,1.67-4.057a1.222,1.222,0,0,0,.6-.716,1.318,1.318,0,0,0,0-.955,1.222,1.222,0,0,0-.716-.6Zm7.755,18.255Zm-6.2-13.84Zm.119,0Z" transform="translate(-127.916 -115.319)" fill="#b43939"/>
          </g>
        </g>
      </g>
      <g id="그룹_12937" data-name="그룹 12937" transform="translate(188.218 10.825)">
        <g id="그룹_12934" data-name="그룹 12934" transform="translate(21.954 7.107)">
          <path id="패스_13258" data-name="패스 13258" d="M177.447,37.477c2.267-5.25,9.306-4.415,11.693.358a6.228,6.228,0,0,1-4.3,9.306c-3.818.6-8.233-4.057-7.636-8.591.6-4.892,9.664-21,10.619-22.55" transform="translate(-175.948 -14.844)" fill="#a1d6d3"/>
          <path id="패스_13259" data-name="패스 13259" d="M184.444,48.521a8.093,8.093,0,0,1-5.369-2.386,9.148,9.148,0,0,1-2.864-7.636,3.484,3.484,0,0,1,.239-1.074v-.119c1.67-6.324,9.9-20.761,10.5-21.715a1.208,1.208,0,1,1,2.028,1.312c-.716,1.193-5.727,10.142-8.591,16.585a12.673,12.673,0,0,1,2.267-.477,8.21,8.21,0,0,1,7.636,4.534,7.547,7.547,0,0,1-5.13,11.1C185.04,48.521,184.8,48.521,184.444,48.521Zm-5.727-10.5a2.03,2.03,0,0,0-.119.835,7.009,7.009,0,0,0,2.148,5.608,4.914,4.914,0,0,0,4.176,1.67,5.414,5.414,0,0,0,3.579-2.744,5.04,5.04,0,0,0-.119-4.892,5.957,5.957,0,0,0-5.488-3.221A4.767,4.767,0,0,0,178.717,38.022Z" transform="translate(-176.143 -15.031)" fill="#7cbebc"/>
        </g>
        <g id="그룹_12935" data-name="그룹 12935" transform="translate(0 0.068)">
          <path id="패스_13260" data-name="패스 13260" d="M159.047,32.631c2.267-5.25,9.306-4.415,11.693.358a6.228,6.228,0,0,1-4.3,9.306c-3.818.6-8.233-4.057-7.636-8.591.6-4.892,10.261-22.073,11.215-23.5" transform="translate(-157.548 -8.925)" fill="#a1d6d3"/>
          <path id="패스_13261" data-name="패스 13261" d="M166.044,43.7a8.093,8.093,0,0,1-5.369-2.386,9.148,9.148,0,0,1-2.864-7.636,3.484,3.484,0,0,1,.239-1.074c0-.119,0-.119.119-.239,1.79-6.443,10.5-21.715,11.1-22.67A1.208,1.208,0,1,1,171.293,11a186.665,186.665,0,0,0-9.068,17.539,12.673,12.673,0,0,1,2.267-.477,8.21,8.21,0,0,1,7.636,4.534A7.547,7.547,0,0,1,167,43.7Zm-5.727-10.5a2.03,2.03,0,0,0-.119.835,7.009,7.009,0,0,0,2.148,5.608,4.914,4.914,0,0,0,4.176,1.67,5.414,5.414,0,0,0,3.579-2.744,5.04,5.04,0,0,0-.119-4.892,6.04,6.04,0,0,0-5.25-3.221h-.239A4.564,4.564,0,0,0,160.317,33.2Z" transform="translate(-157.743 -9.131)" fill="#7cbebc"/>
        </g>
        <g id="그룹_12936" data-name="그룹 12936" transform="translate(6.552)">
          <path id="패스_13262" data-name="패스 13262" d="M190.33,17.14,168.973,10.1,164.2,18.691s16.7,5.846,21.119,7.517Z" transform="translate(-163.048 -8.876)" fill="#a1d6d3"/>
          <path id="패스_13263" data-name="패스 13263" d="M185.505,27.6a.9.9,0,0,1-.477-.119c-4.3-1.67-20.88-7.517-21-7.517a1.076,1.076,0,0,1-.716-.716.9.9,0,0,1,.119-.955L168.2,9.7a1.292,1.292,0,0,1,1.432-.6l21.357,7.04a1.076,1.076,0,0,1,.716.716.9.9,0,0,1-.119.955l-5.011,9.068A1.147,1.147,0,0,1,185.505,27.6Zm-19.329-9.426c3.7,1.312,14.318,5.011,18.852,6.682l3.818-6.92-18.971-6.2Z" transform="translate(-163.234 -9.075)" fill="#7cbebc"/>
        </g>
      </g>
    </g>
  </g>
</svg>
