<svg xmlns="http://www.w3.org/2000/svg" width="638" height="104" viewBox="0 0 638 104">
  <g id="btn_1" transform="translate(-554 -2522)">
    <g id="그룹_12833" data-name="그룹 12833" transform="translate(0 -3)">
      <g id="그룹_12830" data-name="그룹 12830" transform="translate(0 -1)">
        <rect id="사각형" width="175" height="64" rx="3" transform="translate(1001 2546)" fill="#ffe347"/>
        <path id="혜택받기" d="M1.95-1.56c0,3.45,2.61,5.79,6.18,5.79s6.18-2.34,6.18-5.79V-4.02a1.821,1.821,0,0,0,1.86,1.71h.57V2.55a2.6,2.6,0,0,0,5.19,0V-20.46a2.568,2.568,0,0,0-2.61-2.58,2.58,2.58,0,0,0-2.58,2.58v5.43h-.57c-1.32,0-1.92,1.05-1.92,2.37s.6,2.37,1.92,2.37h.57v3.24h-.57a1.821,1.821,0,0,0-1.86,1.71V-8.52c0-3.45-2.61-5.82-6.18-5.82S1.95-11.97,1.95-8.52ZM23.19,2.67a2.625,2.625,0,0,0,5.25,0V-20.58a2.6,2.6,0,0,0-2.64-2.61,2.593,2.593,0,0,0-2.61,2.61ZM1.2-17.64a2.05,2.05,0,0,0,2.07,2.25h9.69a2.107,2.107,0,0,0,2.1-2.25,2.107,2.107,0,0,0-2.1-2.25H10.74v-1.2a2.358,2.358,0,0,0-2.61-2.4,2.358,2.358,0,0,0-2.61,2.4v1.2H3.27A2.065,2.065,0,0,0,1.2-17.64ZM6.84-8.61a1.279,1.279,0,0,1,1.29-1.41A1.279,1.279,0,0,1,9.42-8.61v7.14A1.269,1.269,0,0,1,8.13-.09,1.269,1.269,0,0,1,6.84-1.47Zm46.35.96A2.574,2.574,0,0,0,55.8-5.04a2.581,2.581,0,0,0,2.64-2.61V-20.58a2.6,2.6,0,0,0-2.64-2.61,2.593,2.593,0,0,0-2.61,2.61v4.26H51.51v-4.14a2.568,2.568,0,0,0-2.61-2.58,2.58,2.58,0,0,0-2.58,2.58V-7.77A2.561,2.561,0,0,0,48.9-5.19a2.549,2.549,0,0,0,2.61-2.58v-4.41h1.68Zm5.25,6.06a2.509,2.509,0,0,0-2.55-2.55h-21a2.087,2.087,0,0,0-2.1,2.1,2.087,2.087,0,0,0,2.1,2.1H53.04V2.73a2.7,2.7,0,0,0,5.4,0ZM37.02-12.99h5.19a1.924,1.924,0,0,0,2.01-1.95,1.924,1.924,0,0,0-2.01-1.95h-8.4a1.924,1.924,0,0,0-2.01,1.95v6.87a1.924,1.924,0,0,0,2.01,1.95h1.56a34.082,34.082,0,0,0,8.64-.84,1.994,1.994,0,0,0,1.56-1.95,1.948,1.948,0,0,0-2.01-1.98,2.5,2.5,0,0,0-.66.09,22.454,22.454,0,0,1-5.88.69Zm5.49-5.43a1.973,1.973,0,0,0,2.01-2.01,1.973,1.973,0,0,0-2.01-2.01H33.66a1.973,1.973,0,0,0-2.01,2.01,1.973,1.973,0,0,0,2.01,2.01ZM75.78-7.71a2.074,2.074,0,0,0,2.07-2.07V-19.95a2.606,2.606,0,0,0-2.64-2.64,2.606,2.606,0,0,0-2.64,2.64v1.29H67.08v-1.29a2.606,2.606,0,0,0-2.64-2.64,2.606,2.606,0,0,0-2.64,2.64V-9.78a2.074,2.074,0,0,0,2.07,2.07ZM85.53,4.98a2.07,2.07,0,0,0,0-4.14H68.4V-1.47H85.23A2.074,2.074,0,0,0,87.3-3.54a2.074,2.074,0,0,0-2.07-2.07H65.13a2.074,2.074,0,0,0-2.07,2.07V3a2.057,2.057,0,0,0,2.07,1.98ZM81.6-9.06a2.652,2.652,0,0,0,2.7,2.7A2.652,2.652,0,0,0,87-9.06v-3.93h1.62a2.087,2.087,0,0,0,2.1-2.1,2.087,2.087,0,0,0-2.1-2.1H87v-3.3a2.67,2.67,0,0,0-2.7-2.7,2.67,2.67,0,0,0-2.7,2.7ZM67.08-11.79v-2.85h5.49v2.85ZM112.44,2.58a2.7,2.7,0,1,0,5.4,0V-20.49a2.67,2.67,0,0,0-2.7-2.7,2.67,2.67,0,0,0-2.7,2.7ZM91.2,1.29a2.452,2.452,0,0,0,2.43,2.49,3.247,3.247,0,0,0,1.32-.27c10.89-5.04,13.8-13.8,13.8-21.75v-1.65a2.087,2.087,0,0,0-2.1-2.1H93.87a2.229,2.229,0,0,0-2.22,2.28,2.215,2.215,0,0,0,2.22,2.22h9.48c0,7.02-3.27,12.78-10.77,16.5A2.525,2.525,0,0,0,91.2,1.29Z" transform="translate(1029 2586)" fill="#232950"/>
      </g>
      <g id="그룹_12832" data-name="그룹 12832">
        <path id="선착순_1_000원" data-name="선착순 1,000원" d="M1.62-10.224A2.89,2.89,0,0,0,4.572-7.308a3.859,3.859,0,0,0,1.476-.324A13.89,13.89,0,0,0,12.78-14.04a13.811,13.811,0,0,0,6.732,6.228,3.859,3.859,0,0,0,1.476.324A2.89,2.89,0,0,0,23.94-10.4a2.858,2.858,0,0,0-1.656-2.736,10.372,10.372,0,0,1-6.264-9.468v-1.8a3.079,3.079,0,0,0-3.24-3.06,3.079,3.079,0,0,0-3.24,3.06v1.8A10.612,10.612,0,0,1,3.276-12.96,2.858,2.858,0,0,0,1.62-10.224ZM3.672,2.916a3.01,3.01,0,0,0,3.06,3.06H31.968a2.52,2.52,0,0,0,0-5.04H10.152V-2.952a2.94,2.94,0,0,0-3.24-2.88,2.94,2.94,0,0,0-3.24,2.88ZM27.288-5.292a3.182,3.182,0,0,0,3.24,3.24,3.182,3.182,0,0,0,3.24-3.24v-19.3a3.2,3.2,0,0,0-3.24-3.24,3.2,3.2,0,0,0-3.24,3.24v2.952H23a2.5,2.5,0,0,0-2.52,2.52A2.5,2.5,0,0,0,23-16.6h4.284ZM37.8-10.44a2.742,2.742,0,0,0,2.88,2.808,3.765,3.765,0,0,0,1.4-.288,13.337,13.337,0,0,0,6.732-5.724,13.483,13.483,0,0,0,6.66,5.364,3.765,3.765,0,0,0,1.4.288A2.742,2.742,0,0,0,59.76-10.8a2.675,2.675,0,0,0-1.728-2.664c-2.844-1.152-5.22-3.24-5.868-6.264h4.9a2.411,2.411,0,0,0,2.592-2.484,2.428,2.428,0,0,0-2.592-2.556H52.02v-.9c0-1.836-1.44-2.88-3.24-2.88s-3.24,1.044-3.24,2.88v.9H40.5a2.449,2.449,0,0,0-2.52,2.556,2.431,2.431,0,0,0,2.52,2.484h4.9A9.179,9.179,0,0,1,39.528-13.1,2.675,2.675,0,0,0,37.8-10.44ZM68.4-2.412a3.01,3.01,0,0,0-3.06-3.06H41.868a2.5,2.5,0,0,0-2.52,2.52,2.5,2.5,0,0,0,2.52,2.52H61.92V3.1a3.24,3.24,0,1,0,6.48,0Zm-6.48-7.2a3.182,3.182,0,0,0,3.24,3.24,3.182,3.182,0,0,0,3.24-3.24V-14.9h1.944a2.5,2.5,0,0,0,2.52-2.52,2.5,2.5,0,0,0-2.52-2.52H68.4v-4.644a3.2,3.2,0,0,0-3.24-3.24,3.2,3.2,0,0,0-3.24,3.24ZM76.86-14c6.66,0,10.98-2.52,13.14-5.544C92.124-16.524,96.444-14,103.14-14a2.5,2.5,0,0,0,2.52-2.52,2.5,2.5,0,0,0-2.52-2.52c-5.472,0-9.9-3.2-9.9-6.012v-.576a2.992,2.992,0,0,0-3.168-2.736,3.087,3.087,0,0,0-3.312,2.736v.576c0,2.808-4.428,6.012-9.9,6.012a2.5,2.5,0,0,0-2.52,2.52A2.5,2.5,0,0,0,76.86-14Zm-3.42,4.68A2.544,2.544,0,0,0,75.96-6.84H87.12v2.808a3.036,3.036,0,0,0,3.24,3.06,3.036,3.036,0,0,0,3.24-3.06V-6.84H104a2.528,2.528,0,0,0,2.556-2.484A2.543,2.543,0,0,0,104-11.88H75.96A2.559,2.559,0,0,0,73.44-9.324ZM74.7,2.916a3.01,3.01,0,0,0,3.06,3.06H103.5a2.52,2.52,0,1,0,0-5.04H81.18V-2.232a2.94,2.94,0,0,0-3.24-2.88,2.94,2.94,0,0,0-3.24,2.88Zm58.788-4.86V-23.8a2.657,2.657,0,0,0-1.548-2.592,3.567,3.567,0,0,0-3.456.432L121.392-21.2a2.784,2.784,0,0,0-.468,4.068,2.987,2.987,0,0,0,3.96.828l2.124-1.44v15.8h-4.32A2.65,2.65,0,0,0,120.24.936a2.63,2.63,0,0,0,2.448,2.88h13.68a2.65,2.65,0,0,0,2.448-2.88,2.63,2.63,0,0,0-2.448-2.88Zm20.7-24.7c-7.488,0-12.852,5.472-12.852,15.372,0,9.936,5.364,15.444,12.852,15.444,7.452,0,12.852-5.508,12.852-15.444C167.04-21.168,161.64-26.64,154.188-26.64Zm-6.444,15.372c0-6.156,2.3-9.684,6.444-9.684s6.444,3.528,6.444,9.684c0,6.192-2.268,9.756-6.444,9.756C150.048-1.512,147.744-5.076,147.744-11.268ZM182.772-26.64c-7.488,0-12.852,5.472-12.852,15.372,0,9.936,5.364,15.444,12.852,15.444,7.452,0,12.852-5.508,12.852-15.444C195.624-21.168,190.224-26.64,182.772-26.64Zm-6.444,15.372c0-6.156,2.3-9.684,6.444-9.684s6.444,3.528,6.444,9.684c0,6.192-2.268,9.756-6.444,9.756C178.632-1.512,176.328-5.076,176.328-11.268ZM211.356-26.64c-7.488,0-12.852,5.472-12.852,15.372,0,9.936,5.364,15.444,12.852,15.444,7.452,0,12.852-5.508,12.852-15.444C224.208-21.168,218.808-26.64,211.356-26.64Zm-6.444,15.372c0-6.156,2.3-9.684,6.444-9.684s6.444,3.528,6.444,9.684c0,6.192-2.268,9.756-6.444,9.756C207.216-1.512,204.912-5.076,204.912-11.268Zm39.672,1.116a2.489,2.489,0,0,0,2.484-2.484v-.108h5.868v1.44a3.182,3.182,0,0,0,3.24,3.24,3.182,3.182,0,0,0,3.24-3.24V-24.588a3.2,3.2,0,0,0-3.24-3.24,3.2,3.2,0,0,0-3.24,3.24v.324h-5.868v-.18a2.489,2.489,0,0,0-2.484-2.484H230.292a2.489,2.489,0,0,0-2.484,2.484v11.808a2.489,2.489,0,0,0,2.484,2.484ZM235.836,5.976h17.028a6.785,6.785,0,0,0,6.912-6.732,6.792,6.792,0,0,0-6.912-6.768H235.836A6.784,6.784,0,0,0,228.96-.756,6.777,6.777,0,0,0,235.836,5.976Zm-.468-6.732a1.846,1.846,0,0,1,1.908-1.872h14.148a1.876,1.876,0,0,1,1.944,1.872,1.847,1.847,0,0,1-1.944,1.836H237.276A1.817,1.817,0,0,1,235.368-.756Zm-1.224-21.276h6.588v6.984h-6.588Zm12.924,2.484h5.868v2.088h-5.868ZM274.248-9.18a2.742,2.742,0,0,0,2.88,2.808,3.765,3.765,0,0,0,1.4-.288,12.893,12.893,0,0,0,6.516-5.868,12.855,12.855,0,0,0,6.444,5.688,3.765,3.765,0,0,0,1.4.288,2.742,2.742,0,0,0,2.88-2.808,2.675,2.675,0,0,0-1.728-2.664,9.354,9.354,0,0,1-5.76-7.7h4.788a2.411,2.411,0,0,0,2.592-2.484,2.428,2.428,0,0,0-2.592-2.556h-4.824v-.9c0-1.836-1.44-2.88-3.24-2.88s-3.24,1.044-3.24,2.88v.9h-4.824a2.449,2.449,0,0,0-2.52,2.556,2.431,2.431,0,0,0,2.52,2.484h4.788a9.49,9.49,0,0,1-5.76,7.884A2.675,2.675,0,0,0,274.248-9.18Zm25.488,4.608a3.182,3.182,0,0,0,3.24,3.24,3.182,3.182,0,0,0,3.24-3.24V-24.588a3.2,3.2,0,0,0-3.24-3.24,3.2,3.2,0,0,0-3.24,3.24V-18.5h-3.888a2.5,2.5,0,0,0-2.52,2.52,2.5,2.5,0,0,0,2.52,2.52h3.888ZM276.12,2.916a3.01,3.01,0,0,0,3.06,3.06h25.236a2.52,2.52,0,1,0,0-5.04H282.6V-2.052a2.94,2.94,0,0,0-3.24-2.88,2.94,2.94,0,0,0-3.24,2.88ZM311.148-21.2a5.715,5.715,0,0,0,5.724,5.724H327.24a5.715,5.715,0,0,0,5.724-5.724,5.715,5.715,0,0,0-5.724-5.724H316.872A5.715,5.715,0,0,0,311.148-21.2Zm16.92,15.768a2.469,2.469,0,0,0,2.484,2.376h5.184c.072,1.8,1.476,2.736,3.24,2.736,1.8,0,3.24-1.008,3.24-2.88V-24.588a3.2,3.2,0,0,0-3.24-3.24,3.2,3.2,0,0,0-3.24,3.24v16.7h-5.184A2.481,2.481,0,0,0,328.068-5.436ZM312.12,2.916a3.01,3.01,0,0,0,3.06,3.06h25.236a2.52,2.52,0,1,0,0-5.04H318.6V-1.872a2.94,2.94,0,0,0-3.24-2.88,2.94,2.94,0,0,0-3.24,2.88Zm6.48-7.74a2.755,2.755,0,0,0,3.024,2.772A3.205,3.205,0,0,0,324.756-4a18.38,18.38,0,0,0,.9-5h6.624a2.528,2.528,0,0,0,2.556-2.484,2.543,2.543,0,0,0-2.556-2.556H312.408a2.559,2.559,0,0,0-2.52,2.556A2.544,2.544,0,0,0,312.408-9h6.8a18.324,18.324,0,0,1-.432,2.916A5.318,5.318,0,0,0,318.6-4.824ZM317.412-21.2a1.015,1.015,0,0,1,1.008-1.044h7.272A1.015,1.015,0,0,1,326.7-21.2a1.015,1.015,0,0,1-1.008,1.044H318.42A1.015,1.015,0,0,1,317.412-21.2ZM346.968.9a3.636,3.636,0,0,0,7.272,0,3.636,3.636,0,0,0-7.272,0Zm7.272-24.48A3.408,3.408,0,0,0,350.6-27a3.408,3.408,0,0,0-3.636,3.42l.756,15.624a2.684,2.684,0,0,0,2.88,2.7,2.684,2.684,0,0,0,2.88-2.7Z" transform="translate(570 2607)" fill="#ffe347"/>
        <g id="그룹_12831" data-name="그룹 12831" transform="translate(-0.5)">
          <path id="월_19_500원" data-name="월 19,500원" d="M25.694.435A1.5,1.5,0,0,0,27.2-1.073V-5.162a1.572,1.572,0,0,0-1.6-1.595H12.876A10.99,10.99,0,0,0,13.2-8.671H19.4a1.82,1.82,0,0,0,1.856-1.8A1.832,1.832,0,0,0,19.4-12.325H2.987A1.826,1.826,0,0,0,1.16-10.469a1.813,1.813,0,0,0,1.827,1.8H8.062a13.912,13.912,0,0,1-.348,1.914H4.408A1.572,1.572,0,0,0,2.813-5.162a1.572,1.572,0,0,0,1.595,1.6H21.982v.986H4.466A1.5,1.5,0,0,0,2.958-1.073v4.2A1.647,1.647,0,0,0,4.64,4.814H26.1a1.647,1.647,0,0,0,1.682-1.682A1.647,1.647,0,0,0,26.1,1.45H8.178V.435ZM2.175-17.516A4.083,4.083,0,0,0,6.583-13.34h7.54a4.083,4.083,0,0,0,4.408-4.176,4.083,4.083,0,0,0-4.408-4.176H6.583A4.083,4.083,0,0,0,2.175-17.516ZM21.982-9.8a2.336,2.336,0,0,0,2.61,2.32A2.336,2.336,0,0,0,27.2-9.8V-19.807a2.581,2.581,0,0,0-2.61-2.61,2.581,2.581,0,0,0-2.61,2.61v1.16H20.706a1.792,1.792,0,0,0-1.74,2.03,1.792,1.792,0,0,0,1.74,2.03h1.276Zm-14.7-7.714c0-.435.319-.638.754-.638h4.64c.435,0,.754.2.754.638s-.319.638-.754.638H8.033C7.6-16.878,7.279-17.081,7.279-17.516ZM49.532-1.566v-17.6a2.141,2.141,0,0,0-1.247-2.088,2.873,2.873,0,0,0-2.784.348l-5.713,3.828a2.243,2.243,0,0,0-.377,3.277,2.407,2.407,0,0,0,3.19.667l1.711-1.16V-1.566h-3.48A2.135,2.135,0,0,0,38.86.754a2.118,2.118,0,0,0,1.972,2.32h11.02A2.135,2.135,0,0,0,53.824.754a2.118,2.118,0,0,0-1.972-2.32Zm6.612-11.31c0,4.7,3.19,8.091,8.439,8.091a7.053,7.053,0,0,0,5.046-1.972c-.348,3.074-2.262,5.6-4.959,5.6a7.824,7.824,0,0,1-4.089-1.247,2.04,2.04,0,0,0-2.813.58,2.055,2.055,0,0,0,.116,2.9A9.416,9.416,0,0,0,64.67,3.364c6.177,0,10.208-4.93,10.208-12.586,0-7.105-3.364-12.238-9.6-12.238C59.566-21.46,56.144-17.98,56.144-12.876Zm5.133-.058c0-2.32,1.276-4,3.915-4,2.378,0,4.263,2.378,4.35,5.046a4.948,4.948,0,0,1-4.553,2.523A3.5,3.5,0,0,1,61.277-12.934ZM80.707,6.96c1.653-.9,2.871-3.161,2.871-5.771A2.891,2.891,0,0,0,80.62-1.74a2.811,2.811,0,0,0-2.9,2.784,2.652,2.652,0,0,0,2.349,2.7,3.214,3.214,0,0,1-.7,1.6,1.622,1.622,0,0,0-.435.9.928.928,0,0,0,1.015.957A1.645,1.645,0,0,0,80.707,6.96Zm11.8-23.548h9.512a2.2,2.2,0,0,0,2.088-2.291,2.182,2.182,0,0,0-2.088-2.291H90.944a3.085,3.085,0,0,0-3.19,2.9l-.87,8.7a2.337,2.337,0,0,0,2.349,2.639,4.413,4.413,0,0,0,2.262-.725A6.952,6.952,0,0,1,95.9-9.019a3.663,3.663,0,0,1,3.944,3.8,4,4,0,0,1-4.321,3.886c-2.349,0-3.683-1.189-4.93-2.407A2.312,2.312,0,0,0,87.377-3.8,2.243,2.243,0,0,0,87-.7c1.885,2.552,4.814,3.8,8.526,3.828,5.6.029,9.483-3.567,9.483-8.468,0-4.93-3.8-8.149-8.816-8.149a7.2,7.2,0,0,0-4.147,1.131Zm25.462-4.872c-6.032,0-10.353,4.408-10.353,12.383,0,8,4.321,12.441,10.353,12.441,6,0,10.353-4.437,10.353-12.441C128.325-17.052,123.975-21.46,117.972-21.46ZM112.781-9.077c0-4.959,1.856-7.8,5.191-7.8s5.191,2.842,5.191,7.8c0,4.988-1.827,7.859-5.191,7.859C114.637-1.218,112.781-4.089,112.781-9.077ZM141-21.46c-6.032,0-10.353,4.408-10.353,12.383,0,8,4.321,12.441,10.353,12.441,6,0,10.353-4.437,10.353-12.441C151.351-17.052,147-21.46,141-21.46ZM135.807-9.077c0-4.959,1.856-7.8,5.191-7.8s5.191,2.842,5.191,7.8c0,4.988-1.827,7.859-5.191,7.859C137.663-1.218,135.807-4.089,135.807-9.077Zm18.654-6.237A4.128,4.128,0,0,0,158.6-11.18h7.488a4.128,4.128,0,0,0,4.134-4.134,4.128,4.128,0,0,0-4.134-4.134H158.6A4.128,4.128,0,0,0,154.461-15.314Zm12.22,11.388a1.783,1.783,0,0,0,1.794,1.716h3.744a2.088,2.088,0,0,0,2.34,1.976,2.094,2.094,0,0,0,2.34-2.08V-17.758a2.314,2.314,0,0,0-2.34-2.34,2.314,2.314,0,0,0-2.34,2.34V-5.694h-3.744A1.792,1.792,0,0,0,166.681-3.926ZM155.163,2.106a2.174,2.174,0,0,0,2.21,2.21H175.6a1.82,1.82,0,1,0,0-3.64H159.843V-1.352a2.124,2.124,0,0,0-2.34-2.08,2.124,2.124,0,0,0-2.34,2.08Zm4.68-5.59a1.99,1.99,0,0,0,2.184,2,2.315,2.315,0,0,0,2.262-1.4,13.273,13.273,0,0,0,.65-3.614h4.784a1.826,1.826,0,0,0,1.846-1.794,1.836,1.836,0,0,0-1.846-1.846H155.371a1.848,1.848,0,0,0-1.82,1.846,1.837,1.837,0,0,0,1.82,1.794h4.914a13.234,13.234,0,0,1-.312,2.106A3.84,3.84,0,0,0,159.843-3.484Zm-.858-11.83a.733.733,0,0,1,.728-.754h5.252a.733.733,0,0,1,.728.754.733.733,0,0,1-.728.754h-5.252A.733.733,0,0,1,158.985-15.314Z" transform="translate(575 2559)" fill="#b4a6a6"/>
          <path id="패스_8" data-name="패스 8" d="M15.5,743.5H204.582" transform="translate(555 1807.116)" fill="none" stroke="#b4a6a6" stroke-linecap="round" stroke-width="1"/>
        </g>
      </g>
    </g>
    <g id="그룹_12829" data-name="그룹 12829">
      <rect id="사각형_6969" data-name="사각형 6969" width="638" height="104" transform="translate(554 2522)" fill="none"/>
    </g>
  </g>
</svg>
