<svg xmlns="http://www.w3.org/2000/svg" xmlns:xlink="http://www.w3.org/1999/xlink" width="208" height="90" viewBox="0 0 208 90">
  <defs>
    <clipPath id="clip-path">
      <rect id="사각형_6" data-name="사각형 6" width="204" height="86" rx="10" fill="#323335"/>
    </clipPath>
  </defs>
  <g id="btn_ipad" transform="translate(-805 -24)">
    <rect id="사각형_6-2" data-name="사각형 6" width="208" height="88" rx="10" transform="translate(805 26)" fill="rgba(5,5,5,0.2)"/>
    <g id="그룹_5" data-name="그룹 5" transform="translate(807 24)">
      <path id="패스_3" data-name="패스 3" d="M10,0H194c5.523,0,10,4.877,10,10.894V75.166c0,6.016-4.477,10.894-10,10.894H10c-5.523,0-10-4.877-10-10.894V10.894C0,4.877,4.477,0,10,0Z" fill="#303554"/>
      <g id="마스크_그룹_1" data-name="마스크 그룹 1" clip-path="url(#clip-path)">
        <rect id="사각형_7" data-name="사각형 7" width="206" height="44" transform="translate(-1 -4)" fill="#fff" opacity="0.05"/>
      </g>
    </g>
    <g id="그룹_4" data-name="그룹 4" transform="translate(815 43.961)">
      <g id="그룹_7" data-name="그룹 7" transform="translate(0 27)">
        <path id="패스_2" data-name="패스 2" d="M7.785,1.692,1.353-6.06H3.515L10,1.692,3.515,9.477H1.3Z" transform="translate(172 9.56)" fill="#ffe347" stroke="#ffe347" stroke-linecap="round" stroke-linejoin="round" stroke-width="1"/>
        <path id="패스_9" data-name="패스 9" d="M-75.509-9.8c0,3.918,2.66,6.748,7.038,6.748A5.882,5.882,0,0,0-64.263-4.7c-.29,2.564-1.886,4.668-4.136,4.668a6.525,6.525,0,0,1-3.41-1.04,1.7,1.7,0,0,0-2.346.484,1.714,1.714,0,0,0,.1,2.419A7.853,7.853,0,0,0-68.4,3.746c5.152,0,8.513-4.112,8.513-10.5,0-5.925-2.806-10.206-8.005-10.206C-72.655-16.957-75.509-14.055-75.509-9.8Zm4.281-.048a3.031,3.031,0,0,1,3.265-3.338c1.983,0,3.555,1.983,3.628,4.208a4.127,4.127,0,0,1-3.8,2.1A2.915,2.915,0,0,1-71.228-9.847Zm22.686,6H-53.4l4.861-6.506Zm4.208-.048V-14.684a2.3,2.3,0,0,0-1.717-2.177,2.84,2.84,0,0,0-3.047.943L-58-3.945A2.735,2.735,0,0,0-58.41-1.43a2.19,2.19,0,0,0,2.2,1.306h7.618V1.883a1.908,1.908,0,0,0,2.128,1.935,1.908,1.908,0,0,0,2.128-1.935V-.124h1.669A1.737,1.737,0,0,0-41.02-2.011,1.723,1.723,0,0,0-42.665-3.9Zm21.96-10.158a1.888,1.888,0,0,0-.895-2.709A1.9,1.9,0,0,0-26-15.941L-34.708.843a1.888,1.888,0,0,0,.895,2.709A1.9,1.9,0,0,0-31.08,2.73Zm-12.456-2.491c-2.491,0-4.619,1.838-4.619,5.176s2.128,5.176,4.619,5.176c2.515,0,4.619-1.838,4.619-5.176S-32.314-16.546-34.829-16.546Zm-1.209,5.176c0-1.209.46-1.862,1.209-1.862.774,0,1.282.653,1.282,1.862s-.508,1.838-1.282,1.838C-35.579-9.532-36.038-10.161-36.038-11.37ZM-22.3-7.017c-2.491,0-4.619,1.838-4.619,5.176s2.128,5.176,4.619,5.176c2.515,0,4.619-1.838,4.619-5.176S-19.786-7.017-22.3-7.017ZM-23.51-1.841c0-1.209.46-1.862,1.209-1.862.774,0,1.282.653,1.282,1.862S-21.527,0-22.3,0C-23.051,0-23.51-.632-23.51-1.841ZM10.011,1.4a1.326,1.326,0,0,0,1.33-1.33V-3.365A1.363,1.363,0,0,0,9.963-4.743H-6.7A1.363,1.363,0,0,0-8.08-3.365,1.363,1.363,0,0,0-6.7-1.986H6.988v.726H-6.629A1.342,1.342,0,0,0-7.959.069V3.552a1.374,1.374,0,0,0,1.4,1.4H10.422a1.374,1.374,0,0,0,1.4-1.4,1.374,1.374,0,0,0-1.4-1.4H-3.605V1.4ZM-8.854-9.145A3.211,3.211,0,0,0-5.685-5.9H1.522A3.211,3.211,0,0,0,4.69-9.145a3.211,3.211,0,0,0-3.168-3.241H-5.685A3.211,3.211,0,0,0-8.854-9.145ZM6.988-7.4A2.04,2.04,0,0,0,9.165-5.348,2.04,2.04,0,0,0,11.341-7.4V-9.919h1.306a1.683,1.683,0,0,0,1.693-1.693,1.683,1.683,0,0,0-1.693-1.693H11.341v-2.273a2.153,2.153,0,0,0-2.177-2.177,2.153,2.153,0,0,0-2.177,2.177Zm-16.325-7.3a1.507,1.507,0,0,0,1.5,1.5H3.65a1.512,1.512,0,0,0,1.524-1.5A1.517,1.517,0,0,0,3.65-16.232H.095v-.314c0-1.233-.967-1.693-2.177-1.693s-2.177.46-2.177,1.693v.314H-7.838A1.512,1.512,0,0,0-9.337-14.708Zm4.6,5.563a.426.426,0,0,1,.435-.46H.143a.426.426,0,0,1,.435.46.426.426,0,0,1-.435.46h-4.45A.426.426,0,0,1-4.742-9.145Zm19.348-.363c0,3.459,3,5.248,6.578,5.248s6.6-1.79,6.6-5.248v-2.733c0-3.459-3.023-5.272-6.6-5.272s-6.578,1.814-6.578,5.272Zm4.305-2.733c0-1.33,1.113-1.935,2.3-1.935s2.273.6,2.273,1.935v2.733c0,1.33-1.088,1.911-2.273,1.911s-2.3-.58-2.3-1.911ZM31.246-2.857A2.138,2.138,0,0,0,33.423-.68,2.138,2.138,0,0,0,35.6-2.857V-15.579a2.153,2.153,0,0,0-2.177-2.177,2.153,2.153,0,0,0-2.177,2.177ZM15.622,2.9a2.022,2.022,0,0,0,2.056,2.056H34.39a1.693,1.693,0,1,0,0-3.386H19.975V-1.406A1.975,1.975,0,0,0,17.8-3.341a1.975,1.975,0,0,0-2.177,1.935ZM49.458-5.276a1.672,1.672,0,0,0,1.669-1.669v-8.2A2.1,2.1,0,0,0,49-17.272a2.1,2.1,0,0,0-2.128,2.128v1.04H42.444v-1.04a2.1,2.1,0,0,0-2.128-2.128,2.1,2.1,0,0,0-2.128,2.128v8.2a1.672,1.672,0,0,0,1.669,1.669Zm7.86,10.23a1.669,1.669,0,1,0,0-3.338H43.508V-.245H57.076a1.672,1.672,0,0,0,1.669-1.669,1.672,1.672,0,0,0-1.669-1.669h-16.2A1.672,1.672,0,0,0,39.2-1.914V3.359a1.658,1.658,0,0,0,1.669,1.6ZM54.15-6.364a2.138,2.138,0,0,0,2.177,2.177A2.138,2.138,0,0,0,58.5-6.364V-9.532h1.306A1.683,1.683,0,0,0,61.5-11.225a1.683,1.683,0,0,0-1.693-1.693H58.5v-2.66a2.153,2.153,0,0,0-2.177-2.177,2.153,2.153,0,0,0-2.177,2.177Zm-11.706-2.2v-2.3H46.87v2.3ZM78.408,3.02a2.177,2.177,0,1,0,4.353,0v-18.6a2.153,2.153,0,0,0-2.177-2.177,2.153,2.153,0,0,0-2.177,2.177ZM61.284,1.98a1.977,1.977,0,0,0,1.959,2.007,2.618,2.618,0,0,0,1.064-.218C73.087-.293,75.433-7.356,75.433-13.765v-1.33a1.683,1.683,0,0,0-1.693-1.693h-10.3a1.8,1.8,0,0,0-1.79,1.838,1.786,1.786,0,0,0,1.79,1.79h7.643c0,5.659-2.636,10.3-8.683,13.3A2.036,2.036,0,0,0,61.284,1.98Z" transform="translate(82.121 18.23)" fill="#ffe347"/>
      </g>
      <path id="패스_8" data-name="패스 8" d="M-51.284-1.764A10.668,10.668,0,0,0-47-6.095L-42.9-2.236c.386-.407.793-.879,1.2-1.286l-4.716-4.03a10.618,10.618,0,0,0,.429-3.023V-11.99h-1.758v1.329c0,3.259-1.5,5.681-4.481,7.5ZM-37.006.765V-12.44h-1.736v3.88H-43.03v1.479h4.288V.765Zm.386,4.866V4.174h-9.325V-.392h-1.736V5.632Zm3-16.143v1.479h5.81c-.064,2.208-2.508,4.438-6.581,5.7.214.472.429.986.665,1.479A14.419,14.419,0,0,0-28.5-4.637l3.473,2.251.922-1.436-3.409-1.844A6.521,6.521,0,0,0-26.073-9.8v-.707h-2.808v-2.251H-30.6v2.251ZM-31.347-.285V1.151h9.39V6.018h1.736v-6.3ZM-17.2-6.309V-7.788H-20.22V-12.44h-1.736V-1.529h1.736V-6.309ZM-6.8,1.944V-1.85H.531V-3.329h-17.15V-1.85H-8.58V1.944Zm-7.332-6.839A10.92,10.92,0,0,0-8.558-7.788c2.165.879,4.288,1.779,6.431,2.7.236-.515.493-1.029.729-1.565C-3.5-7.4-5.6-8.217-7.7-9.01a5.481,5.481,0,0,0,.622-2.615v-.686c-.579,0-1.179-.021-1.779-.021v.643c0,2.551-2.079,4.352-5.831,5.317ZM-2.148,5.825V4.367h-9.84V.487h-1.758V5.825ZM12.772-11H11.508L6.148-7.66l.815,1.415,4.052-2.53V3.9h1.758ZM22.141,4.11c3.323,0,5.317-2.53,5.317-7.653,0-5.081-1.929-7.739-5.317-7.739-3.409,0-5.317,2.7-5.317,7.739S18.732,4.11,22.141,4.11Zm0-13.827c2.23,0,3.43,2.037,3.43,6.174,0,3.923-1.136,6.088-3.43,6.088-2.251,0-3.43-2.058-3.43-6.088C18.711-7.681,19.933-9.718,22.141-9.718ZM35.261,4.11c3.323,0,5.317-2.53,5.317-7.653,0-5.081-1.929-7.739-5.317-7.739-3.409,0-5.317,2.7-5.317,7.739S31.852,4.11,35.261,4.11Zm0-13.827c2.23,0,3.43,2.037,3.43,6.174,0,3.923-1.136,6.088-3.43,6.088-2.251,0-3.43-2.058-3.43-6.088C31.831-7.681,33.053-9.718,35.261-9.718ZM48.381,4.11C51.7,4.11,53.7,1.58,53.7-3.544c0-5.081-1.929-7.739-5.317-7.739-3.409,0-5.317,2.7-5.317,7.739S44.972,4.11,48.381,4.11Zm0-13.827c2.23,0,3.43,2.037,3.43,6.174,0,3.923-1.136,6.088-3.43,6.088-2.251,0-3.43-2.058-3.43-6.088C44.951-7.681,46.173-9.718,48.381-9.718ZM65.7-8.474h3.451v1.994H65.7v1.458h3.451v2.787H70.89v-10.2H69.154v2.508H65.7ZM64.588-3.2v-8.446H56.7V-3.2ZM62.873-4.616H58.435v-5.617h4.438Zm7.911,7.074C70.783.4,69.068-1.529,66-1.529c-3.108,0-4.824,1.929-4.824,3.987,0,2.037,1.715,3.923,4.824,3.923C69.025,6.382,70.783,4.5,70.783,2.459ZM66-.071c2.079,0,3.044,1.265,3.044,2.53,0,1.179-.965,2.465-3.044,2.465-2.1,0-3.087-1.286-3.087-2.465C62.916,1.194,63.9-.071,66-.071Z" transform="translate(84.898 8.529)" fill="#ffe347" stroke="#ffe347" stroke-width="0.3"/>
    </g>
  </g>
</svg>
