<svg xmlns="http://www.w3.org/2000/svg" xmlns:xlink="http://www.w3.org/1999/xlink" width="1030" height="452" viewBox="0 0 1030 452">
  <defs>
    <clipPath id="clip-path">
      <rect id="img" width="1030" height="452" stroke-width="1" fill="#f9f9f9" stroke="rgba(0,0,0,0.1)" transform="translate(-215 284)"/>
    </clipPath>
    <linearGradient id="linear-gradient" x1="1" y1="0.5" x2="0" y2="0.5" gradientUnits="objectBoundingBox">
      <stop offset="0" stop-color="#ea9814"/>
      <stop offset="0.36" stop-color="#ffcc01"/>
    </linearGradient>
    <linearGradient id="linear-gradient-2" x1="0.501" y1="1" x2="0.501" gradientUnits="objectBoundingBox">
      <stop offset="0" stop-color="#ea9814"/>
      <stop offset="0.57" stop-color="#ffcc01"/>
    </linearGradient>
    <linearGradient id="linear-gradient-3" x1="0.795" y1="0.992" x2="0.355" y2="-0.114" gradientUnits="objectBoundingBox">
      <stop offset="0" stop-color="#b33c04"/>
      <stop offset="0.62" stop-color="#e66102"/>
    </linearGradient>
    <linearGradient id="linear-gradient-4" x1="0.62" y1="-0.078" x2="-0.044" y2="0.953" xlink:href="#linear-gradient-3"/>
    <linearGradient id="linear-gradient-5" x1="-0.145" y1="0.307" x2="0.953" y2="0.693" xlink:href="#linear-gradient"/>
    <linearGradient id="linear-gradient-6" y1="0.5" x2="1" y2="0.5" gradientUnits="objectBoundingBox">
      <stop offset="0" stop-color="#b33c04"/>
      <stop offset="0.4" stop-color="#e66102"/>
    </linearGradient>
  </defs>
  <g id="img-2" data-name="img" transform="translate(215 -284)">
    <rect id="img-3" data-name="img" width="1030" height="452" transform="translate(-215 284)" fill="#f9f9f9"/>
    <g id="마스크_그룹_1" data-name="마스크 그룹 1" clip-path="url(#clip-path)">
      <g id="그룹_12698" data-name="그룹 12698" transform="translate(-121.644 290.059)">
        <path id="패스_14063" data-name="패스 14063" d="M258.8,323.231c-10.337,11.175-22.07,25-37.016,27.8-5.587.978-12.571.14-15.365-4.889-1.4-2.514-1.537-5.727-1.4-8.66.978-27.1,12.432-52.66,24.724-76.826C241.9,236.767,255.308,213.021,275,194.862c12.013-11.175,27.1-20.254,43.581-20.254a338.412,338.412,0,0,0-35.9-17.181c-21.93-9.079-44.978-16.064-65.092-28.775-12.013-7.543-22.908-17.181-36.6-20.673-6.425-1.676-14.248-2.654-17.181-8.66-1.117-2.375-1.257-5.029-2.514-7.124-3.352-5.448-11.733-4.749-17.041-8.241-2.654-1.676-4.47-4.47-6.844-6.565-8.8-7.822-23.746-4.889-32.686-12.711-5.448-4.749-7.263-12.432-11.454-18.438-5.587-8.1-15.086-12.571-24.025-16.762-8.521-3.911-16.9-7.822-25.422-11.733C36.7,14.532,29.162,11.04,21.2,10.9S-7.292-.777-12.016-7.384s-21.029-23.229-26.615-27.7-11.9-9.669-11.9-9.669" transform="translate(8.016 3.929)" fill="none" stroke="#000" stroke-linecap="round" stroke-linejoin="round" stroke-miterlimit="10" stroke-width="2"/>
        <path id="패스_14064" data-name="패스 14064" d="M270.727,270.313c-7.962,8.521-23.886,28.5-40.089,30.032-19.835,1.956-22.908-9.219-32.686-16.762-27.518-21.371-56.152-40.927-84.927-60.622-11.314-7.822-22.768-15.5-34.083-23.327C53.94,182.452,28.657,165.132,1,152.7s-51.408-24.343-58.429-30.151-31.1-21.419-35.854-26.177" transform="translate(0 60.199)" fill="none" stroke="#000" stroke-linecap="round" stroke-linejoin="round" stroke-miterlimit="10" stroke-width="2"/>
        <path id="패스_14065" data-name="패스 14065" d="M288.168,139.941c4.051,11.314,3.492,24.444-2.375,34.921-5.727,10.476-16.9,18.159-28.775,19.137-5.587.419-11.873-.978-14.806-5.727-2.1-3.492-1.676-7.822-.279-11.594s3.771-6.984,5.867-10.337A80.572,80.572,0,0,0,258,141.477c.7-3.073,1.257-6.286,3.213-8.8,2.654-3.352,7.264-4.33,11.454-5.168,17.181-3.352,31.568-6.286,46.933-14.806,6.565-3.632,13.13-7.962,20.533-8.1,8.241-.14,15.645,5.029,22.629,9.359,15.924,10.057,33.8,17.46,52.521,19.835s27.8.559,54.057-7.4" transform="translate(95.144 41.111)" fill="none" stroke="#000" stroke-linecap="round" stroke-linejoin="round" stroke-miterlimit="10" stroke-width="2"/>
        <path id="패스_14066" data-name="패스 14066" d="M275.4,152.282c8.8-4.051,20.533-8.1,30.172-8.66a26.118,26.118,0,0,1,7.4.419c4.051,1.117,7.543,3.911,10.756,6.565a310,310,0,0,0,46.654,31.429,261.117,261.117,0,0,0,29.752,13.829c10.476,4.051,21.372,7.124,31.848,11.454,10.756,4.33,20.952,9.917,31.01,15.644,5.727,3.213,11.594,6.7,15.784,11.733,4.33,5.029,6.984,11.873,5.168,18.3-2.514,9.219-13.41,14.108-23.048,13.41s-18.438-5.308-27.238-9.219c-26.26-11.454-55.733-16.064-79.759-31.848" transform="translate(108.89 56.566)" fill="none" stroke="#000" stroke-linecap="round" stroke-linejoin="round" stroke-miterlimit="10" stroke-width="2"/>
        <path id="패스_14067" data-name="패스 14067" d="M334.341,191.1c2.654,16.483,18.578,27.1,33.1,35.619,13.13,7.822,22.489,18.3,35.619,25.981,3.073,1.816,14.527.559,14.667,4.19.419,29.752-27.937,47.632-57.829,27.1-6.425-4.47-12.432-9.359-18.438-14.248A229.773,229.773,0,0,0,308.5,247.113" transform="translate(122.025 75.437)" fill="none" stroke="#000" stroke-linecap="round" stroke-linejoin="round" stroke-miterlimit="10" stroke-width="2"/>
        <path id="패스_14068" data-name="패스 14068" d="M387.124,268.671c1.536,18.438-19.556,24.3-21.232,24.724-2.1.559-14.527.279-18.438-.838-3.771-.978-6.984-3.632-9.917-6.146A260.785,260.785,0,0,0,292,256.1" transform="translate(115.477 101.231)" fill="none" stroke="#000" stroke-linecap="round" stroke-linejoin="round" stroke-miterlimit="10" stroke-width="2"/>
        <path id="패스_14069" data-name="패스 14069" d="M356.643,284.8c.978,7.962-5.867,15.225-13.549,17.46s-15.924.559-23.746-1.536A194.591,194.591,0,0,1,296.3,292.9" transform="translate(117.183 112.62)" fill="none" stroke="#000" stroke-linecap="round" stroke-linejoin="round" stroke-miterlimit="10" stroke-width="2"/>
        <path id="패스_14070" data-name="패스 14070" d="M238.16,268.808a137.539,137.539,0,0,0-12.432-7.264c-3.632-2.1-6.006-5.867-8.1-9.5s-4.19-7.263-6.146-11.035c-3.213-6.565,1.816-9.778,9.079-10.2,8.94-.559,15.225,3.632,18.438,10.9" transform="translate(83.132 91.177)" fill="none" stroke="#000" stroke-linecap="round" stroke-linejoin="round" stroke-miterlimit="10" stroke-width="2"/>
        <path id="패스_14071" data-name="패스 14071" d="M262.128,292.922c-4.19-2.375-12.851-7.124-17.041-9.5-3.632-2.1-7.4-4.051-10.2-7.264-4.19-4.609-5.727-11.175-5.587-17.46s1.816-12.432,3.492-18.438c1.117-3.911,2.375-8.1,5.587-10.337,3.632-2.514,8.381-1.956,12.571-1.257,2.235.279,13.968,4.61,14.108,20.813" transform="translate(90.593 90.11)" fill="none" stroke="#000" stroke-linecap="round" stroke-linejoin="round" stroke-miterlimit="10" stroke-width="2"/>
        <path id="패스_14072" data-name="패스 14072" d="M284.012,304.426c-4.19-.7-6.984-1.4-11.175-1.956-4.47-.7-9.079-1.537-12.571-4.33-3.213-2.654-4.889-6.844-6.425-10.756-1.816-5.168-3.352-10.337-3.632-15.784-.279-6.7,1.4-13.27,3.073-19.835.7-2.794,1.536-5.727,3.492-7.962,3.911-4.19,13.41-.14,17.74,3.771s6.7,10.476,7.124,16.343,3.073,13.41,4.19,12.99" transform="translate(98.881 95.648)" fill="none" stroke="#000" stroke-linecap="round" stroke-linejoin="round" stroke-miterlimit="10" stroke-width="2"/>
        <path id="패스_14073" data-name="패스 14073" d="M313.94,304.281c-23.746,10.057-37.994,3.073-38.413-7.683a59.372,59.372,0,0,0-2.235-14.806c-1.117-4.051-2.514-8.8.14-12.152,2.1-2.654,5.867-3.073,9.219-2.933,15.365.838,26.679,17.46,22.07,32.546" transform="translate(107.505 105.43)" fill="none" stroke="#000" stroke-linecap="round" stroke-linejoin="round" stroke-miterlimit="10" stroke-width="2"/>
        <path id="패스_14074" data-name="패스 14074" d="M229.7,128.9c13.27,4.889,21.232,5.867,30.87,8.381" transform="translate(90.755 50.754)" fill="none" stroke="#000" stroke-linecap="round" stroke-linejoin="round" stroke-miterlimit="10" stroke-width="2"/>
        <path id="패스_14075" data-name="패스 14075" d="M156.5,225.4c10.9,4.19,61.879,15.644,76.406,20.394" transform="translate(61.707 89.048)" fill="none" stroke="#000" stroke-linecap="round" stroke-linejoin="round" stroke-miterlimit="10" stroke-width="2"/>
        <path id="패스_14076" data-name="패스 14076" d="M247.923,165.5c-9.778,13.968-16.343,40.787-17.321,49.727a362.491,362.491,0,0,0-2.1,46.1" transform="translate(90.271 65.278)" fill="none" stroke="#000" stroke-linecap="round" stroke-linejoin="round" stroke-miterlimit="10" stroke-width="2"/>
        <path id="패스_14077" data-name="패스 14077" d="M486.769,231.817c-51.4-41.346-39.81-122.083-42.883-124.318-2.375-1.676-22.489,3.073-29.333,5.308a19.537,19.537,0,0,0-6.7,3.073c-5.168,4.19-10.9,70.959,37.575,130.883C462.6,245.227,470.846,242.433,486.769,231.817Z" transform="translate(160.124 42.123)" fill="#fcee21" stroke="#000" stroke-linecap="round" stroke-linejoin="round" stroke-miterlimit="10" stroke-width="2"/>
        <path id="패스_14078" data-name="패스 14078" d="M421.3,210.3c2.1-1.676,10.756-5.727,13.41-6.7" transform="translate(166.787 80.397)" fill="none" stroke="#000" stroke-linecap="round" stroke-linejoin="round" stroke-miterlimit="10" stroke-width="2"/>
        <path id="패스_14079" data-name="패스 14079" d="M380,237.9a60.351,60.351,0,0,1,16.483-8.1" transform="translate(150.398 90.794)" fill="none" stroke="#000" stroke-linecap="round" stroke-linejoin="round" stroke-miterlimit="10" stroke-width="2"/>
        <path id="패스_14080" data-name="패스 14080" d="M453.9,187.488c3.632-1.536,10.9-6.286,19.137-5.029" transform="translate(179.723 71.925)" fill="none" stroke="#000" stroke-linecap="round" stroke-linejoin="round" stroke-miterlimit="10" stroke-width="2"/>
        <path id="패스_14081" data-name="패스 14081" d="M690.3-38.064s-18.385,11.24-20.643,18.26S641.3-5.286,633.342,1s-17.46,8.241-25,15.5a162.028,162.028,0,0,1-21.511,17.6c-13.829,9.359-20.673,26.121-33.8,36.038-12.851,9.638-30.032,11.733-43.441,20.673-7.683,5.029-13.689,12.013-20.813,17.879-6.7,5.448-14.108,9.778-21.651,14.108-10.476,6.006-16.762,6.984-25.7,11.175a5.157,5.157,0,0,0-1.956,7.543c4.19,5.867,5.448,13.689,7.4,21.092,13.689,52.66,32.406,112.445,75.848,145.27,2.235,1.676,4.749,3.352,7.543,3.492,2.375.14,4.749-.978,6.844-2.1,19.835-10.057,71.657-45.118,79.06-50.565,18.438-13.549,46.235-23.048,53.5-23.467S704.7,217.571,704.7,217.571s13.449-7.892,23.32-16.523,12.123-14.43,16.164-18,19.083-20.432,19.083-20.432" transform="translate(173.628 0)" fill="none" stroke="#000" stroke-linecap="round" stroke-linejoin="round" stroke-miterlimit="10" stroke-width="2"/>
        <path id="패스_14082" data-name="패스 14082" d="M166.681,82.805c-18.717-6.844-39.391,0-58.248,6.844-13.13,4.749-26.4,9.5-38.133,17.181" transform="translate(27.5 31.338)" fill="none" stroke="#000" stroke-linecap="round" stroke-linejoin="round" stroke-miterlimit="10" stroke-width="2"/>
        <path id="패스_14083" data-name="패스 14083" d="M149.992,65.364C107.11,61.872,58.5,74.3,23.3,99.168" transform="translate(8.849 25.312)" fill="none" stroke="#000" stroke-linecap="round" stroke-linejoin="round" stroke-miterlimit="10" stroke-width="2"/>
        <path id="패스_14084" data-name="패스 14084" d="M469.4,87.459A411.581,411.581,0,0,1,572.626,69.3" transform="translate(185.874 27.103)" fill="none" stroke="#000" stroke-linecap="round" stroke-linejoin="round" stroke-miterlimit="10" stroke-width="2"/>
        <path id="패스_14085" data-name="패스 14085" d="M306.345,151.344c-4.33-7.822-5.448-15.5-4.33-24.444" transform="translate(119.291 49.961)" fill="none" stroke="#000" stroke-linecap="round" stroke-linejoin="round" stroke-miterlimit="10" stroke-width="2"/>
        <path id="패스_14086" data-name="패스 14086" d="M359.1,187.171c5.587-1.4,11.454-2.933,15.784-6.844a28.3,28.3,0,0,0,5.727-7.683A62.15,62.15,0,0,0,386.478,157" transform="translate(142.104 61.905)" fill="none" stroke="#000" stroke-linecap="round" stroke-linejoin="round" stroke-miterlimit="10" stroke-width="2"/>
        <path id="패스_14087" data-name="패스 14087" d="M426.543,213.345c-1.816-1.4-4.609-.978-6.565.419s-3.073,3.492-4.19,5.587c-1.816,3.352-3.632,6.7-5.448,9.917a4.15,4.15,0,0,0-.7,3.352,3.882,3.882,0,0,0,1.676,1.676,15.027,15.027,0,0,0,6.006,1.816" transform="translate(162.102 83.923)" fill="none" stroke="#000" stroke-linecap="round" stroke-linejoin="round" stroke-miterlimit="10" stroke-width="2"/>
        <path id="패스_14088" data-name="패스 14088" d="M362.9,246.6a16.786,16.786,0,0,0-6.984,15.086" transform="translate(140.814 97.461)" fill="none" stroke="#000" stroke-linecap="round" stroke-linejoin="round" stroke-miterlimit="10" stroke-width="2"/>
        <path id="패스_14089" data-name="패스 14089" d="M370.106,196.8a26.045,26.045,0,0,0-2.654,17.74" transform="translate(145.206 77.699)" fill="none" stroke="#000" stroke-linecap="round" stroke-linejoin="round" stroke-miterlimit="10" stroke-width="2"/>
        <path id="패스_14090" data-name="패스 14090" d="M345.7,268.2c-2.375,3.213-4.609,6.565-6.984,9.778-.978,1.4-1.816,3.632-.279,4.47,1.257.7,2.654-.419,3.492-1.536,1.536-1.676,3.073-3.492,4.47-5.168" transform="translate(133.57 106.032)" fill="none" stroke="#000" stroke-linecap="round" stroke-linejoin="round" stroke-miterlimit="10" stroke-width="2"/>
        <path id="패스_14091" data-name="패스 14091" d="M326.206,287a16.2,16.2,0,0,1-6.006,10.9" transform="translate(126.667 113.493)" fill="none" stroke="#000" stroke-linecap="round" stroke-linejoin="round" stroke-miterlimit="10" stroke-width="2"/>
        <path id="패스_14092" data-name="패스 14092" d="M230.305,247.136c-.279,2.514,2.654,9.917,4.749,11.175,3.073,1.676,6.984.559,9.917-1.536,4.47-3.073,7.263-10.476,7.822-15.924.14-.838-12.432-11.594-17.6-8.381" transform="translate(90.987 91.617)" fill="none" stroke="#000" stroke-linecap="round" stroke-linejoin="round" stroke-miterlimit="10" stroke-width="2"/>
        <path id="패스_14093" data-name="패스 14093" d="M254.511,246.008c4.47-.419,11.594,4.051,14.946,7.124,0,3.771-1.536,11.733-3.213,15.086-1.816,3.352-5.727,5.727-9.219,4.61a10.056,10.056,0,0,1-6.425-8.381" transform="translate(99.048 97.215)" fill="none" stroke="#000" stroke-linecap="round" stroke-linejoin="round" stroke-miterlimit="10" stroke-width="2"/>
        <path id="패스_14094" data-name="패스 14094" d="M272.1,270.9c.14,1.816,1.956,3.073,3.632,3.632s3.632.559,5.308,1.4a6.589,6.589,0,0,1,3.073,8.1,6.715,6.715,0,0,1-7.822,3.771" transform="translate(107.58 107.104)" fill="none" stroke="#000" stroke-linecap="round" stroke-linejoin="round" stroke-miterlimit="10" stroke-width="2"/>
        <path id="패스_14095" data-name="패스 14095" d="M212.1,237.023a14.5,14.5,0,0,1,13.41,6.146,8.143,8.143,0,0,1,1.536,5.587c-.279,1.956-5.587,4.61-7.543,4.61" transform="translate(83.77 93.628)" fill="none" stroke="#000" stroke-linecap="round" stroke-linejoin="round" stroke-miterlimit="10" stroke-width="2"/>
        <path id="패스_14096" data-name="패스 14096" d="M110.584,204.375c-2.654.7-4.19,3.492-4.47,6.286-.279,2.654.7,5.448,1.536,7.962a8.834,8.834,0,0,0,1.676,3.213,6.851,6.851,0,0,0,3.632,1.4c3.771.7,8.1.7,10.9-1.816,3.771-3.213,3.492-9.5.14-13.13-3.073-3.632-8.381-4.749-13.41-3.911" transform="translate(41.693 80.6)" fill="#ff5050" stroke="#000" stroke-linecap="round" stroke-linejoin="round" stroke-miterlimit="10" stroke-width="2"/>
        <path id="패스_14097" data-name="패스 14097" d="M94.267,197.452c-2.794.559-3.632,4.19-3.352,6.984.419,3.352,1.676,6.844,4.47,8.66,3.492,2.514,8.8,1.537,11.454-1.676a9.64,9.64,0,0,0-.14-11.733A10.572,10.572,0,0,0,95.1,196.894" transform="translate(35.66 77.466)" fill="#ff5050" stroke="#000" stroke-linecap="round" stroke-linejoin="round" stroke-miterlimit="10" stroke-width="2"/>
        <path id="패스_14098" data-name="패스 14098" d="M91.992,194.446c1.816,4.051-.419,9.638-4.749,10.337-4.47.7-8.241-3.632-10.057-7.822a9.175,9.175,0,0,1-.978-4.61,3.865,3.865,0,0,1,3.073-3.213C79.281,189,88.5,186.484,91.992,194.446Z" transform="translate(29.834 74.466)" fill="#ff5050" stroke="#000" stroke-linecap="round" stroke-linejoin="round" stroke-miterlimit="10" stroke-width="2"/>
        <path id="패스_14099" data-name="패스 14099" d="M75,185.765c2.1,3.073,2.654,7.822-.419,9.778-3.213,1.956-7.264-.14-9.917-2.794-1.956-1.956-3.771-4.47-4.051-7.264s1.537-5.867,4.33-6.286C64.938,179.2,70.8,179.34,75,185.765Z" transform="translate(23.643 70.715)" fill="#ff5050" stroke="#000" stroke-linecap="round" stroke-linejoin="round" stroke-miterlimit="10" stroke-width="2"/>
        <path id="패스_14100" data-name="패스 14100" d="M433.5,111.487a35.382,35.382,0,0,0,9.359-5.587" transform="translate(171.628 41.627)" fill="none" stroke="#000" stroke-linecap="round" stroke-linejoin="round" stroke-miterlimit="10" stroke-width="2"/>
        <path id="패스_14101" data-name="패스 14101" d="M410.2,165.819a107.566,107.566,0,0,0,37.854-9.219" transform="translate(162.382 61.746)" fill="none" stroke="#000" stroke-linecap="round" stroke-linejoin="round" stroke-miterlimit="10" stroke-width="2"/>
        <path id="패스_14102" data-name="패스 14102" d="M461.3,183.6c.559,5.029.978,10.057,1.537,14.946" transform="translate(182.66 72.461)" fill="none" stroke="#000" stroke-linecap="round" stroke-linejoin="round" stroke-miterlimit="10" stroke-width="2"/>
        <path id="패스_14103" data-name="패스 14103" d="M245.4,173.373a36.29,36.29,0,0,0,13.689-27.657c-2.514-.559-5.029-1.257-7.543-1.816" transform="translate(96.985 56.707)" fill="none" stroke="#000" stroke-linecap="round" stroke-linejoin="round" stroke-miterlimit="10" stroke-width="2"/>
      </g>
    </g>
    <g id="logo" transform="translate(-37.366 -2.112)">
      <g id="kkids_logo" transform="translate(166.659 338.243)">
        <g id="그룹_1" data-name="그룹 1" transform="translate(55.561 8.182)">
          <path id="패스_1" data-name="패스 1" d="M159.04,28.985l1.425,1.059-3.689,4.6,4.274,5.077-1.388,1.1-5-6.1Zm-5.15,11.542H152.1V24.6l1.79-.4Z" transform="translate(-152.1 -23.543)" fill="#1f1f1f"/>
          <path id="패스_2" data-name="패스 2" d="M185.784,46.54V43.873h-2.009c-2.009,0-2.922.694-2.922,2.119a1.645,1.645,0,0,0,1.79,1.826,4.939,4.939,0,0,0,3.141-1.278m-2.228-3.908h2.228v-.913c0-1.753-.8-2.484-2.265-2.484a8.247,8.247,0,0,0-3.141.731l-.548-1.242A8.02,8.02,0,0,1,183.52,37.7c2.666,0,3.945,1.278,3.945,4.091v7.342H186.15l-.219-1.242a6.018,6.018,0,0,1-3.653,1.388A2.937,2.937,0,0,1,179.1,46.1c.037-2.3,1.571-3.47,4.456-3.47" transform="translate(-169.238 -32.111)" fill="#1f1f1f"/>
          <path id="패스_3" data-name="패스 3" d="M217.877,28.985l1.388,1.059-3.689,4.6,4.274,5.077-1.388,1.1-5-6.1ZM212.69,40.528H210.9V24.6l1.79-.4Z" transform="translate(-189.422 -23.543)" fill="#1f1f1f"/>
          <path id="패스_4" data-name="패스 4" d="M244.584,46.54V43.873h-2.009c-2.009,0-2.922.694-2.922,2.119a1.645,1.645,0,0,0,1.79,1.826,4.939,4.939,0,0,0,3.141-1.278m-2.228-3.908h2.228v-.913c0-1.753-.8-2.484-2.265-2.484a8.247,8.247,0,0,0-3.141.731l-.548-1.242A8.019,8.019,0,0,1,242.32,37.7c2.666,0,3.945,1.278,3.945,4.091v7.342H244.95l-.219-1.242a6.018,6.018,0,0,1-3.653,1.388A2.937,2.937,0,0,1,237.9,46.1c.073-2.3,1.607-3.47,4.456-3.47" transform="translate(-206.56 -32.111)" fill="#1f1f1f"/>
          <path id="패스_5" data-name="패스 5" d="M269.826,43.544c0,2.849,1.132,4.31,3.141,4.31,1.972,0,3.141-1.5,3.141-4.31,0-2.849-1.132-4.383-3.141-4.383-1.972,0-3.141,1.534-3.141,4.383m8.109,0c0,3.726-1.863,5.808-4.968,5.808S268,47.27,268,43.544c0-3.762,1.9-5.844,4.968-5.844,3.1,0,4.968,2.082,4.968,5.844" transform="translate(-225.665 -32.111)" fill="#1f1f1f"/>
          <path id="패스_6" data-name="패스 6" d="M308.344,34.447l3.872,4.639L310.061,40.8l-4.712-5.771V40.4H302.5V24.511L305.349,24V34.337l4.31-5.844,2.155,1.5Z" transform="translate(-247.564 -23.416)" fill="#1f1f1f"/>
          <path id="패스_7" data-name="패스 7" d="M335.907,39.385h-2.849V28.171h2.849ZM332.4,24.519l2.082-2.119,2.082,2.119L334.482,26.6Z" transform="translate(-266.542 -22.4)" fill="#1f1f1f"/>
          <path id="패스_8" data-name="패스 8" d="M355.613,37.661V31.305a5.148,5.148,0,0,0-1.607-.219c-1.644,0-2.52,1.351-2.52,3.8,0,2.265.73,3.543,2.082,3.543a3.331,3.331,0,0,0,2.046-.767m0-8.292V24.511L358.462,24V40.4H356.49l-.329-.95a4.551,4.551,0,0,1-3.1,1.242c-2.922,0-4.456-2.082-4.456-5.954,0-3.616,1.826-5.881,4.931-5.881a4,4,0,0,1,2.082.511" transform="translate(-276.825 -23.416)" fill="#1f1f1f"/>
          <path id="패스_9" data-name="패스 9" d="M387.733,42.2c2.338.8,3.141,1.717,3.141,3.36,0,2.265-1.461,3.543-4.347,3.543a11.521,11.521,0,0,1-4.128-.8l.584-2.228a10.071,10.071,0,0,0,3.543.731c1.205,0,1.607-.4,1.607-1.059s-.292-.986-2.228-1.644c-2.3-.8-3.141-1.607-3.141-3.47,0-2.009,1.644-3.434,4.128-3.434a9.177,9.177,0,0,1,3.835.84l-.8,2.082a6.5,6.5,0,0,0-2.776-.694c-1.059,0-1.644.475-1.644,1.169,0,.657.621,1.059,2.228,1.607" transform="translate(-298.279 -31.794)" fill="#1f1f1f"/>
        </g>
        <g id="그룹_2" data-name="그룹 2" transform="translate(0)">
          <path id="패스_10" data-name="패스 10" d="M22.822,0C8.54,0-.226,6.319-.007,18.373.212,29.952,9.855,36.819,22.786,36.746S45.4,29.952,45.579,18.373C45.834,6.319,37.068,0,22.822,0m-9.5,24.436L9.855,19.98v3.908H6.239V12.857H9.855V16.8l2.922-4.383,2.849,1.9-3,3.981,3.543,3.835Zm6.94-.548H16.649V12.857h3.616Zm5.844,0H21.727V12.857h4.566c3.762,0,5.333,2.338,5.333,5.516,0,3.068-1.571,5.516-5.516,5.516m13.661-7.853a8.873,8.873,0,0,0-2.557-.731c-.657,0-1.169.146-1.169.621,0,.292.365.657,2.009,1.059a3.112,3.112,0,0,1,2.63,3.434c0,2.3-1.826,3.726-4.529,3.726a8.85,8.85,0,0,1-4.31-1.132l1.1-2.52a7.354,7.354,0,0,0,3.141.913c.475,0,1.023-.146,1.023-.8,0-.621-.438-.694-1.972-1.132A3.211,3.211,0,0,1,32.465,16c0-2.265,1.863-3.543,4.42-3.543a7,7,0,0,1,3.908,1.023Z" transform="translate(0.011)" fill="#ff5050"/>
          <path id="패스_11" data-name="패스 11" d="M69.411,42.9H68.9v5.443h.329c1.607,0,2.192-.986,2.192-2.7-.037-1.68-.548-2.74-2.009-2.74" transform="translate(-43.729 -27.23)" fill="#ff5050"/>
        </g>
      </g>
      <g id="x" transform="translate(2 1)">
        <line id="선_1" data-name="선 1" x1="16" y2="16" transform="translate(327.366 347.112)" fill="none" stroke="#000" stroke-width="1"/>
        <line id="선_2" data-name="선 2" x2="16" y2="16" transform="translate(327.866 347.612)" fill="none" stroke="#000" stroke-width="1"/>
      </g>
      <g id="yanadoo_logo" transform="translate(360.226 342.143)">
        <g id="그룹_12696" data-name="그룹 12696" transform="translate(0.089 -0.017)">
          <path id="패스_14053" data-name="패스 14053" d="M24.336,6.6C23.661,5.421,23,4.28,22.444,3.31,20.695.287,19.022.477,19.022.477a6.084,6.084,0,0,0-2.69.77c-1.388.8-4.858,2.728-6.056,3.5A8.082,8.082,0,0,0,7.5,8.14s.675-1.531,4.164-1.531H24.336Z" transform="translate(-6.795 -0.428)" fill="url(#linear-gradient)"/>
          <path id="패스_14054" data-name="패스 14054" d="M184.519,80.553h3.793c3.5,0,4.164-1.55,4.164-1.55a6.139,6.139,0,0,0,.675-2.709c0-1.607.067-5.571,0-7a8.1,8.1,0,0,0-1.559-4.1s.989,1.35-.761,4.373c-1.664,2.88-6.331,10.97-6.331,10.97Z" transform="translate(-166.969 -59)" fill="url(#linear-gradient-2)"/>
          <path id="패스_14055" data-name="패스 14055" d="M138.454,13.844c.684-1.179,1.34-2.32,1.9-3.289,1.749-3.023.741-4.382.741-4.382a6.038,6.038,0,0,0-2.015-1.939c-1.388-.8-4.791-2.842-6.056-3.5a8.2,8.2,0,0,0-4.325-.7s1.664-.181,3.4,2.842c1.664,2.88,6.331,10.97,6.331,10.97Z" transform="translate(-116.474 0.017)" fill="url(#linear-gradient-3)"/>
          <path id="패스_14056" data-name="패스 14056" d="M8.75,65H4.957c-3.5,0-4.164,1.55-4.164,1.55a6.138,6.138,0,0,0-.675,2.709c0,1.607-.067,5.571,0,7a8.1,8.1,0,0,0,1.559,4.1S.689,79,2.438,75.98C4.092,73.09,8.76,65,8.76,65Z" transform="translate(-0.089 -58.819)" fill="url(#linear-gradient-4)"/>
          <path id="패스_14057" data-name="패스 14057" d="M13.951,153.481s-1.008-1.35.741-4.382c.561-.97,1.217-2.11,1.9-3.289l.01-.01s1.673,2.823,3.5,6.037a3.086,3.086,0,0,1-.01,3.242c-.656,1.141-2.909,5.076-3.8,6.588a4.44,4.44,0,0,0,.038-4.211C15.757,156.485,13.951,153.481,13.951,153.481Z" transform="translate(-12.372 -131.938)" fill="url(#linear-gradient-5)"/>
          <path id="패스_14058" data-name="패스 14058" d="M51.377,218.21a6.434,6.434,0,0,0,2.69-.818c1.388-.8,4.858-2.728,6.056-3.5a8.181,8.181,0,0,0,2.766-3.394s-.675,1.54-4.164,1.54H47.641a2.875,2.875,0,0,0-2.538,1.6c-.875,1.511-3.517,6.084-3.8,6.588a4.354,4.354,0,0,1,3.584-2.015Z" transform="translate(-37.382 -190.488)" fill="url(#linear-gradient-6)"/>
        </g>
        <path id="패스_14059" data-name="패스 14059" d="M328.68,3.5a7.774,7.774,0,0,1,5.7,2.367,7.8,7.8,0,0,1,2.377,5.713,7.689,7.689,0,0,1-2.377,5.685,8.056,8.056,0,0,1-11.408,0A7.741,7.741,0,0,1,320.6,11.58a7.768,7.768,0,0,1,2.377-5.713A7.744,7.744,0,0,1,328.68,3.5Zm-3.318,8.052a3.112,3.112,0,0,0,.979,2.31,3.212,3.212,0,0,0,2.329.97,3.311,3.311,0,0,0,3.308-3.28,3.308,3.308,0,0,0-6.616,0Z" transform="translate(-290.042 -3.183)" fill="#1f1a18"/>
        <path id="패스_14060" data-name="패스 14060" d="M920.3,18.13v4.392h-7.767v7.909h-4.972V22.522H899.8V18.13ZM900.665,3.5H919.4V7.882H905.647v3.812H919.4v4.392H900.665Z" transform="translate(-814.182 -3.183)" fill="#1f1a18"/>
        <path id="패스_14061" data-name="패스 14061" d="M510.492,7.5V3.1h-6.607L500.7,5.9V30.1h5V14.251h4.791v-4.4H505.7V7.5Z" transform="translate(-453.021 -2.821)" fill="#1f1a18"/>
        <g id="그룹_12697" data-name="그룹 12697" transform="translate(59.913 0.269)">
          <path id="패스_14062" data-name="패스 14062" d="M647.2,3,644.04,5.785v10.39h-9.668V3H629.4V20.568h14.64v9.364h4.981V7.392H653.8V3Z" transform="translate(-629.4 -3)" fill="#1f1a18"/>
        </g>
      </g>
    </g>
  </g>
</svg>
