<svg xmlns="http://www.w3.org/2000/svg" xmlns:xlink="http://www.w3.org/1999/xlink" width="1030" height="874" viewBox="0 0 1030 874">
  <defs>
    <clipPath id="clip-web_page">
      <rect width="1030" height="874"/>
    </clipPath>
  </defs>
  <g id="web_page" clip-path="url(#clip-web_page)">
    <rect width="1030" height="874" fill="#fedb3f"/>
    <rect id="사각형_7542" data-name="사각형 7542" width="1227" height="994" transform="translate(-56 259)" fill="#fff"/>
    <path id="패스_25048" data-name="패스 25048" d="M19.09-8.855v-1.587H15.847v-5.52H13.984V-1.794h1.863V-8.855ZM16.468,3.427V1.863H6.463V-3.312H4.6V3.427ZM6.118-15.088a4.962,4.962,0,0,0-5.2,4.9,4.971,4.971,0,0,0,5.2,4.945,4.985,4.985,0,0,0,5.2-4.945A4.976,4.976,0,0,0,6.118-15.088Zm0,1.61A3.189,3.189,0,0,1,9.5-10.189,3.212,3.212,0,0,1,6.118-6.854a3.212,3.212,0,0,1-3.381-3.335A3.189,3.189,0,0,1,6.118-13.478ZM36.271.046c0-2.185-1.84-4.232-5.129-4.232-3.335,0-5.175,2.047-5.175,4.232s1.84,4.186,5.175,4.186C34.385,4.232,36.271,2.231,36.271.046ZM31.142-2.622c2.231,0,3.266,1.334,3.266,2.691,0,1.242-1.035,2.6-3.266,2.6-2.254,0-3.312-1.357-3.312-2.6C27.83-1.288,28.888-2.622,31.142-2.622Zm.966-5.451a47.693,47.693,0,0,1-8.855.782v-8.027h-1.84V-5.7h.805a55.148,55.148,0,0,0,10.074-.782C32.246-7.015,32.154-7.544,32.108-8.073Zm-2.967-4.669h5.382v1.748H29.141v1.518h5.382v4.6h1.863V-15.962H34.523v1.7H29.141ZM54.4-15.962H52.532V3.266H54.4V-7.13h3.243V-8.763H54.4ZM49.289-6.256a4.152,4.152,0,0,0-4.416-4.14,4.192,4.192,0,0,0-4.508,4.14c0,2.346,1.817,4.117,4.508,4.117A4.108,4.108,0,0,0,49.289-6.256Zm-7.107,0a2.592,2.592,0,0,1,2.691-2.622,2.542,2.542,0,0,1,2.6,2.622,2.522,2.522,0,0,1-2.6,2.645A2.572,2.572,0,0,1,42.182-6.256Zm8.188-5.52v-1.541H45.7v-2.806H43.838v2.806H39.192v1.541ZM71.139,2.415v-18.17H69.322v5.29h-3.45V-8.9h3.45V2.415Zm4.048.851V-15.962H73.37V3.266ZM59.294-2.116a12.279,12.279,0,0,0,3.657-4.738l3.5,4.048,1.334-1.288L63.549-8.6a15.769,15.769,0,0,0,.437-3.91v-2.369H62.169v2.3a10.806,10.806,0,0,1-4.048,9.062ZM95.91.345V-1.219H91.149V-5.152l-1.84.069v3.864H84.18V-5.083l-1.863-.069v3.933H77.556V.345ZM80.845-10.442c0,2.76,2.369,4.83,5.865,4.83,3.519,0,5.888-2.07,5.888-4.83,0-2.737-2.369-4.807-5.888-4.807C83.214-15.249,80.845-13.179,80.845-10.442Zm1.863,0c0-1.817,1.564-3.2,4-3.2s4.025,1.38,4.025,3.2c0,1.84-1.587,3.22-4.025,3.22S82.708-8.6,82.708-10.442ZM99.521,2.484,101.269.713,99.521-1.081,97.75.713ZM108.583-7.5h6.233a18.349,18.349,0,0,1-3.2,5.819l1.518,1.058c2.737-3.657,4.324-6.992,4.324-13.731H109.2v1.587h6.417a18.19,18.19,0,0,1-.391,3.657h-6.647Zm12.65-8.464V3.266H123.1V-7.36h3.243V-9.016H123.1v-6.946ZM127.857-7.5h6.233a18.349,18.349,0,0,1-3.2,5.819l1.518,1.058c2.737-3.657,4.324-6.992,4.324-13.731h-8.257v1.587H134.9a18.189,18.189,0,0,1-.391,3.657h-6.647Zm12.65-8.464V3.266h1.863V-7.36h3.243V-9.016H142.37v-6.946ZM164.611.345V-1.219h-8.257V-5.244c2.967-.368,4.945-2.346,4.945-4.991,0-2.875-2.415-5.037-5.888-5.037-3.45,0-5.865,2.162-5.865,5.037,0,2.622,1.978,4.623,4.922,4.991v4.025h-8.211V.345Zm-13.2-10.58c0-2,1.61-3.4,4-3.4,2.415,0,4.025,1.4,4.025,3.4,0,1.978-1.61,3.427-4.025,3.427C153.019-6.808,151.409-8.257,151.409-10.235Zm22.632-2.53a20.024,20.024,0,0,1-.391,3.657H166.8V-7.5h6.417a18.421,18.421,0,0,1-3.22,5.819c.529.345,1.035.713,1.541,1.058,2.737-3.657,4.37-6.992,4.37-13.731H167.44v1.587Zm7.935-3.2h-1.863V3.266h1.863Zm6.256,1.219v1.564h8.694c-.092,2.392-3.772,4.853-9.959,6.532l.644,1.564a27.6,27.6,0,0,0,7.337-2.967l5.359,2.645c.3-.552.621-1.1.943-1.656L196.4-9.085A6.169,6.169,0,0,0,198.9-13.8v-.943ZM203.182.23V-1.38h-18.4V.23ZM211.577-14.7v1.61h10.534a44.1,44.1,0,0,1-.782,8.487l1.863.23a48.125,48.125,0,0,0,.828-9.177V-14.7ZM227.01.23V-1.38h-9.361V-8.763h-1.886V-1.38h-7.107V.23Zm17.848-4.669V-15.962h-1.817V-11.2h-2.553v-4.554h-1.817V-4.646h1.817V-9.614h2.553v5.175Zm0,8.28V-3.105H232.645v1.541h10.35v5.4ZM228.8-15v1.541h5.474c0,2.967-2.277,5.589-5.957,7.544l.943,1.426c4.186-2.277,6.808-5.175,6.808-9.407V-15Zm28.8.368c-3.289,0-5.29,2.576-5.29,5.911s2,5.934,5.29,5.934c3.243,0,5.29-2.6,5.29-5.934S260.843-14.628,257.6-14.628Zm0,1.61c1.978,0,3.45,1.587,3.45,4.3,0,2.691-1.472,4.324-3.45,4.324s-3.427-1.633-3.427-4.324C254.173-11.431,255.622-13.018,257.6-13.018Zm5.888,7.866h3.1V3.266h1.863V-15.962h-1.863v4h-3.1l.046,1.61h3.059v3.588h-3.059ZM285.614-8.51V3.266h1.863V-15.962h-1.863v5.888H282V-8.51Zm-2.3,3.726a43.641,43.641,0,0,1-7.958.805H274.3v-3.7h6.21v-6.693h-8.05v1.587h6.21v3.565h-6.21v6.854h.851a53.509,53.509,0,0,0,10.212-.851Zm21.712-3.2v-7.36h-1.863v2.3h-7.774v-2.3h-1.863v7.36ZM303.163-9.5h-7.774v-2.024h7.774ZM300.4-.414V-4.278h8.073V-5.865h-18.4v1.587h8.418V-.414Zm5.06,4.048V2.07H295.205V-1.886H293.3v5.52ZM19.09,25.731v-1.61H15.847V19.038H13.984V30.929h1.863v-5.2ZM5.658,35.483c0,2.024,1.794,3.749,4.991,3.749s4.991-1.725,4.991-3.749c0-2-1.771-3.749-4.991-3.749C7.452,31.734,5.658,33.482,5.658,35.483Zm1.863,0c0-1.127.92-2.208,3.128-2.208,2.231,0,3.151,1.081,3.151,2.208,0,1.081-.92,2.185-3.151,2.185C8.441,37.668,7.521,36.564,7.521,35.483Zm-1.2-11.937c-2.6,0-4.37,1.472-4.37,3.473,0,2.047,1.771,3.5,4.37,3.5,2.553,0,4.3-1.449,4.3-3.5C10.626,25.018,8.878,23.546,6.325,23.546Zm0,5.5c-1.633,0-2.553-.92-2.553-2.024,0-1.081.9-1.978,2.553-1.978,1.61,0,2.484.9,2.484,1.978C8.809,28.123,7.935,29.043,6.325,29.043Zm-.943-7.981H.782v1.495H11.868V21.062H7.291V18.693H5.382ZM35.029,35c0-2.208-1.84-4.255-5.152-4.255-3.335,0-5.175,2.047-5.175,4.255,0,2.231,1.84,4.232,5.175,4.232C33.143,39.232,35.029,37.231,35.029,35ZM20.815,30.1a11.075,11.075,0,0,0,4.715-4.646l4.37,4,1.288-1.426-5.06-4.14a10.177,10.177,0,0,0,.391-2.967V19.429H24.633v1.426c0,3.358-1.541,5.819-4.853,7.774Zm9.062,2.185c2.231,0,3.289,1.357,3.289,2.737,0,1.288-1.058,2.645-3.289,2.645-2.254,0-3.312-1.357-3.312-2.645C26.565,33.643,27.623,32.286,29.877,32.286Zm5.244-13.248H33.258V29.963h1.863v-4.83h3.243V23.477H35.121ZM44.482,27.5h6.233a18.349,18.349,0,0,1-3.2,5.819l1.518,1.058c2.737-3.657,4.324-6.992,4.324-13.731H45.1v1.587H51.52a18.189,18.189,0,0,1-.391,3.657H44.482Zm12.65-8.464V38.266h1.863V27.64h3.243V25.984H58.995V19.038ZM63.756,27.5h6.233a18.349,18.349,0,0,1-3.2,5.819l1.518,1.058c2.737-3.657,4.324-6.992,4.324-13.731H64.377v1.587h6.417a18.189,18.189,0,0,1-.391,3.657H63.756Zm12.65-8.464V38.266h1.863V27.64h3.243V25.984H78.269V19.038Zm24.1,16.307V33.781H92.253V29.756c2.967-.368,4.945-2.346,4.945-4.991,0-2.875-2.415-5.037-5.888-5.037-3.45,0-5.865,2.162-5.865,5.037,0,2.622,1.978,4.623,4.922,4.991v4.025H82.156v1.564Zm-13.2-10.58c0-2,1.61-3.4,4-3.4,2.415,0,4.025,1.4,4.025,3.4,0,1.978-1.61,3.427-4.025,3.427C88.918,28.192,87.308,26.743,87.308,24.765Zm22.632-2.53a20.026,20.026,0,0,1-.391,3.657h-6.854V27.5h6.417a18.421,18.421,0,0,1-3.22,5.819c.529.345,1.035.713,1.541,1.058,2.737-3.657,4.37-6.992,4.37-13.731h-8.464v1.587Zm7.935-3.2h-1.863V38.266h1.863Zm6.256,1.219v1.564h8.694c-.092,2.392-3.772,4.853-9.959,6.532l.644,1.564a27.6,27.6,0,0,0,7.337-2.967l5.359,2.645c.3-.552.621-1.1.943-1.656L132.3,25.915A6.169,6.169,0,0,0,134.8,21.2v-.943Zm14.95,14.973V33.62h-18.4v1.61Zm20.286-9.246V38.266h1.863V19.038h-1.863v5.405h-4.9v1.541Zm-13.2,6.923a14.294,14.294,0,0,0,4.255-4.922l4.324,4.439,1.357-1.38c-1.679-1.541-3.335-3.128-5.037-4.715a13.429,13.429,0,0,0,.6-4.094V20.027h-1.886v2.162a10.66,10.66,0,0,1-4.83,9.315ZM180.3,19.038h-1.863V38.266H180.3Zm-6.049,13.248V20.6h-1.84v4.255h-5.083V20.6h-1.863V32.286Zm-1.84-1.541h-5.083V26.4h5.083Zm13.363-1.219a11.652,11.652,0,0,0,6.1-3.956l6.739,3.749c.322-.529.6-1.081.92-1.633l-6.877-3.45a8.2,8.2,0,0,0,.69-3.312v-1.2c-.621,0-1.265-.023-1.909-.023v1.127c0,3.335-2.323,5.819-6.394,7.084Zm15.732,5.7V33.62H183.1v1.61Zm19.274-5.175v-1.5h-18.4v1.5Zm-2.921,9.177V37.76h-10.35V36.1h10.051V31.665H205.6v1.426h10.074v1.656H205.6v4.485Zm-.23-12.3V25.455h-9.89V23.868h9.591V19.452h-11.5v1.426h9.614v1.61h-9.614v4.439Zm25.093-7.889h-1.863V38.266h1.863Zm-10.442,1.334c-3.266,0-5.336,2.576-5.336,5.911s2.07,5.934,5.336,5.934c3.243,0,5.29-2.6,5.29-5.934S235.52,20.372,232.277,20.372Zm0,1.61c1.978,0,3.45,1.587,3.45,4.3,0,2.691-1.472,4.324-3.45,4.324s-3.473-1.633-3.473-4.324C228.8,23.569,230.3,21.982,232.277,21.982Zm27.646,1.035c0-2.07-1.817-3.864-5.221-3.864s-5.129,1.794-5.129,3.864a3.438,3.438,0,0,0,1.15,2.645V28.79h-5.175v1.587H263.9V28.79H258.75V25.639A3.491,3.491,0,0,0,259.923,23.017Zm.069,12.627c0-2.254-1.955-3.887-5.29-3.887-3.289,0-5.244,1.633-5.244,3.887,0,2.323,1.955,3.887,5.244,3.887C258.037,39.531,259.992,37.967,259.992,35.644Zm-1.863,0c0,1.2-1.058,2.3-3.427,2.3-2.323,0-3.358-1.1-3.358-2.3s1.058-2.3,3.358-2.3C257.071,33.344,258.129,34.448,258.129,35.644Zm-.069-12.627c0,1.311-1.081,2.323-3.358,2.323-2.231,0-3.266-1.012-3.266-2.323,0-1.288,1.035-2.277,3.266-2.277C256.979,20.74,258.06,21.729,258.06,23.017ZM254.7,26.9a7.879,7.879,0,0,0,2.185-.276V28.79h-4.278V26.651A8.151,8.151,0,0,0,254.7,26.9ZM268.847,21.8h-3.726v1.541h9.016V21.8H270.71V18.992h-1.863Zm12.88,16.468V19.038H279.91V26.03h-2.277V19.245h-1.84v18.17h1.84v-9.8h2.277V38.266Zm-16.054-9.591a4.06,4.06,0,1,0,8.119,0,4.06,4.06,0,1,0-8.119,0Zm1.7,0a2.354,2.354,0,1,1,4.692,0,2.356,2.356,0,1,1-4.692,0Zm24.863-8.625v1.564h8.74c-.092,1.7-3.772,4.324-10.051,5.313.207.529.391,1.058.552,1.61a24.9,24.9,0,0,0,7.452-2.392l5.336,2.369.8-1.656c-1.495-.575-3.036-1.15-4.554-1.748a5.406,5.406,0,0,0,2.392-4.255V20.05Zm6.578,18.423V31.964h8.257V30.377h-18.4v1.587h8.234v6.509Zm10.856-5.566a14.37,14.37,0,0,0,4.278-4.922l4.347,4.439,1.4-1.38c-1.725-1.564-3.427-3.128-5.083-4.715a14.176,14.176,0,0,0,.6-4.094V20.027h-1.886v2.162a10.729,10.729,0,0,1-4.876,9.315Zm14.743-13.869h-1.863V38.266h1.863Zm2.829,9.913v1.564H345.6V28.951Zm15.364,9.683V37.07H332.35V32.654h-1.909v5.98ZM342.4,26.329V24.765h-9.913V19.406h-1.863v6.923Zm14.513-5.957c-3.289,0-5.29,2.576-5.29,5.911s2,5.934,5.29,5.934c3.243,0,5.29-2.6,5.29-5.934S360.157,20.372,356.914,20.372Zm0,1.61c1.978,0,3.45,1.587,3.45,4.3,0,2.691-1.472,4.324-3.45,4.324s-3.427-1.633-3.427-4.324C353.487,23.569,354.936,21.982,356.914,21.982Zm5.888,7.866h3.1v8.418h1.863V19.038h-1.863v4h-3.1l.046,1.61h3.059v3.588h-3.059Zm22.126-3.358V38.266h1.863V19.038h-1.863v5.888h-3.611V26.49Zm-2.3,3.726a43.641,43.641,0,0,1-7.958.805h-1.058v-3.7h6.21V20.625h-8.05v1.587h6.21v3.565h-6.21v6.854h.851a53.509,53.509,0,0,0,10.212-.851Zm21.712-3.2v-7.36h-1.863v2.3H394.7v-2.3H392.84v7.36ZM402.477,25.5H394.7V23.477h7.774Zm-2.76,9.085V30.722h8.073V29.135h-18.4v1.587h8.418v3.864Zm5.06,4.048V37.07H394.519V33.114H392.61v5.52Zm17.365-1.219V19.245h-1.794v6.3h-2.6c.115-1.173.161-2.415.161-3.749v-1.1h-3.841v1.541h2.093c0,4.209-.713,7.728-2.323,10.465l1.495.851a16.682,16.682,0,0,0,2.208-6.44h2.806v10.3Zm3.611.851V19.038h-1.794V38.266ZM409.308,20.694v1.541H411.7a18.584,18.584,0,0,1-2.3,9.361c.506.276.989.575,1.495.874A20.359,20.359,0,0,0,413.448,21.8v-1.1Zm41.883,4.485V23.592h-3.243V19.038h-1.863V29.917h1.863V25.179Zm-3.243,13.57v-7.5H436.839v7.5Zm-1.84-1.564H438.7V32.792h7.406Zm-12.6-17.25v1.541h6.785c-.069,3.082-2.645,5.451-7.2,6.854.23.506.46,1.012.667,1.541,5.083-1.5,8.395-4.462,8.395-9.016v-.92Zm33.741-.9h-1.886V38.266h1.886v-10.6h3.22V26.03h-3.22ZM453.238,32.907a14.219,14.219,0,0,0,4.232-4.922L461.7,32.4l1.38-1.357-4.968-4.715a13.446,13.446,0,0,0,.575-4.094V20.027H456.8v2.139A10.7,10.7,0,0,1,452,31.5Zm36.225,2.323V33.666H471.109V35.23Zm-2.99-5.7V27.962H476.192V22.028h10.074V20.464H474.283v9.062Zm20.355-10.488h-1.863V38.266h1.863Zm-4.117,11.086a49.032,49.032,0,0,1-8.9.782V27.157h6.9V20.625h-8.717v1.587h6.877v3.4h-6.877v6.877h.828a59.516,59.516,0,0,0,10.1-.782Zm17.066,2.093V20.579h-8.625V32.217Zm1.15-2.507h3.519v8.556h1.863V19.038h-1.863v4.025h-3.519v1.61h3.519V28.1h-3.519Zm-2.99.92h-4.945V22.166h4.945ZM530.1,35.506a2.423,2.423,0,0,1,1.1,2.024,4.992,4.992,0,0,1-1.633,3.059l1.1.966c1.495-1.495,2.553-3.036,2.553-4.623a3.917,3.917,0,0,0-1.357-3.013ZM14.1,66.665c-1.978.3-4,.46-6.072.575V65.285c2.093-.322,3.358-1.725,3.358-3.335,0-1.794-1.61-3.335-4.3-3.335-2.783,0-4.37,1.541-4.37,3.335,0,1.633,1.288,3.059,3.473,3.358v2.024c-1.725.069-3.473.092-5.152.069v1.61a89.979,89.979,0,0,0,13.225-.805Zm2.9,6.6V54.038H15.111V73.266ZM6.141,56.016H1.449v1.5h11.27v-1.5H8.05V53.762H6.141ZM4.531,61.95c0-.989.851-1.863,2.576-1.863,1.656,0,2.461.966,2.461,1.863,0,1.012-.8,1.909-2.461,1.909C5.428,63.859,4.531,62.962,4.531,61.95Zm30.613-7.912H33.258V73.266h1.886v-10.6h3.22V61.03h-3.22ZM21.137,67.907a14.219,14.219,0,0,0,4.232-4.922L29.6,67.4l1.38-1.357-4.968-4.715a13.446,13.446,0,0,0,.575-4.094V55.027H24.7v2.139A10.7,10.7,0,0,1,19.9,66.5Zm28.957-9.614h3.7v2.139h-3.7V62h3.7v2.99H55.66V54.038H53.8v2.691h-3.7Zm-1.2,5.658V54.889H40.434v9.062Zm-1.84-1.518H42.3V56.407h4.761Zm8.487,7.59c0-2.208-1.84-4.278-5.129-4.278-3.335,0-5.175,2.07-5.175,4.278,0,2.185,1.84,4.209,5.175,4.209C53.659,74.232,55.545,72.208,55.545,70.023Zm-5.129-2.714c2.231,0,3.266,1.357,3.266,2.714,0,1.265-1.035,2.645-3.266,2.645-2.254,0-3.312-1.38-3.312-2.645C47.1,68.666,48.162,67.309,50.416,67.309ZM77.671,58.8v2.369h-3.7v1.564h3.7V68.3h1.863V54.038H77.671v3.174h-3.7V58.8Zm2.277,14.628V71.863H69.805V67.194h-1.84v6.233ZM73,64.871V55.027H71.139v3.427H66.033V55.027H64.17v9.844Zm-1.863-1.518H66.033V59.972h5.106Zm20.884-.9h4.922v2.3h1.863V54.038H96.945v2.944H92.874v1.564h4.071v2.323H92.023Zm-8.694-7.521v1.541h6.877c-.069,3.473-3.105,5.934-7.314,7.291l.69,1.541c5.083-1.61,8.464-4.761,8.464-9.453v-.92ZM98.693,69.977c0-2.231-1.84-4.324-5.129-4.324-3.335,0-5.175,2.093-5.175,4.324s1.84,4.255,5.175,4.255C96.807,74.232,98.693,72.208,98.693,69.977Zm-5.129-2.76c2.231,0,3.266,1.357,3.266,2.783,0,1.265-1.035,2.668-3.266,2.668-2.254,0-3.312-1.4-3.312-2.668C90.252,68.574,91.31,67.217,93.564,67.217Zm23.46-13.179h-1.863V73.266h1.863V62.548h3.036V60.915h-3.036ZM114.195,65.86c-2.254.3-4.531.483-6.808.6V60.386H105.57v6.141c-1.4.046-2.829.069-4.255.069v1.61a90.773,90.773,0,0,0,13.018-.805ZM102.465,55.4v1.61h7.82a43.463,43.463,0,0,1-.6,6.877l1.794.161a46.025,46.025,0,0,0,.644-7.5V55.4Zm41.492,5.888V59.7H140.9V54.038h-1.863V68.275H140.9V61.283Zm-5.773,2.231c-2.346.3-4.692.506-7.038.6V59.581h-1.84v4.6c-1.38.046-2.76.069-4.117.069v1.61a92.912,92.912,0,0,0,13.156-.805C138.276,64.549,138.23,64.02,138.184,63.514Zm3.128,10.028V71.978h-9.729V67.516H129.7v6.026ZM126.5,55v1.587h7.705a25.4,25.4,0,0,1-.506,5.474l1.771.184A33.252,33.252,0,0,0,136,56.085V55Zm35.144,18.423V71.863H151.639V67.4h-1.863v6.026Zm-.414-5.014V54.038h-1.863v2.921h-3.358v1.518h3.358v2.231h-3.358v1.518h3.358v6.187Zm-5.267-4.991a37.155,37.155,0,0,1-8,.782V61.122h6.256v-6.1h-8.073v1.587H152.4v2.944h-6.256v6.233h1.886a43.281,43.281,0,0,0,8.142-.782C156.1,64.48,156.055,63.951,155.963,63.422Zm23.276-9.384h-1.863V73.266h1.863V62.87h3.243V61.237h-3.243Zm-5.106,9.706a4.475,4.475,0,0,0-8.924,0c0,2.346,1.817,4.117,4.508,4.117A4.108,4.108,0,0,0,174.133,63.744Zm-7.107,0a2.592,2.592,0,0,1,2.691-2.622,2.634,2.634,0,0,1,0,5.267A2.572,2.572,0,0,1,167.026,63.744Zm8.188-5.52V56.683h-4.669V53.877h-1.863v2.806h-4.646v1.541Zm13.708-2.852c-3.289,0-5.29,2.576-5.29,5.911s2,5.934,5.29,5.934c3.243,0,5.29-2.6,5.29-5.934S192.165,55.372,188.922,55.372Zm0,1.61c1.978,0,3.45,1.587,3.45,4.3,0,2.691-1.472,4.324-3.45,4.324s-3.427-1.633-3.427-4.324C185.495,58.569,186.944,56.982,188.922,56.982Zm5.888,7.866h3.1v8.418h1.863V54.038h-1.863v4h-3.1l.046,1.61h3.059v3.588h-3.059Zm30.567-3.7V59.558h-3.243v-5.52h-1.863V68.206h1.863V61.145Zm-2.622,12.282V71.863H212.75V66.688h-1.863v6.739ZM212.4,54.912a4.929,4.929,0,1,0,5.2,4.9A4.962,4.962,0,0,0,212.4,54.912Zm0,1.61a3.313,3.313,0,1,1-3.381,3.289A3.189,3.189,0,0,1,212.4,56.522Zm30.521,16.744V54.038h-1.817v6.854h-2.6V54.245h-1.817v18.17h1.817V62.479h2.6V73.266Zm-7.5-8.924a27.976,27.976,0,0,1-6.509.69V55.487h-1.84V66.642h1.955a32.9,32.9,0,0,0,6.624-.69Zm33.1-4.416v-1.61h-3.243V54.038h-1.863V64.319h1.863V59.926Zm-8.993,3.358V54.8h-8.441v8.487Zm-1.84-1.518h-4.738V56.315h4.738Zm8.119,12.213V72.461h-9.775V70.437h9.246V65.423H254.173v1.518h9.246v2h-9.246v5.037Zm18.354.092V67.263H272.5v6.808Zm-5.819-12.305a7.863,7.863,0,0,0,3.243-2.9l3.036,2.921,1.242-1.4-3.634-2.944a8.959,8.959,0,0,0,.368-2.691v-.437l-1.84-.046v.368a5.686,5.686,0,0,1-2.254,4.922c-.92-.644-1.817-1.334-2.714-2a7.867,7.867,0,0,0,.506-2.921v-.322l-1.84-.046v.368c0,2.392-1.219,4.278-3.91,5.635l1.035,1.518a8.984,8.984,0,0,0,3.5-2.852Zm4,10.741h-8V68.8h8Zm5.152-7.36V63.583H269.215v1.564Zm23.9,5.083V68.666H293.043V70.23Zm-2.99-5.7V62.962H298.126V57.028H308.2V55.464H296.217v9.062Zm20.355-10.488H326.9V73.266h1.863Zm-4.117,11.086a49.032,49.032,0,0,1-8.9.782V62.157h6.9V55.625h-8.717v1.587H320.8v3.4h-6.877v6.877h.828a59.516,59.516,0,0,0,10.1-.782Zm25.3,5.221V68.781h-8.257V64.756c2.967-.368,4.945-2.346,4.945-4.991,0-2.875-2.415-5.037-5.888-5.037-3.45,0-5.865,2.162-5.865,5.037,0,2.622,1.978,4.623,4.922,4.991v4.025h-8.211v1.564Zm-13.2-10.58c0-2,1.61-3.4,4-3.4,2.415,0,4.025,1.4,4.025,3.4,0,1.978-1.61,3.427-4.025,3.427C338.353,63.192,336.743,61.743,336.743,59.765Zm30.567-5.727h-1.863V73.266h1.863Zm-3.657,10.419a50.946,50.946,0,0,1-9.223.782v-10h-1.863V66.872h.851a58.1,58.1,0,0,0,10.419-.805C363.791,65.538,363.7,64.986,363.653,64.457Zm25.875-3.473V73.266h1.863V54.038h-1.863v5.4h-4.9v1.541Zm-13.2,6.923a14.294,14.294,0,0,0,4.255-4.922l4.324,4.439,1.357-1.38c-1.679-1.541-3.335-3.128-5.037-4.715a13.43,13.43,0,0,0,.6-4.094V55.027h-1.886v2.162a10.66,10.66,0,0,1-4.83,9.315Zm34.132-13.869H408.6V73.266h1.863Zm-6.049,13.248V55.6h-1.84v4.255h-5.083V55.6h-1.863V67.286Zm-1.84-1.541h-5.083V61.4h5.083Zm13.363-1.219a11.653,11.653,0,0,0,6.1-3.956l6.739,3.749c.322-.529.6-1.081.92-1.633l-6.877-3.45a8.2,8.2,0,0,0,.69-3.312v-1.2c-.621,0-1.265-.023-1.909-.023v1.127c0,3.335-2.323,5.819-6.394,7.084Zm15.732,5.7V68.62h-18.4v1.61Zm21.942-16.192h-1.863V73.266h1.863Zm-10.442,1.334c-3.266,0-5.336,2.576-5.336,5.911s2.07,5.934,5.336,5.934c3.243,0,5.29-2.6,5.29-5.934S446.407,55.372,443.164,55.372Zm0,1.61c1.978,0,3.45,1.587,3.45,4.3,0,2.691-1.472,4.324-3.45,4.324s-3.473-1.633-3.473-4.324C439.691,58.569,441.186,56.982,443.164,56.982Zm27.646,1.035c0-2.07-1.817-3.864-5.221-3.864s-5.129,1.794-5.129,3.864a3.438,3.438,0,0,0,1.15,2.645V63.79h-5.175v1.587h18.354V63.79h-5.152V60.639A3.491,3.491,0,0,0,470.81,58.017Zm.069,12.627c0-2.254-1.955-3.887-5.29-3.887-3.289,0-5.244,1.633-5.244,3.887,0,2.323,1.955,3.887,5.244,3.887C468.924,74.531,470.879,72.967,470.879,70.644Zm-1.863,0c0,1.2-1.058,2.3-3.427,2.3-2.323,0-3.358-1.1-3.358-2.3s1.058-2.3,3.358-2.3C467.958,68.344,469.016,69.448,469.016,70.644Zm-.069-12.627c0,1.311-1.081,2.323-3.358,2.323-2.231,0-3.266-1.012-3.266-2.323,0-1.288,1.035-2.277,3.266-2.277C467.866,55.74,468.947,56.729,468.947,58.017ZM465.589,61.9a7.879,7.879,0,0,0,2.185-.276V63.79H463.5V61.651A8.151,8.151,0,0,0,465.589,61.9ZM475.8,61.26c0,2.875,1.495,5.52,4.6,5.52,2.829,0,4.324-2.162,4.577-4.715h2.07v10.35h1.817V54.245h-1.817v6.233h-2.07c-.253-2.53-1.748-4.784-4.577-4.784C477.3,55.694,475.8,58.408,475.8,61.26Zm1.771-.046c0-2.185,1.035-3.933,2.829-3.933,1.771,0,2.829,1.748,2.829,3.933,0,2.254-1.058,3.956-2.829,3.956C478.607,65.17,477.572,63.468,477.572,61.214Zm15.042,12.052V54.038H490.8V73.266ZM15.847,108.749v-7.2H4.738v7.2ZM1.472,90.993v1.564H7.705C7.59,94.926,5.037,97.042.644,98.376l.69,1.587a15.864,15.864,0,0,0,5.8-2.99l3.565,2.346.989-1.564L8.165,95.869a6.655,6.655,0,0,0,1.4-4.117v-.759H6.555v-2.3H4.715v2.3Zm12.535,16.192H6.6v-4.094h7.406ZM19.09,95.317v-1.61H15.847V89.038H13.984v11.178h1.863v-4.9ZM22.632,90.3v1.61H33.166a44.1,44.1,0,0,1-.782,8.487l1.863.23a48.124,48.124,0,0,0,.828-9.177V90.3ZM38.065,105.23v-1.61H28.7V96.237H26.818v7.383H19.711v1.61ZM54.4,89.038H52.532v19.228H54.4V97.87h3.243V96.237H54.4Zm-5.106,9.706a4.152,4.152,0,0,0-4.416-4.14,4.192,4.192,0,0,0-4.508,4.14c0,2.346,1.817,4.117,4.508,4.117A4.108,4.108,0,0,0,49.289,98.744Zm-7.107,0a2.592,2.592,0,0,1,2.691-2.622,2.634,2.634,0,0,1,0,5.267A2.572,2.572,0,0,1,42.182,98.744Zm8.188-5.52V91.683H45.7V88.877H43.838v2.806H39.192v1.541Zm9.614,9.683a14.37,14.37,0,0,0,4.278-4.922l4.347,4.439,1.4-1.38c-1.725-1.564-3.427-3.128-5.083-4.715a14.177,14.177,0,0,0,.6-4.094V90.027H63.641v2.162a10.729,10.729,0,0,1-4.876,9.315ZM74.727,89.038H72.864v19.228h1.863ZM86.02,92.189c0,4.324-2.76,7.82-7.245,10.189l1.012,1.518c4.807-2.553,8.1-6.463,8.1-12.213v-1.1H79.166v1.61ZM94,89.038H92.138v19.228H94Zm17.434,13.248V90.6h-1.863v4.255h-4.991V90.6h-1.863v11.684Zm-1.863-1.541h-4.991V96.4h4.991Zm7.245-11.707h-1.863v19.228h1.863V97.548h3.243V95.915h-3.243Zm19.274,19.918v-7.751h-1.863v2.346h-7.544v-2.346h-1.84v7.751Zm-1.863-1.541h-7.544v-2.369h7.544Zm5.106-12.144v-1.61h-3.243V89.038h-1.863v10.971h1.863V95.271ZM132.5,97.134a51.152,51.152,0,0,1-8.763.69V95.317h6.808V89.981H121.9v1.587h6.831v2.208H121.9v5.658h1.978a54.684,54.684,0,0,0,8.832-.736C132.664,98.192,132.6,97.64,132.5,97.134Zm23.92-8.1H154.56v19.228h1.863Zm-3.657,10.419a50.947,50.947,0,0,1-9.223.782v-10H141.68v11.638h.851a58.1,58.1,0,0,0,10.419-.805C152.9,100.538,152.812,99.986,152.766,99.457Zm18.492.368a48.359,48.359,0,0,1-8.855.782v-8.28h7.383v-1.61H160.54v11.5h.851a59.155,59.155,0,0,0,10.051-.782C171.4,100.906,171.3,100.354,171.258,99.825Zm3.381-10.787h-1.863v19.228h1.863V97.548h3.243V95.915h-3.243Zm6.578,18.446,1.748-1.771-1.748-1.794-1.771,1.794Z" transform="translate(248.356 327)" fill="#7b7b7b"/>
    <path id="패스_25051" data-name="패스 25051" d="M1.61,3.749h6.3V1.242H4.577V-13.271H7.912v-2.484H1.61ZM21.942-7.061h1.817V3.266h2.806V-15.962H23.759V-9.5H21.942v-6.256h-2.76V2.415h2.76Zm-4.416-7.36H10.12v2.392h4.6c0,2.967-2.047,6.21-5.129,8.487L11.5-1.4c3.45-2.691,6.026-6.44,6.026-11.247ZM45.471-.092c0-2.369-1.932-4.347-5.451-4.347S34.569-2.461,34.569-.092,36.5,4.232,40.02,4.232C43.493,4.232,45.471,2.277,45.471-.092ZM29.6-15.249v2.415H35.19c-.3,2.185-2.875,4.623-6.417,5.75l1.2,2.3a14.168,14.168,0,0,0,5.474-3.289l3.726,2.829,1.518-2.3-3.864-2.3A8.424,8.424,0,0,0,38.157-14.4v-.851Zm13.041,3.128H39.353v2.438h3.289V-4.83h2.944V-15.962H42.642ZM40.02-2.093c1.725,0,2.576.9,2.576,2,0,1.035-.851,1.955-2.576,1.955-1.7,0-2.576-.92-2.576-1.955C37.444-1.2,38.318-2.093,40.02-2.093ZM63.6-15.962H60.651V3.266H63.6V-6.923h2.99V-9.43H63.6ZM49.726-1.84A13.835,13.835,0,0,0,53.7-6.233l3.772,3.979L59.57-4.416l-4.9-4.439a15.016,15.016,0,0,0,.46-3.887v-2.231H52.187v2.139a9.742,9.742,0,0,1-4.393,8.855ZM82.869-15.962H79.925V-4.071h2.944V-8.855h2.99v-2.507h-2.99ZM82.754.276c0-2.162-1.932-4-5.451-4s-5.474,1.84-5.474,4S73.784,4.232,77.3,4.232C80.776,4.232,82.754,2.438,82.754.276ZM77.3-1.38c1.656,0,2.576.644,2.576,1.656,0,.92-.92,1.587-2.576,1.587S74.727,1.2,74.727.276C74.727-.736,75.647-1.38,77.3-1.38Zm.391-6.6c0-2.185-1.886-3.7-4.6-3.7-2.783,0-4.692,1.518-4.692,3.7,0,2.231,1.932,3.726,4.692,3.726C75.808-4.255,77.694-5.75,77.694-7.981Zm-6.532,0c0-.874.736-1.495,1.932-1.495,1.15,0,1.863.621,1.863,1.495,0,.92-.713,1.518-1.863,1.518C71.921-6.463,71.162-7.061,71.162-7.981Zm.437-6.486H67.436v2.231H78.729v-2.231H74.52V-16.4H71.6ZM93.38-15.755h-6.3v2.484h3.335V1.242H87.078V3.749h6.3ZM16.1,19.038H13.156V29.963H16.1V25.616h2.99v-2.53H16.1Zm-.115,15.778c0-2.369-1.932-4.462-5.451-4.462S5.06,32.447,5.06,34.816s1.955,4.416,5.474,4.416C14.007,39.232,15.985,37.185,15.985,34.816ZM10.534,32.7c1.7,0,2.576.989,2.576,2.116,0,1.035-.874,2.047-2.576,2.047-1.725,0-2.576-1.012-2.576-2.047C7.958,33.689,8.809,32.7,10.534,32.7ZM1.173,29.043H2.415a58.68,58.68,0,0,0,9.568-.644l-.276-2.369a48.355,48.355,0,0,1-7.636.621V22.143H10.35V19.751H1.173Zm34.2-10H32.43V38.266h2.944V28.077h2.99V25.57h-2.99ZM21.505,33.16a13.835,13.835,0,0,0,3.979-4.393l3.772,3.979,2.093-2.162-4.9-4.439a15.016,15.016,0,0,0,.46-3.887V20.027H23.966v2.139a9.742,9.742,0,0,1-4.393,8.855Zm20.562-.805v6.279h12.42V36.265H45.1v-3.91ZM54.28,26.536V24.121H45.287V19.406H42.274v7.13ZM39.008,28.468v2.438H57.362V28.468Zm28.842,5.5L71.622,30.1c1.564-1.61,2.668-2.875,2.668-5.152,0-2.415-1.771-4.669-5.267-4.669a7.1,7.1,0,0,0-5.451,2.369l1.564,1.909a5.065,5.065,0,0,1,3.542-1.61c1.886,0,2.622.989,2.622,2.231,0,1.311-.6,2.093-1.955,3.45l-5.681,5.75.552,2.185H74.658v-2.6Zm15.41,2.829c3.749,0,6.095-2.691,6.095-8.326,0-5.428-2.277-8.3-6.095-8.3-3.841,0-6.072,2.875-6.072,8.3C77.188,34.011,79.442,36.794,83.26,36.794Zm0-13.984c1.909,0,2.9,1.84,2.9,5.658,0,4-1.081,5.681-2.9,5.681-2,0-2.9-1.863-2.9-5.681C80.362,24.627,81.328,22.81,83.26,22.81ZM95.68,33.965,99.452,30.1c1.564-1.61,2.668-2.875,2.668-5.152,0-2.415-1.771-4.669-5.267-4.669A7.1,7.1,0,0,0,91.4,22.649l1.564,1.909a5.065,5.065,0,0,1,3.542-1.61c1.886,0,2.622.989,2.622,2.231,0,1.311-.6,2.093-1.955,3.45l-5.681,5.75.552,2.185h10.442v-2.6Zm15.41,2.829c3.749,0,6.095-2.691,6.095-8.326,0-5.428-2.277-8.3-6.095-8.3-3.841,0-6.072,2.875-6.072,8.3C105.018,34.011,107.272,36.794,111.09,36.794Zm0-13.984c1.909,0,2.9,1.84,2.9,5.658,0,4-1.081,5.681-2.9,5.681-2,0-2.9-1.863-2.9-5.681C108.192,24.627,109.158,22.81,111.09,22.81Zm15.5,9.108h-2.944v6.509H136V36.058h-9.407Zm-6.877-12.282V30.354h1.219a62.331,62.331,0,0,0,9.913-.575l-.276-2.323a51.217,51.217,0,0,1-7.958.529V19.636Zm12.926,1.15h-4.784v2.3h4.784v1.173h-4.784v2.3h4.784v6.854h2.944V19.038h-2.944Zm20.654,2.3V20.464h-9.108v7.843l1.15,1.173a8.8,8.8,0,0,1,2.346-.368c2.576,0,3.289,1.012,3.289,2.53,0,1.472-.851,2.53-2.944,2.53A12.411,12.411,0,0,1,144,33.528l-.529,2.438a11.742,11.742,0,0,0,4.738.828c3.749,0,6-2,6-5.29,0-3.128-2.024-4.876-5.313-4.876a9.98,9.98,0,0,0-1.748.138v-3.68Zm20.1,16.1V37.07h-9.729v-.805h9.43V31.619H160.724v2.047h9.453v.759h-9.453v4.761ZM157.711,22.373c0,1.84,1.7,3.243,4.991,3.243,3.312,0,4.991-1.4,4.991-3.243s-1.679-3.266-4.991-3.266C159.413,19.107,157.711,20.533,157.711,22.373ZM173.1,19.038h-2.944v9.5h-3.565V30.4h3.565v.483H173.1Zm-8.832,11.845V28.261a43.852,43.852,0,0,0,4.9-.46l-.23-2.139a89.334,89.334,0,0,1-12.512.506V28.4c1.518.023,3.22.023,4.945-.023v2.507Zm-3.657-8.51c0-.713.8-1.058,2.093-1.058,1.311,0,2.093.345,2.093,1.058,0,.69-.782,1.058-2.093,1.058C161.414,23.431,160.609,23.063,160.609,22.373Zm24.334,11.592,3.772-3.864c1.564-1.61,2.668-2.875,2.668-5.152,0-2.415-1.771-4.669-5.267-4.669a7.1,7.1,0,0,0-5.451,2.369l1.564,1.909a5.065,5.065,0,0,1,3.542-1.61c1.886,0,2.622.989,2.622,2.231,0,1.311-.6,2.093-1.955,3.45l-5.681,5.75.552,2.185h10.442v-2.6ZM205.022,22.81l-.575-2.231H193.913v2.6h7.59l-5.888,13.386h3.542Zm14.9,6.509h2.944V19.038h-2.944Zm3.473,9.66V36.7h-9.522V35.621h8.993V30.147H210.933V32.4h9.016v1.058h-9.016v5.52Zm-16.606-14.72c0,2.507,2.024,4.623,5.336,4.623,3.381,0,5.382-2.116,5.382-4.623,0-2.53-2-4.715-5.382-4.715C208.817,19.544,206.793,21.729,206.793,24.259Zm2.921-.046a2.243,2.243,0,0,1,2.415-2.254,2.244,2.244,0,1,1,0,4.462A2.221,2.221,0,0,1,209.714,24.213Zm21.252-3.772v2.415h5.451c-.184,3.2-2.737,6.256-6.394,8.3l1.656,2.208a18.776,18.776,0,0,0,4.922-4.186l3.519,3.68,1.978-2.024-4.14-3.749a12.052,12.052,0,0,0,1.426-5.773v-.874Zm14.72-1.4h-2.944V38.266h2.944V28.192h2.99v-2.53h-2.99Zm14.329,13.915V30.262h4.83v-2.3h-9.407V26.145h9.085v-6.21H252.356v2.254h9.108V23.96h-9.108v6.3H257v2.691H249.3v2.392h18.4V32.953Zm9.131,1.794a2.859,2.859,0,0,1,1.265,2.277,4.8,4.8,0,0,1-1.472,3.45l1.449,1.2a7.471,7.471,0,0,0,2.921-5.4,4.93,4.93,0,0,0-1.7-3.634ZM294.7,19.038h-2.944V38.266H294.7V28.077h2.99V25.57H294.7ZM280.83,33.16a13.834,13.834,0,0,0,3.979-4.393l3.772,3.979,2.093-2.162-4.9-4.439a15.016,15.016,0,0,0,.46-3.887V20.027h-2.944v2.139a9.742,9.742,0,0,1-4.393,8.855Zm27.715-4.209v-9.2h-9.292v9.2Zm-2.9-2.323h-3.5V22.051h3.5Zm9.476,8.188c0-2.369-1.932-4.462-5.451-4.462s-5.451,2.093-5.451,4.462,1.932,4.416,5.451,4.416C313.145,39.232,315.123,37.185,315.123,34.816ZM309.672,32.7c1.725,0,2.576.989,2.576,2.116,0,1.035-.851,2.047-2.576,2.047-1.7,0-2.576-1.012-2.576-2.047C307.1,33.689,307.97,32.7,309.672,32.7Zm2.622-11.569h-2.9v2.392h2.9v1.61h-2.9v2.392h2.9v2.438h2.944V19.038h-2.944ZM332.3,22.81c0-1.978-1.725-3.979-5.52-3.979-3.772,0-5.474,2.024-5.474,4.025,0,1.978,1.679,4,5.5,4C330.579,26.858,332.3,24.811,332.3,22.81Zm-2.944.046c0,.851-.759,1.725-2.576,1.725-1.794,0-2.53-.874-2.53-1.725,0-.92.736-1.748,2.53-1.748C328.6,21.108,329.36,21.936,329.36,22.856Zm-11.776,4.738v2.231h18.4V27.594Zm15.64,11.592V37H323.7V35.966h9.2v-5.06H320.666v2.116h9.223v.989h-9.223v5.175Zm13.087-13.961a2.881,2.881,0,0,1-1.288-2.254,4.789,4.789,0,0,1,1.495-3.358l-1.449-1.2c-1.518,1.311-2.944,3.128-2.944,5.29a4.852,4.852,0,0,0,1.725,3.634Zm1.932,3.749a12.739,12.739,0,0,0,4.623,10.12l1.679-1.426a12.68,12.68,0,0,1-3.174-8.694,12.68,12.68,0,0,1,3.174-8.694l-1.679-1.426A12.739,12.739,0,0,0,348.243,28.974Zm10.6-9.2v2.392h8.1c-.184,1.863-4.186,3.588-9.384,4.278l.9,2.484a23.7,23.7,0,0,0,7.935-2.369l4.9,2.254,1.2-2.507-3.979-1.38a5.739,5.739,0,0,0,1.679-4.071V19.774ZM374.072,32.4V30.009h-18.4V32.4h7.7v6.072h3.013V32.4Zm7.429-3.427a12.739,12.739,0,0,0-4.623-10.12L375.2,20.28a12.68,12.68,0,0,1,3.174,8.694,12.68,12.68,0,0,1-3.174,8.694l1.679,1.426A12.77,12.77,0,0,0,381.5,28.974Zm8.372-6.187a14.152,14.152,0,0,1-.23,2.645h-6.256v2.346h5.658a16.528,16.528,0,0,1-2.783,4.715L388.7,34.08a17.775,17.775,0,0,0,4.071-11.891V20.441h-8.74v2.346Zm8.648-3.749h-2.944V38.266h2.944V27.985h2.99v-2.53h-2.99Zm10.626,3.749a14.15,14.15,0,0,1-.23,2.645h-6.256v2.346h5.658a16.528,16.528,0,0,1-2.783,4.715l2.438,1.587a17.775,17.775,0,0,0,4.071-11.891V20.441H403.3v2.346Zm8.648-3.749h-2.944V38.266H417.8V27.985h2.99v-2.53H417.8ZM432.1,32.907V29.94c2.921-.506,4.876-2.553,4.876-5.152,0-2.99-2.6-5.267-6.394-5.267-3.749,0-6.371,2.277-6.371,5.267,0,2.6,1.932,4.646,4.9,5.152v2.967h-7.682v2.438h18.354V32.907Zm-1.518-5.267c-2.07,0-3.381-1.219-3.381-2.852s1.311-2.852,3.381-2.852c2.093,0,3.4,1.219,3.4,2.852S432.676,27.64,430.583,27.64Zm20.746-7.2h-8.947v2.346h6.049a16.4,16.4,0,0,1-.23,2.645h-6.463v2.346h5.8a17.163,17.163,0,0,1-2.806,4.715l2.438,1.587a17.924,17.924,0,0,0,4.163-11.891Zm3.128,17.825H457.4V19.038h-2.944Zm8.556-18.216v2.392h8.211c-.207,1.725-4.255,4.278-9.476,5.336l1.035,2.484a23.306,23.306,0,0,0,7.613-2.99l5.06,2.783,1.426-2.53-4.439-1.863a6.5,6.5,0,0,0,2.024-4.554V20.05Zm-3.059,12.788V35.23h18.4V32.838ZM479.8,20.533a2.789,2.789,0,0,1,1.265,2.254,4.754,4.754,0,0,1-1.472,3.358l1.449,1.2c1.518-1.288,2.944-3.1,2.944-5.29a4.888,4.888,0,0,0-1.725-3.634Zm5.727,5.727c0,2.944,1.541,5.658,4.715,5.658,2.76,0,4.255-2,4.623-4.439h1.173v9.936h2.783V19.245h-2.783v5.819h-1.173c-.368-2.461-1.84-4.508-4.623-4.508C487.071,20.556,485.53,23.316,485.53,26.26Zm17.181,12.006V19.038H499.9V38.266ZM488.267,26.214c0-1.863.667-3.289,1.978-3.289,1.334,0,2.024,1.426,2.024,3.289,0,1.84-.69,3.289-2.024,3.289C488.934,29.5,488.267,28.054,488.267,26.214Zm30.521-2.277H514.74v2.438h4.048V38.266h2.944V19.038h-2.944ZM506.8,33.16a14.273,14.273,0,0,0,4.025-4.393l3.933,3.979,2.093-2.162-5.014-4.393a15.327,15.327,0,0,0,.483-3.933V20.027h-2.944v2.139c0,3.933-1.2,6.348-4.485,8.855ZM5.29,60.225A2.881,2.881,0,0,1,4,57.971,4.789,4.789,0,0,1,5.5,54.613l-1.449-1.2C2.53,54.728,1.1,56.545,1.1,58.707a4.852,4.852,0,0,0,1.725,3.634Zm1.932,3.749a12.739,12.739,0,0,0,4.623,10.12l1.679-1.426a13.494,13.494,0,0,1,0-17.388l-1.679-1.426A12.739,12.739,0,0,0,7.222,63.974Zm10.6-9.2v2.392h8.1c-.184,1.863-4.186,3.588-9.384,4.278l.9,2.484a23.7,23.7,0,0,0,7.935-2.369l4.9,2.254,1.2-2.507-3.979-1.38a5.739,5.739,0,0,0,1.679-4.071V54.774ZM33.051,67.4V65.009h-18.4V67.4h7.7v6.072h3.013V67.4Zm7.429-3.427a12.739,12.739,0,0,0-4.623-10.12L34.178,55.28a13.494,13.494,0,0,1,0,17.388l1.679,1.426A12.77,12.77,0,0,0,40.48,63.974Zm7.015-8.74c-3.4,0-5.474,2.622-5.474,6.049s2.07,6.049,5.474,6.049c3.381,0,5.451-2.622,5.451-6.049S50.876,55.234,47.5,55.234Zm0,2.461c1.472,0,2.6,1.2,2.6,3.588,0,2.369-1.127,3.588-2.6,3.588-1.5,0-2.622-1.219-2.622-3.588C44.873,58.891,45.977,57.695,47.5,57.695Zm10,2.277h2.875V57.488H57.5v-3.45H54.556V73.266H57.5v-8h2.875V62.778H57.5Zm4.669-4.738V67.125h1.219a52.387,52.387,0,0,0,9.269-.667l-.276-2.369a42.258,42.258,0,0,1-7.314.621V55.234Zm14.605-1.2H73.83V73.266h2.944V62.87h2.99V60.34h-2.99ZM95.91,62.8V60.386H86.48V57.212H95.7V54.8H83.444v8Zm2.852,4.416V64.8H80.408v2.415H88.09v6.256h2.99V67.217Zm1.472-11.684a2.789,2.789,0,0,1,1.265,2.254,4.754,4.754,0,0,1-1.472,3.358l1.449,1.2c1.518-1.288,2.944-3.1,2.944-5.29a4.888,4.888,0,0,0-1.725-3.634Zm16.445,12.42V65.262h4.83v-2.3H112.1V61.145h9.085v-6.21H109.02v2.254h9.108V58.96H109.02v6.3h4.646v2.691h-7.705v2.392h18.4V67.953Zm20.493-5.267h-3.5V59.857h3.5Zm2.9,2.323V54.751h-2.9V57.58h-3.5V54.751h-2.9V65.009Zm-2.3,1.909h-2.944v6.509h12.351V71.058H137.77Zm6.049-10.3h-2.9v2.415h2.9v1.7h-2.9v2.438h2.9V68.3h2.944V54.038h-2.944Zm6.233-1.817v2.369h6.1c-.138,2.323-2.9,4.853-6.509,6.072l1.1,2.438c4.324-1.5,8.395-4.853,8.395-9.568V54.8Zm15.87,14.9c0-2.369-1.932-4.577-5.451-4.577s-5.451,2.208-5.451,4.577,1.932,4.531,5.451,4.531C163.944,74.232,165.922,72.07,165.922,69.7Zm-5.451-2.208a2.215,2.215,0,1,1,0,4.37,2.215,2.215,0,1,1,0-4.37Zm2.622-2.737h2.944V54.038h-2.944v2.369H159.85V58.8h3.243v1.7H159v2.392h4.094Zm15.87-1.012a4.413,4.413,0,0,0-4.692-4.462,4.461,4.461,0,1,0,0,8.9A4.382,4.382,0,0,0,178.963,63.744Zm-6.67,0a2.017,2.017,0,0,1,1.978-2.185,1.993,1.993,0,0,1,1.909,2.185,1.96,1.96,0,0,1-1.909,2.162A1.985,1.985,0,0,1,172.293,63.744Zm.483-7.452h-4.163v2.323h11.293V56.292H175.7V53.739h-2.921Zm11.27-2.254H181.1V73.266h2.944V63.284h2.99V60.777h-2.99Zm4.14,5.428a4.866,4.866,0,0,0,5.221,4.853c3.335,0,5.244-2.254,5.244-4.853a5.242,5.242,0,0,0-10.465,0Zm3.013,14.4a8.522,8.522,0,0,0,3.5-2.415l2.99,2.53a7.441,7.441,0,0,0,3.611-2.645l3.289,2.507,1.518-2.415-3.795-2.093A9.366,9.366,0,0,0,202.7,66.6v-.529l-2.852-.046V66.6a4.916,4.916,0,0,1-1.886,4.186l-2.093-1.242A8.077,8.077,0,0,0,196.4,66.6v-.529l-2.852-.046V66.6a5.049,5.049,0,0,1-3.726,4.761ZM201.641,55.9h-2.484l.092,2.392h2.392V60.57h-2.392l-.092,2.392h2.484V65.1h2.944V54.038h-2.944ZM191.107,59.42a2.326,2.326,0,1,1,2.3,2.438A2.28,2.28,0,0,1,191.107,59.42Zm31.142,14.651V66.136h-2.99v1.7H213v-1.7h-2.99v7.935Zm-12.512-12.19a11.5,11.5,0,0,0,6.233-3.128l6.44,3.105,1.15-2.645-6.371-2.346a6.065,6.065,0,0,0,.46-2.254v-.552l-2.99-.046v.506c0,2.622-2.415,4.255-5.865,4.968Zm-2.806.851V65.1h18.4V62.732Zm12.328,9.016H213V70.069h6.256Zm8.326-16.514V67.125H228.8a60.594,60.594,0,0,0,9.8-.69l-.276-2.369a50.692,50.692,0,0,1-7.843.644V55.234Zm12.4,18.032h2.944V54.038h-2.944Zm16.767-8.947a45.755,45.755,0,0,1-7.429.6V57.833h6.3V55.441h-9.2V67.332h1.242a56.032,56.032,0,0,0,9.361-.644Zm4.393-10.281H258.2V73.266h2.944V62.985h2.99v-2.53h-2.99Zm6.693,18.768,2.576-2.576-2.576-2.6-2.6,2.6Z" transform="translate(247.896 499)" fill="#2e2e2e"/>
    <path id="패스_25052" data-name="패스 25052" d="M16.905-15.962H15.042V3.266h1.863ZM6.463-14.628c-3.266,0-5.336,2.576-5.336,5.911S3.2-2.783,6.463-2.783c3.243,0,5.29-2.6,5.29-5.934S9.706-14.628,6.463-14.628Zm0,1.61c1.978,0,3.45,1.587,3.45,4.3,0,2.691-1.472,4.324-3.45,4.324S2.99-6.026,2.99-8.717C2.99-11.431,4.485-13.018,6.463-13.018ZM19.826-8.74c0,2.875,1.495,5.52,4.6,5.52,2.829,0,4.324-2.162,4.577-4.715h2.07V2.415H32.89v-18.17H31.073v6.233H29c-.253-2.53-1.748-4.784-4.577-4.784C21.321-14.306,19.826-11.592,19.826-8.74ZM21.6-8.786c0-2.185,1.035-3.933,2.829-3.933,1.771,0,2.829,1.748,2.829,3.933,0,2.254-1.058,3.956-2.829,3.956C22.632-4.83,21.6-6.532,21.6-8.786ZM36.639,3.266V-15.962H34.822V3.266ZM59.317-15.962H57.454V3.266h1.863V-7.452h2.921V-9.085H59.317ZM49.335-4.853a11.156,11.156,0,0,1-3.22.483v-8.3h3.059v-1.61H44.321V-2.76h.621a17.144,17.144,0,0,0,4.6-.552C49.5-3.818,49.427-4.347,49.335-4.853Zm6.693,0a18.423,18.423,0,0,1-4.117.483v-8.3h3.427v-1.61H50.094V-2.76h.851a21.542,21.542,0,0,0,5.29-.552C56.143-3.818,56.1-4.347,56.028-4.853ZM78.269-15.962H76.406V3.266h1.863V-7.406h3.243V-9.039H78.269ZM74.681-4.876a48.305,48.305,0,0,1-8.694.782V-7.843h6.808v-6.532H64.17v1.587h6.785v3.4H64.17v6.877h.874a56.357,56.357,0,0,0,9.844-.782Q74.819-4.082,74.681-4.876ZM103.2-15.962h-1.863V3.266H103.2ZM92.759-14.628c-3.266,0-5.336,2.576-5.336,5.911s2.07,5.934,5.336,5.934c3.243,0,5.29-2.6,5.29-5.934S96-14.628,92.759-14.628Zm0,1.61c1.978,0,3.45,1.587,3.45,4.3,0,2.691-1.472,4.324-3.45,4.324s-3.473-1.633-3.473-4.324C89.286-11.431,90.781-13.018,92.759-13.018ZM120.4-11.983c0-2.07-1.817-3.864-5.221-3.864s-5.129,1.794-5.129,3.864a3.438,3.438,0,0,0,1.15,2.645V-6.21H106.03v1.587h18.354V-6.21h-5.152V-9.361A3.491,3.491,0,0,0,120.4-11.983ZM120.474.644c0-2.254-1.955-3.887-5.29-3.887-3.289,0-5.244,1.633-5.244,3.887,0,2.323,1.955,3.887,5.244,3.887C118.519,4.531,120.474,2.967,120.474.644Zm-1.863,0c0,1.2-1.058,2.3-3.427,2.3-2.323,0-3.358-1.1-3.358-2.3s1.058-2.3,3.358-2.3C117.553-1.656,118.611-.552,118.611.644Zm-.069-12.627c0,1.311-1.081,2.323-3.358,2.323-2.231,0-3.266-1.012-3.266-2.323,0-1.288,1.035-2.277,3.266-2.277C117.461-14.26,118.542-13.271,118.542-11.983ZM115.184-8.1a7.879,7.879,0,0,0,2.185-.276V-6.21h-4.278V-8.349A8.151,8.151,0,0,0,115.184-8.1Zm13.57,4.646v1.541h10.1v5.75h1.84V-3.45Zm15.065-5.681h-3.128v-2.6h3.128v-1.564h-3.128v-2.668h-1.863V-4.623h1.863V-7.544h3.128Zm-17.894-1.288a4.7,4.7,0,0,0,4.968,4.646,4.72,4.72,0,0,0,4.991-4.646,4.737,4.737,0,0,0-4.991-4.669A4.717,4.717,0,0,0,125.925-10.419Zm1.84-.023a2.96,2.96,0,0,1,3.128-3.036,2.992,2.992,0,0,1,3.151,3.036,3.01,3.01,0,0,1-3.151,3.059A2.978,2.978,0,0,1,127.765-10.442Zm35.466,1.725V-10.3h-3.059v-5.658h-1.863V-1.725h1.863V-8.717Zm-5.773,2.231c-2.346.3-4.692.506-7.038.6v-4.531h-1.84v4.6c-1.38.046-2.76.069-4.117.069v1.61a92.912,92.912,0,0,0,13.156-.8C157.55-5.451,157.5-5.98,157.458-6.486Zm3.128,10.028V1.978h-9.729V-2.484h-1.886V3.542ZM145.774-15v1.587h7.705a25.4,25.4,0,0,1-.506,5.474l1.771.184a33.252,33.252,0,0,0,.529-6.164V-15ZM165.025.506a2.423,2.423,0,0,1,1.1,2.024A4.992,4.992,0,0,1,164.5,5.589l1.1.966c1.5-1.495,2.553-3.036,2.553-4.623A3.918,3.918,0,0,0,166.8-1.081Zm10.1-14.766V-12.7h5.267c0,4.048-2.139,7.521-5.8,9.913l1.219,1.38a13.414,13.414,0,0,0,6.394-11.753v-1.1ZM191.084,3.266V-15.962h-1.817v6.9h-2.553v-6.693H184.9V2.415h1.817V-7.5h2.553V3.266ZM209.9-1.794V-15.962h-1.863V-1.794Zm.414,5.221V1.863H200.169v-4.9h-1.84V3.427ZM194.4-10.166a4.773,4.773,0,0,0,5.037,4.784,4.767,4.767,0,0,0,5.014-4.784,4.78,4.78,0,0,0-5.014-4.784A4.786,4.786,0,0,0,194.4-10.166Zm1.84,0a3.043,3.043,0,0,1,3.2-3.151,3.037,3.037,0,0,1,3.174,3.151,3.024,3.024,0,0,1-3.174,3.151A3.03,3.03,0,0,1,196.236-10.166ZM229.264.138c0-2.162-1.771-4.186-5.129-4.186S218.96-2.024,218.96.138c0,2.116,1.817,4.094,5.175,4.094C227.447,4.232,229.264,2.254,229.264.138ZM214.015-14.973v1.564h6.049c-.092,2.921-2.737,5.336-6.877,6.808.276.483.529,1.012.805,1.495a14.037,14.037,0,0,0,5.543-3.358l3.956,3.013,1.081-1.518L220.5-9.614a7.77,7.77,0,0,0,1.426-4.508v-.851Zm13.5,4.807V-4.83h1.863V-15.962h-1.863v4.209h-4.163v1.587Zm-3.381,7.682c2.277,0,3.266,1.288,3.266,2.622,0,1.219-.989,2.53-3.266,2.53-2.3,0-3.312-1.311-3.312-2.53C220.823-1.2,221.835-2.484,224.135-2.484ZM250.378.345v-1.61h-8.257V-5.336h4.922V-14.9h-1.886v3.22h-7.981V-14.9H235.29v9.568h4.945v4.071h-8.257V.345ZM245.157-6.9h-7.981v-3.243h7.981ZM257.3-1.725A18.2,18.2,0,0,0,262.66-5.98l4.048,3.795,1.265-1.357-4.324-3.795a10.476,10.476,0,0,0,1.541-5.474v-.621h-2.967v-2.691h-1.84v2.691h-3.128v1.61H263.3c-.069,3.082-2.645,6.348-6.969,8.625A16.236,16.236,0,0,1,257.3-1.725Zm9.108-6.187h4.255V3.266h1.863V-15.962h-1.863v6.417h-4.255Zm25.185-8.05h-1.863V3.266h1.863ZM287.477-4.876a49.032,49.032,0,0,1-8.9.782V-7.843h6.9v-6.532h-8.717v1.587h6.877v3.4h-6.877v6.877h.828a59.516,59.516,0,0,0,10.1-.782Zm25.576-4.83v-1.61H309.81v-4.646h-1.863V-4.83h1.863V-9.706Zm-8.832,3.634v-9.016h-1.863v3.059h-4.991v-3.059H295.5v9.016Zm-1.863-1.541h-4.991v-2.9h4.991ZM309.764.138c0-2.162-1.771-4.186-5.152-4.186-3.358,0-5.152,2.024-5.152,4.186,0,2.116,1.794,4.071,5.152,4.071C307.947,4.209,309.764,2.254,309.764.138Zm-5.152-2.622c2.3,0,3.312,1.288,3.312,2.622,0,1.219-1.012,2.507-3.312,2.507s-3.289-1.288-3.289-2.507C301.323-1.2,302.312-2.484,304.612-2.484Zm25.53,6.233v-7.2h-11.2v7.2ZM315.031-14.007v1.564h6.279c-.115,2.369-2.737,4.485-7.107,5.819l.667,1.587a15.117,15.117,0,0,0,5.819-3.013l3.657,2.369.966-1.564-3.565-1.886a6.541,6.541,0,0,0,1.426-4.117v-.759h-3.036v-2.3H318.3v2.3ZM328.3,2.185h-7.5V-1.909h7.5Zm-.023-6.969h1.863V-15.962h-1.863Zm26.2,8.05V-15.962h-1.817v6.854h-2.6v-6.647h-1.817V2.415h1.817V-7.521h2.6V3.266Zm-7.5-8.924a27.976,27.976,0,0,1-6.509.69v-9.545h-1.84V-3.358h1.955a32.9,32.9,0,0,0,6.624-.69Zm29.877-10.3h-1.886V3.266h1.886v-10.6h3.22V-8.97h-3.22ZM362.848-2.093a14.219,14.219,0,0,0,4.232-4.922L371.312-2.6l1.38-1.357-4.968-4.715a13.446,13.446,0,0,0,.575-4.094v-2.208h-1.886v2.139A10.7,10.7,0,0,1,361.606-3.5ZM391.8-11.707h3.7v2.139h-3.7V-8h3.7v2.99h1.863V-15.962h-1.863v2.691h-3.7Zm-1.2,5.658v-9.062h-8.464v9.062Zm-1.84-1.518h-4.761v-6.026h4.761Zm8.487,7.59c0-2.208-1.84-4.278-5.129-4.278-3.335,0-5.175,2.07-5.175,4.278,0,2.185,1.84,4.209,5.175,4.209C395.37,4.232,397.256,2.208,397.256.023Zm-5.129-2.714c2.231,0,3.266,1.357,3.266,2.714,0,1.265-1.035,2.645-3.266,2.645-2.254,0-3.312-1.38-3.312-2.645C388.815-1.334,389.873-2.691,392.127-2.691Zm26.243-2.76V-7.015h-18.4v1.564Zm-2.921,9.637V2.645H405.1V.874H415.15V-3.841H403.19v1.518h10.074V-.575H403.19V4.186ZM414.3-12.19c0-1.771-1.541-3.7-5.129-3.7-3.565,0-5.106,1.978-5.106,3.749,0,1.794,1.518,3.749,5.129,3.749C412.758-8.4,414.3-10.4,414.3-12.19Zm-1.863.046c0,1.035-.92,2.208-3.266,2.208-2.369,0-3.243-1.173-3.243-2.208,0-1.1.874-2.208,3.243-2.208C411.516-14.352,412.436-13.248,412.436-12.144Zm26.22.943v2.369h-3.7v1.564h3.7V-1.7h1.863v-14.26h-1.863v3.174h-3.7V-11.2Zm2.277,14.628V1.863H430.79V-2.806h-1.84V3.427Zm-6.946-8.556v-9.844h-1.863v3.427h-5.106v-3.427h-1.863v9.844Zm-1.863-1.518h-5.106v-3.381h5.106Zm20.884-.9h4.922v2.3h1.863V-15.962H457.93v2.944h-4.071v1.564h4.071v2.323h-4.922Zm-8.694-7.521v1.541h6.877c-.069,3.473-3.105,5.934-7.314,7.291l.69,1.541c5.083-1.61,8.464-4.761,8.464-9.453v-.92ZM459.678-.023c0-2.231-1.84-4.324-5.129-4.324-3.335,0-5.175,2.093-5.175,4.324s1.84,4.255,5.175,4.255C457.792,4.232,459.678,2.208,459.678-.023Zm-5.129-2.76c2.231,0,3.266,1.357,3.266,2.783,0,1.265-1.035,2.668-3.266,2.668-2.254,0-3.312-1.4-3.312-2.668C451.237-1.426,452.3-2.783,454.549-2.783Zm12.788-11.155h-4.6v1.495h11.086v-1.495h-4.577v-2.369h-1.909Zm.92,2.484c-2.668,0-4.347,1.449-4.347,3.335,0,1.909,1.7,3.335,4.347,3.335,2.622,0,4.324-1.426,4.324-3.335C472.581-10.005,470.879-11.454,468.257-11.454Zm0,5.2c-1.633,0-2.553-.828-2.553-1.863,0-1.012.92-1.84,2.553-1.84s2.507.828,2.507,1.84C470.764-7.084,469.89-6.256,468.257-6.256ZM477.8,3.956V-3.358h-1.863v2.116h-7.544V-3.358h-1.84V3.956Zm-1.863-1.541h-7.544V.253h7.544Zm5.106-11.937v-1.61H477.8v-4.83h-1.863V-4.577H477.8V-9.522Zm17.089-6.44h-1.863V3.266h1.863ZM494.477-5.543a50.947,50.947,0,0,1-9.223.782V-14.766h-1.863V-3.128h.851a58.1,58.1,0,0,0,10.419-.8C494.615-4.462,494.523-5.014,494.477-5.543Zm18.492.368a48.359,48.359,0,0,1-8.855.782v-8.28H511.5v-1.61h-9.246v11.5h.851a59.156,59.156,0,0,0,10.051-.782C513.107-4.094,513.015-4.646,512.969-5.175Zm3.381-10.787h-1.863V3.266h1.863V-7.452h3.243V-9.085H516.35Zm6.578,18.446L524.676.713l-1.748-1.794L521.157.713Z" transform="translate(247.873 606)" fill="#7b7b7b"/>
    <path id="패스_25049" data-name="패스 25049" d="M12.122-4.862a44.4,44.4,0,0,1-8.47.748v-8.008H10.67v-1.54H1.87V-2.574h.814A54.417,54.417,0,0,0,12.3-3.322C12.254-3.828,12.188-4.356,12.122-4.862ZM14.586-7.59V3.124h1.782V-15.268H14.586v6.182H9.658v1.5ZM32.67-11.132c0-1.98-1.738-3.872-5.038-3.872-3.322,0-4.994,1.892-4.994,3.872,0,2.024,1.694,3.85,4.994,3.85C30.954-7.282,32.67-9.108,32.67-11.132Zm-5.918,6.8V-1.8H21.758v1.54h9.614V3.96h1.8V-1.8h-4.62v-2.53h7.876V-5.852H18.876v1.518Zm4.136-6.8c0,1.232-1.034,2.332-3.256,2.332-2.178,0-3.19-1.1-3.19-2.332,0-1.254,1.012-2.376,3.19-2.376C29.854-13.508,30.888-12.386,30.888-11.132Zm18.106,6.27a44.4,44.4,0,0,1-8.47.748v-8.008h7.018v-1.54h-8.8V-2.574h.814a54.417,54.417,0,0,0,9.614-.748C49.126-3.828,49.06-4.356,48.994-4.862ZM51.458-7.59V3.124H53.24V-15.268H51.458v6.182H46.53v1.5ZM61.512-4.312a10.955,10.955,0,0,0,4.51-4.554L70.2-4.928l1.21-1.3-4.818-4.158a10.528,10.528,0,0,0,.418-2.97v-1.452h-1.8v1.364c0,3.344-1.606,5.83-4.664,7.7Zm14.762,7.59v-1.5H66.7V-2.9H64.922V3.278Zm-.4-4.994V-15.268H74.1V-1.716ZM91.63-3.344c-1.892.286-3.828.44-5.786.572V-5.434H89.76V-6.952H82.1V-9.108h7.348v-5.038H80.3v1.474h7.348v2.112H80.3v5.126h3.784v2.75c-1.738.044-3.476.066-5.192.044V-1.1a85.887,85.887,0,0,0,12.892-.77ZM94.4,3.124V-15.268H92.6V3.124Zm17.732.352V1.98h-8.976V-1.782h8.668V-3.256h-10.45V3.476ZM114.84-9.262V-10.8h-3.1v-4.466h-1.782V-4.532h1.782v-4.73ZM106.392-5.83v-8.6H104.61v2.816H99.836v-2.816H98.054v8.6ZM104.61-7.3H99.836v-2.86h4.774Zm10.846,1.518v1.5h17.556v-1.5Zm14.7,9.262V1.98H120.34V-2.244h-1.826v5.72Zm-.2-11.77v-1.5h-9.482v-5.126H118.69v6.622Zm22.484-.33V3.124h1.782V-15.268h-1.782v5.17h-4.686v1.474ZM139.81-2a13.673,13.673,0,0,0,4.07-4.708l4.136,4.246,1.3-1.32c-1.606-1.474-3.19-2.992-4.818-4.51a12.846,12.846,0,0,0,.572-3.916v-2.112h-1.8v2.068a10.2,10.2,0,0,1-4.62,8.91Zm32.648-13.266h-1.782V3.124h1.782ZM166.672-2.6V-13.772h-1.76V-9.7H160.05v-4.07h-1.782V-2.6Zm-1.76-1.474H160.05V-8.228h4.862Zm12.782-1.166a11.146,11.146,0,0,0,5.83-3.784l6.446,3.586c.308-.506.572-1.034.88-1.562l-6.578-3.3a7.843,7.843,0,0,0,.66-3.168v-1.144c-.594,0-1.21-.022-1.826-.022v1.078c0,3.19-2.222,5.566-6.116,6.776ZM192.742.22V-1.32h-17.6V.22Zm18.436.11V-1.21h-7.9V-4.532h4.906v-1.5h-9.592V-8.646h9.284v-5.5H196.746v1.474h9.306v2.552h-9.306v5.588h4.73V-1.21h-7.9V.33Zm22.836,0V-1.21h-7.9V-5.1h4.708v-9.152h-1.8v3.08h-7.634v-3.08h-1.8V-5.1h4.73V-1.21h-7.9V.33ZM229.02-6.6h-7.634V-9.7h7.634ZM249.59,3.784v-7.9h-1.782V-1.65h-7.216V-4.114h-1.76v7.9ZM247.808,2.31h-7.216V-.22h7.216Zm4.884-11.858v-1.54h-3.1v-4.18h-1.782v10.01h1.782v-4.29Zm-6.336,1.342a49.88,49.88,0,0,1-8.668.682V-12.8h7.062v-1.518h-8.844v8.316h.814a59.688,59.688,0,0,0,9.812-.682C246.488-7.194,246.4-7.7,246.356-8.206Zm11.66-5.236h-4.4v1.43h10.6v-1.43h-4.378v-2.2h-1.826Zm4.95,5.39c0-1.694-1.5-3.058-4.048-3.058-2.64,0-4.136,1.364-4.136,3.058,0,1.716,1.54,3.1,4.136,3.1C261.47-4.95,262.966-6.336,262.966-8.052Zm-6.446-.022c0-.946.814-1.65,2.4-1.65,1.562,0,2.31.748,2.31,1.65,0,.99-.748,1.694-2.31,1.694C257.378-6.38,256.52-7.084,256.52-8.074Zm14.608-1.232v-1.54h-3.1v-4.422h-1.782V-4.84h1.782V-9.306Zm-2.6,13.112V2.376h-9.35V.682h8.844V-3.762H257.4v1.408h8.844V-.66H257.4V3.806Zm17.292-.484V-3.124h7.9v-1.5h-17.6v1.5H284V3.322ZM278.85-6.556a11.52,11.52,0,0,0,5.632-3.388l6.358,3.212c.264-.528.55-1.056.836-1.562-2.156-.968-4.268-1.958-6.4-2.9a6.453,6.453,0,0,0,.638-2.882v-.748c-.594,0-1.21-.022-1.8-.022v.7c0,2.882-2.09,4.906-5.94,6.116Zm21.1-3.52A4.446,4.446,0,0,0,304.7-5.7a4.42,4.42,0,0,0,4.752-4.378A4.47,4.47,0,0,0,304.7-14.52,4.5,4.5,0,0,0,299.948-10.076Zm2,13.662a8.413,8.413,0,0,0,3.52-2.53l3.058,2.508A6.853,6.853,0,0,0,311.74.946l3.476,2.618.968-1.452-3.828-2.42a8.175,8.175,0,0,0,.4-2.618V-3.41l-1.716-.022v.506a4.9,4.9,0,0,1-2.222,4.51L306.2-.154a6.642,6.642,0,0,0,.572-2.772V-3.41l-1.716-.022v.506c0,2.046-1.122,3.85-3.916,5.038C301.422,2.6,301.686,3.1,301.95,3.586Zm-.242-13.706a2.8,2.8,0,0,1,2.992-2.86,2.821,2.821,0,0,1,2.992,2.86A2.814,2.814,0,0,1,304.7-7.238,2.79,2.79,0,0,1,301.708-10.12Zm13,5.544V-15.268h-1.782V-4.576ZM334.972.33v-1.5h-7.9v-4.29h5.016v-1.5h-9.812v-5.566h9.636v-1.5H320.452v8.558h4.818v4.29h-7.854V.33ZM350.416-6.8v-1.43h-9.46V-10.1h9.174v-4.576H339.108v1.43h9.174v1.76h-9.174V-6.8h4.62v1.87h-7.9v1.474h17.6V-4.928h-7.876V-6.8Zm-11.7,4.95V-.374h9.834V3.96h1.8V-1.848Zm21.912-11.4v1.474h6.512c-.11,1.672-2.816,3.476-7.392,4.554l.594,1.5a17.578,17.578,0,0,0,5.632-2.2L369.578-5.9l.858-1.518-3.19-1.5a4.809,4.809,0,0,0,1.65-3.564v-.77H365.75V-15.51h-1.76v2.266ZM374.506,3.124V-15.268h-1.8V3.124Zm-3.014-6.578c-1.8.264-3.608.418-5.456.528V-5.918h-1.76v3.08q-2.673.1-5.28.066v1.54A82.856,82.856,0,0,0,371.624-2Zm6.908-.858a10.948,10.948,0,0,0,4.4-4.444L387-4.8c.4-.418.814-.9,1.232-1.32l-4.84-4.136a10.9,10.9,0,0,0,.44-3.1v-1.452h-1.8v1.364c0,3.344-1.54,5.83-4.6,7.7Zm14.652,2.6V-15.268H391.27v3.982h-4.4v1.518h4.4v8.052Zm.4,4.994v-1.5h-9.57V-2.9H382.1V3.278Zm19.69-8.492v-1.5h-17.6v1.5ZM410.344,4V2.53h-9.9V.836h9.614v-4.51h-11.44v1.452h9.636V-.55h-9.636V4Zm-1.1-15.664c0-1.694-1.474-3.542-4.906-3.542-3.41,0-4.884,1.892-4.884,3.586,0,1.716,1.452,3.586,4.906,3.586C407.77-8.03,409.244-9.944,409.244-11.66Zm-1.782.044c0,.99-.88,2.112-3.124,2.112-2.266,0-3.1-1.122-3.1-2.112,0-1.056.836-2.112,3.1-2.112C406.582-13.728,407.462-12.672,407.462-11.616ZM429.88-4.95a46.257,46.257,0,0,1-8.47.748v-7.92h7.062v-1.54h-8.844v11h.814a56.584,56.584,0,0,0,9.614-.748C430.012-3.916,429.924-4.444,429.88-4.95Zm3.234-10.318h-1.782V3.124h1.782V-7.128h3.1V-8.69h-3.1Zm18.436,0h-1.782V3.124h1.782V-6.82h3.1V-8.382h-3.1Zm-4.884,9.284a3.971,3.971,0,0,0-4.224-3.96,4.01,4.01,0,0,0-4.312,3.96,3.981,3.981,0,0,0,4.312,3.938A3.929,3.929,0,0,0,446.666-5.984Zm-6.8,0a2.48,2.48,0,0,1,2.574-2.508,2.431,2.431,0,0,1,2.486,2.508,2.412,2.412,0,0,1-2.486,2.53A2.46,2.46,0,0,1,439.868-5.984Zm7.832-5.28v-1.474h-4.466v-2.684h-1.782v2.684h-4.444v1.474Zm8.382-3.08v1.474h5.236c0,2.618-2.156,5.1-5.72,6.952l.88,1.364a12.781,12.781,0,0,0,5.346-4.51h3.982v4.29h1.738v-10.3h-1.738v4.488H462.55a7.868,7.868,0,0,0,.484-2.706v-1.056Zm2.442,17.93a8.557,8.557,0,0,0,3.52-2.53l3.08,2.508a7.246,7.246,0,0,0,3.212-2.486L471.7,3.564l.968-1.452c-1.232-.77-2.42-1.54-3.652-2.266a7.49,7.49,0,0,0,.506-2.772V-3.41l-1.76-.022v.506a5.03,5.03,0,0,1-2.376,4.51l-2.6-1.738a6.569,6.569,0,0,0,.572-2.772V-3.41l-1.738-.022v.506c0,2.112-1.232,3.894-3.938,5.038Zm12.914-8.162V-15.268H469.7V-4.576Zm16.72,8.47V-3.432h-1.8v2.2H478.61v-2.2h-1.782V3.894Zm-11.9-12.056a11.189,11.189,0,0,0,5.83-3.014l6.556,2.838.748-1.606-6.468-2.42a4.838,4.838,0,0,0,.55-2.31v-.572l-1.826-.022v.528c0,2.486-2.222,4.136-5.984,5.082ZM473.682-6.6v1.54h17.6V-6.6Zm12.672,9H478.61V.2h7.744ZM507.87-15.268h-1.782V3.124h1.782Zm-3.5,9.966a48.732,48.732,0,0,1-8.822.748v-9.57h-1.782V-2.992h.814a55.575,55.575,0,0,0,9.966-.77C504.5-4.268,504.416-4.8,504.372-5.3Zm17.688.352a46.257,46.257,0,0,1-8.47.748v-7.92h7.062v-1.54h-8.844v11h.814a56.583,56.583,0,0,0,9.614-.748C522.192-3.916,522.1-4.444,522.06-4.95Zm3.234-10.318h-1.782V3.124h1.782V-7.128h3.1V-8.69h-3.1Zm6.292,17.644L533.258.682l-1.672-1.716L529.892.682ZM18.26,25.606V24.088h-3.1V19.732H13.376V30.138h1.782V25.606Zm-3.1,12.98V31.414H4.532v7.172Zm-1.76-1.5H6.314v-4.2H13.4ZM1.342,20.59v1.474h6.49C7.766,25.012,5.3,27.278.946,28.62c.22.484.44.968.638,1.474,4.862-1.43,8.03-4.268,8.03-8.624v-.88Zm32.274-.858h-1.8V38.124h1.8V27.982H36.7V26.42h-3.08ZM20.218,33a13.6,13.6,0,0,0,4.048-4.708l4.048,4.224,1.32-1.3-4.752-4.51a12.861,12.861,0,0,0,.55-3.916V20.678h-1.8v2.046a10.239,10.239,0,0,1-4.6,8.932Zm21.8-11.33h-4.4V23.1h10.6v-1.43H43.846V19.4H42.02Zm.88,2.376c-2.552,0-4.158,1.386-4.158,3.19,0,1.826,1.628,3.19,4.158,3.19,2.508,0,4.136-1.364,4.136-3.19C47.036,25.43,45.408,24.044,42.9,24.044Zm0,4.972c-1.562,0-2.442-.792-2.442-1.782,0-.968.88-1.76,2.442-1.76s2.4.792,2.4,1.76C45.3,28.224,44.462,29.016,42.9,29.016Zm9.13,9.768v-7H50.248v2.024H43.032V31.788h-1.76v7ZM50.248,37.31H43.032V35.242h7.216Zm4.884-11.418v-1.54h-3.1v-4.62H50.248v10.89H52.03v-4.73Zm16.346-6.16H69.7V38.124h1.782ZM67.98,29.7a48.732,48.732,0,0,1-8.822.748v-9.57H57.376V32.008h.814a55.575,55.575,0,0,0,9.966-.77C68.112,30.732,68.024,30.2,67.98,29.7Zm17.688.352a46.256,46.256,0,0,1-8.47.748v-7.92H84.26v-1.54H75.416v11h.814a56.584,56.584,0,0,0,9.614-.748C85.8,31.084,85.712,30.556,85.668,30.05ZM88.9,19.732H87.12V38.124H88.9V27.872H92V26.31H88.9Zm6.292,17.644,1.672-1.694-1.672-1.716L93.5,35.682Z" transform="translate(248.054 670)" fill="#7b7b7b"/>
    <path id="패스_25050" data-name="패스 25050" d="M13.08.16c0-1.8-1.32-3.3-3.86-3.56V-5.64h7.14V-7.02H12.92a20.721,20.721,0,0,0,.64-5.48v-.86H3.1v1.4h8.8a18.786,18.786,0,0,1-.62,4.94H.4v1.38H7.56v2.22C5.06-3.14,3.72-1.66,3.72.16c0,2.02,1.66,3.64,4.64,3.64C11.38,3.8,13.08,2.18,13.08.16Zm-1.62,0c0,1.2-1.04,2.26-3.1,2.26C6.32,2.42,5.32,1.34,5.32.16S6.3-2.12,8.34-2.12C10.48-2.12,11.46-1.02,11.46.16ZM30.28,3.54V-2.92H20V3.54ZM19.86-13.38v1.4h8.8a22.014,22.014,0,0,1-.62,5.24H17.16v1.38H33.12V-6.74H29.68a22.965,22.965,0,0,0,.64-5.76v-.88Zm8.8,15.56H21.62V-1.58h7.04ZM47.3-13.88H45.68V2.84H47.3V-6.2h2.82V-7.62H47.3ZM42.86-5.44a3.61,3.61,0,0,0-3.84-3.6,3.646,3.646,0,0,0-3.92,3.6,3.619,3.619,0,0,0,3.92,3.58A3.572,3.572,0,0,0,42.86-5.44Zm-6.18,0a2.254,2.254,0,0,1,2.34-2.28,2.21,2.21,0,0,1,2.26,2.28,2.193,2.193,0,0,1-2.26,2.3A2.236,2.236,0,0,1,36.68-5.44Zm7.12-4.8v-1.34H39.74v-2.44H38.12v2.44H34.08v1.34Zm8.12,6.32a9.96,9.96,0,0,0,4.1-4.14l3.8,3.58,1.1-1.18L56.54-9.44a9.57,9.57,0,0,0,.38-2.7v-1.32H55.28v1.24c0,3.04-1.46,5.3-4.24,7Zm13.42,6.9V1.62h-8.7V-2.64H55.02V2.98Zm-.36-4.54V-13.88H63.36V-1.56ZM85.92,3.26V-3.08H76.18V3.26ZM72.56-13.02v1.36h5.26c-.08,2.4-2.36,4.58-5.98,6.02.22.46.46.9.7,1.34a13.77,13.77,0,0,0,4.82-3.12l3.48,2.68.94-1.3L78.2-8.4a6.673,6.673,0,0,0,1.24-3.88v-.74ZM84.32,1.9H77.8V-1.72h6.52Zm1.6-6.1v-9.68H84.3v3.7H80.68V-8.8H84.3v4.6Zm10.24-9.48c-2.92,0-4.54,1.74-4.54,3.68s1.62,3.64,4.54,3.64c2.94,0,4.58-1.7,4.58-3.64S99.1-13.68,96.16-13.68Zm0,1.38c1.96,0,2.94,1.08,2.94,2.3,0,1.2-.98,2.26-2.94,2.26-1.9,0-2.9-1.06-2.9-2.26C93.26-11.22,94.26-12.3,96.16-12.3Zm8,8.94V-4.78H88.2v1.42Zm-2.5,6.52V1.76h-8.9V-1.72H91.08V3.16Zm8.56-.06h4.42V1.68h-2.78V-12.14h2.78v-1.4h-4.42Zm21.92-6.4V-4.64h-7.16V-5.92c2.16-.28,3.32-1.64,3.32-3.12a2.57,2.57,0,0,0-.9-1.92h2.58V-12.3H125v-1.86h-1.7v1.86h-4.98v1.34h2.56a2.512,2.512,0,0,0-.9,1.94c0,1.48,1.14,2.84,3.36,3.12v1.26h-7.2V-3.3Zm-2.86,7.02V-1.74H119V3.72Zm-1.62-1.34h-7.04V-.42h7.04ZM124.14-10.9c1.72,0,2.54.9,2.54,1.88,0,.94-.82,1.86-2.54,1.86s-2.54-.92-2.54-1.86C121.6-10,122.42-10.9,124.14-10.9Zm8.9,8.66a47.341,47.341,0,0,0,8.36-.54l-.18-1.28c-.56.1-1.12.16-1.76.24v-7.14h1.3v-1.36h-7.52v1.36h1.26V-3.6c-.52.02-1,0-1.46,0ZM144.16,2.1V-13.7H142.6v5.56h-2v1.36h2V2.1Zm3.46.74V-13.88h-1.58V2.84Zm-11.6-13.8h1.92v7.24c-.64.04-1.28.08-1.92.1Zm27.96-2.92h-1.62V2.84h1.62Zm-9.08,1.16c-2.84,0-4.64,2.24-4.64,5.14s1.8,5.16,4.64,5.16c2.82,0,4.6-2.26,4.6-5.16S157.72-12.72,154.9-12.72Zm0,1.4c1.72,0,3,1.38,3,3.74,0,2.34-1.28,3.76-3,3.76s-3.02-1.42-3.02-3.76C151.88-9.94,153.18-11.32,154.9-11.32ZM167.94-1.5a17.084,17.084,0,0,0,4.6-3.9l3.52,3.48,1.18-1.16c-1.28-1.16-2.58-2.36-3.88-3.52a10.027,10.027,0,0,0,1.4-5.22v-.54h-6.92v1.42h5.28c-.06,2.88-2.22,5.98-6.1,8.14Zm12.8-12.38h-1.62V2.84h1.62Zm7.62.34h-4.44v1.4h2.8V1.68h-2.8V3.1h4.44ZM210.4.3V-1.04h-7.18V-4.48h-1.66v3.44H194.4V.3Zm-1.78-5.52V-6.54h-4.16v-4.88h3.98v-1.34h-5.62v7.54ZM202.1-7a19.42,19.42,0,0,1-4.2.38V-11.4h3.98v-1.36h-5.62v7.54H197a25.849,25.849,0,0,0,5.26-.42C202.2-6.08,202.14-6.54,202.1-7Zm9.08,1.74V-3.9h15.96V-5.26Zm13.36,8.42V1.8h-8.92V-2.04h-1.66v5.2Zm-.18-10.7V-8.9h-8.62v-4.66h-1.62v6.02Zm10.1-5.24v1.4h9.16A38.345,38.345,0,0,1,242.94-4l1.62.2a41.848,41.848,0,0,0,.72-7.98v-1ZM247.88.2V-1.2h-8.14V-7.62H238.1V-1.2h-6.18V.2ZM263.4-3.86V-13.88h-1.58v4.14H259.6V-13.7h-1.58v9.66h1.58V-8.36h2.22v4.5Zm0,7.2V-2.7H252.78v1.34h9v4.7ZM249.44-13.04v1.34h4.76c0,2.58-1.98,4.86-5.18,6.56l.82,1.24c3.64-1.98,5.92-4.5,5.92-8.18v-.96Zm16.78,9.4a9.366,9.366,0,0,0,3.3-3.82l3.18,3.34,1.18-1.16-3.86-3.58a11.248,11.248,0,0,0,.38-3.06v-1.44h-1.58V-12a8.067,8.067,0,0,1-3.56,7.12C265.56-4.48,265.88-4.04,266.22-3.64Zm10.4,1.98V-13.7h-1.58v3.46h-3.12V-8.9h3.12v7.24Zm3.88,4.64V1.62h-9.06V-2.26h-1.62V2.98Zm-.36-4.26v-12.6h-1.58v12.6ZM292.98-4.2a43.811,43.811,0,0,1-8,.68V-6.74h5.6V-8.12h-5.6v-3h6.24v-1.4h-7.86v10.4h.74a52.8,52.8,0,0,0,9.04-.68Zm-.72-2.92h2.8V2.84h1.62V-13.88h-1.62v5.34h-2.8ZM304.22,3.1h4.42V1.68h-2.78V-12.14h2.78v-1.4h-4.42Zm11.66-1.54c3.1,0,4.96-2.36,4.96-7.14,0-4.74-1.8-7.22-4.96-7.22-3.18,0-4.96,2.52-4.96,7.22S312.7,1.56,315.88,1.56Zm0-12.9c2.08,0,3.2,1.9,3.2,5.76,0,3.66-1.06,5.68-3.2,5.68-2.1,0-3.2-1.92-3.2-5.68C312.68-9.44,313.82-11.34,315.88-11.34Zm9.68,11.2,3.52-3.9c1.56-1.74,2.74-3.02,2.74-4.98,0-2.04-1.4-3.78-4.16-3.78a5.982,5.982,0,0,0-4.46,2.02l.92,1.1a4.793,4.793,0,0,1,3.42-1.58c1.86,0,2.58,1.02,2.58,2.3,0,1.6-1.14,2.72-2.32,4.04L323.22.16l.28,1.2h8.74V-.14Zm8.7-4.54h6.9V-6.16h-6.9Zm17.02-6.44v-1.42h-7.44v6.78l.68.74a7.492,7.492,0,0,1,2.44-.42c2.38,0,3.36.98,3.36,2.76,0,1.76-1.02,2.8-3.38,2.8a11.949,11.949,0,0,1-3.4-.5L343.2.94a9.97,9.97,0,0,0,3.76.62c3.48,0,5.06-1.84,5.06-4.32,0-2.7-1.94-4.08-4.46-4.08a9.161,9.161,0,0,0-2.12.26v-4.54Zm8.18,12.68c3.1,0,4.96-2.36,4.96-7.14,0-4.74-1.8-7.22-4.96-7.22-3.18,0-4.96,2.52-4.96,7.22S356.28,1.56,359.46,1.56Zm0-12.9c2.08,0,3.2,1.9,3.2,5.76,0,3.66-1.06,5.68-3.2,5.68-2.1,0-3.2-1.92-3.2-5.68C356.26-9.44,357.4-11.34,359.46-11.34Zm7.92,2.06a3.762,3.762,0,0,0,2.12,3.42,3.865,3.865,0,0,0-2.72,3.62c0,2.12,1.4,3.8,4.88,3.8,3.2,0,4.98-1.7,4.98-3.94,0-1.6-.72-2.68-2.84-3.56a3.871,3.871,0,0,0,2.46-3.46c0-2.04-1.6-3.4-4.42-3.4C368.98-12.8,367.38-11.24,367.38-9.28Zm1.18,6.88c0-1.58,1.14-2.36,2.46-2.84l.66.16c2.52.6,3.18,1.38,3.18,2.84,0,1.42-1.32,2.4-3.18,2.4C369.96.16,368.56-.64,368.56-2.4Zm6-6.88c0,1.36-1.02,2.22-2.34,2.8l-.42-.12c-1.78-.5-2.64-1.24-2.64-2.7,0-1.16.96-2.12,2.74-2.12C373.78-11.42,374.56-10.4,374.56-9.28Zm3.9,4.6h6.9V-6.16h-6.9Zm9.38-4.6a3.762,3.762,0,0,0,2.12,3.42,3.865,3.865,0,0,0-2.72,3.62c0,2.12,1.4,3.8,4.88,3.8,3.2,0,4.98-1.7,4.98-3.94,0-1.6-.72-2.68-2.84-3.56a3.871,3.871,0,0,0,2.46-3.46c0-2.04-1.6-3.4-4.42-3.4C389.44-12.8,387.84-11.24,387.84-9.28Zm1.18,6.88c0-1.58,1.14-2.36,2.46-2.84l.66.16c2.52.6,3.18,1.38,3.18,2.84,0,1.42-1.32,2.4-3.18,2.4C390.42.16,389.02-.64,389.02-2.4Zm6-6.88c0,1.36-1.02,2.22-2.34,2.8l-.42-.12c-1.78-.5-2.64-1.24-2.64-2.7,0-1.16.96-2.12,2.74-2.12C394.24-11.42,395.02-10.4,395.02-9.28Zm10.2-3.26h-1.18l-5,3.12.76,1.32,3.78-2.36V1.36h1.64Zm4.42,3.26a3.762,3.762,0,0,0,2.12,3.42,3.865,3.865,0,0,0-2.72,3.62c0,2.12,1.4,3.8,4.88,3.8,3.2,0,4.98-1.7,4.98-3.94,0-1.6-.72-2.68-2.84-3.56a3.871,3.871,0,0,0,2.46-3.46c0-2.04-1.6-3.4-4.42-3.4C411.24-12.8,409.64-11.24,409.64-9.28Zm1.18,6.88c0-1.58,1.14-2.36,2.46-2.84l.66.16c2.52.6,3.18,1.38,3.18,2.84,0,1.42-1.32,2.4-3.18,2.4C412.22.16,410.82-.64,410.82-2.4Zm6-6.88c0,1.36-1.02,2.22-2.34,2.8l-.42-.12c-1.78-.5-2.64-1.24-2.64-2.7,0-1.16.96-2.12,2.74-2.12C416.04-11.42,416.82-10.4,416.82-9.28Zm6.72,9.14,3.52-3.9c1.56-1.74,2.74-3.02,2.74-4.98,0-2.04-1.4-3.78-4.16-3.78a5.982,5.982,0,0,0-4.46,2.02l.92,1.1a4.793,4.793,0,0,1,3.42-1.58c1.86,0,2.58,1.02,2.58,2.3,0,1.6-1.14,2.72-2.32,4.04L421.2.16l.28,1.2h8.74V-.14Zm13.56-13.4h-4.44v1.4h2.8V1.68h-2.8V3.1h4.44ZM455.14.3V-1.1h-7.18V-4.12h4.46V-5.48H443.7V-7.86h8.44v-5H442.02v1.34h8.46V-9.2h-8.46v5.08h4.3V-1.1h-7.18V.3ZM13.38,24.92V18.64H3.36v6.28ZM11.76,23.6H4.98V19.96h6.78ZM9.54,31.54V28.02h6.84V26.66H.38v1.36h7.5v3.52Zm4.34,3.62V33.8H4.82V30.18H3.18v4.98ZM31.52,18.12H29.9V34.84h1.62ZM18.58,22.74a4.018,4.018,0,0,0,4.34,3.94,3.957,3.957,0,1,0,0-7.88A4.018,4.018,0,0,0,18.58,22.74Zm1.6,0a2.584,2.584,0,0,1,2.74-2.56,2.555,2.555,0,1,1,0,5.1A2.568,2.568,0,0,1,20.18,22.74Zm8.72,5.7a81.056,81.056,0,0,1-11.46.66v1.4a84.388,84.388,0,0,0,11.58-.7C28.98,29.36,28.96,28.9,28.9,28.44Zm8.52-7.92H34.18v1.34h7.84V20.52H39.04V18.08H37.42Zm11.2,14.32V18.12H47.04V24.2H45.06V18.3h-1.6V34.1h1.6V25.58h1.98v9.26ZM34.66,26.5a3.53,3.53,0,1,0,7.06,0,3.53,3.53,0,1,0-7.06,0Zm1.48,0a2.047,2.047,0,1,1,4.08,0,2.049,2.049,0,1,1-4.08,0ZM57.76,19v1.36h7.6c-.08,1.48-3.28,3.76-8.74,4.62.18.46.34.92.48,1.4a21.649,21.649,0,0,0,6.48-2.08l4.64,2.06.7-1.44c-1.3-.5-2.64-1-3.96-1.52a4.7,4.7,0,0,0,2.08-3.7V19Zm5.72,16.02V29.36h7.18V27.98h-16v1.38h7.16v5.66Zm9.44-4.84a12.5,12.5,0,0,0,3.72-4.28l3.78,3.86,1.22-1.2c-1.5-1.36-2.98-2.72-4.42-4.1a12.328,12.328,0,0,0,.52-3.56V18.98H76.1v1.88a9.329,9.329,0,0,1-4.24,8.1ZM85.74,18.12H84.12V34.84h1.62Zm9.82,2.74c0,3.76-2.4,6.8-6.3,8.86l.88,1.32c4.18-2.22,7.04-5.62,7.04-10.62v-.96H89.6v1.4Zm6.94-2.74h-1.62V34.84h1.62Zm15.16,11.52V19.48h-1.62v3.7H111.7v-3.7h-1.62V29.64Zm-1.62-1.34H111.7V24.52h4.34Zm6.3-10.18h-1.62V34.84h1.62V25.52h2.82V24.1h-2.82ZM139.1,35.44V28.7h-1.62v2.04h-6.56V28.7h-1.6v6.74Zm-1.62-1.34h-6.56V32.04h6.56Zm4.44-10.56v-1.4H139.1V18.12h-1.62v9.54h1.62V23.54Zm-5.94,1.62a44.48,44.48,0,0,1-7.62.6V23.58h5.92V18.94h-7.52v1.38h5.94v1.92h-5.94v4.92h1.72a47.551,47.551,0,0,0,7.68-.64C136.12,26.08,136.06,25.6,135.98,25.16Zm20.8-7.04h-1.62V34.84h1.62Zm-3.18,9.06a44.3,44.3,0,0,1-8.02.68v-8.7h-1.62V29.28h.74a50.523,50.523,0,0,0,9.06-.7C153.72,28.12,153.64,27.64,153.6,27.18Zm16.08.32a42.051,42.051,0,0,1-7.7.68v-7.2h6.42v-1.4h-8.04v10h.74a51.44,51.44,0,0,0,8.74-.68C169.8,28.44,169.72,27.96,169.68,27.5Zm2.94-9.38H171V34.84h1.62V25.52h2.82V24.1h-2.82Zm5.72,16.04,1.52-1.54-1.52-1.56-1.54,1.56Z" transform="translate(248.62 792)" fill="#7b7b7b" opacity="0.589"/>
    <rect id="사각형_7543" data-name="사각형 7543" width="456" height="3" rx="1.5" transform="translate(249 759)" fill="#b1b1b1" opacity="0.313"/>
    <g id="그룹_18925" data-name="그룹 18925" transform="translate(-636.605 -806.259)">
      <g id="그룹_13317" data-name="그룹 13317" transform="translate(945.033 848.329)">
        <path id="패스_18918" data-name="패스 18918" d="M934.685,851.329l1.5,1.114-3.941,4.923,4.557,5.446L935.3,864l-5.309-6.538Zm-5.536,12.348h-1.914V846.635l1.914-.434Z" transform="translate(-927.235 -845.494)" fill="#1e1d1d"/>
        <path id="패스_18919" data-name="패스 18919" d="M941.781,859.367v-2.872H939.64c-2.166,0-3.145.729-3.145,2.278a1.754,1.754,0,0,0,1.913,1.96,5.427,5.427,0,0,0,3.373-1.366m-2.392-4.214h2.392v-.982c0-1.891-.844-2.642-2.438-2.642a8.422,8.422,0,0,0-3.35.8l-.568-1.346a8.388,8.388,0,0,1,3.964-1.094c2.848,0,4.237,1.369,4.237,4.375V862.1h-1.412l-.229-1.322a6.654,6.654,0,0,1-3.917,1.5,3.134,3.134,0,0,1-3.4-3.417c0-2.438,1.64-3.713,4.717-3.713" transform="translate(-924.056 -843.919)" fill="#1e1d1d"/>
        <path id="패스_18920" data-name="패스 18920" d="M950.788,851.329l1.5,1.114-3.943,4.923,4.558,5.446-1.5,1.183-5.31-6.538Zm-5.537,12.348h-1.913V846.635l1.913-.434Z" transform="translate(-920.351 -845.494)" fill="#1e1d1d"/>
        <path id="패스_18921" data-name="패스 18921" d="M957.884,859.367v-2.872h-2.143c-2.164,0-3.145.729-3.145,2.278a1.755,1.755,0,0,0,1.916,1.96,5.431,5.431,0,0,0,3.372-1.366m-2.393-4.214h2.393v-.982c0-1.891-.842-2.642-2.438-2.642a8.415,8.415,0,0,0-3.35.8l-.568-1.346a8.383,8.383,0,0,1,3.964-1.094c2.848,0,4.238,1.369,4.238,4.375V862.1h-1.413l-.228-1.322a6.654,6.654,0,0,1-3.918,1.5,3.133,3.133,0,0,1-3.395-3.417c0-2.438,1.64-3.713,4.716-3.713" transform="translate(-917.171 -843.919)" fill="#1e1d1d"/>
        <path id="패스_18922" data-name="패스 18922" d="M960.945,856.131c0,3.031,1.23,4.625,3.347,4.625s3.35-1.594,3.35-4.625-1.23-4.671-3.35-4.671-3.347,1.64-3.347,4.671m8.681,0c0,3.987-1.983,6.2-5.333,6.2-3.325,0-5.329-2.21-5.329-6.2,0-4.011,2.027-6.244,5.329-6.244,3.328,0,5.333,2.233,5.333,6.244" transform="translate(-913.671 -843.919)" fill="#1e1d1d"/>
        <path id="패스_18923" data-name="패스 18923" d="M974.671,857.318l4.146,4.966-2.3,1.823-5.037-6.174V863.7h-3.052v-17l3.052-.548V857.2l4.6-6.243,2.279,1.6Z" transform="translate(-909.625 -845.515)" fill="#1e1d1d"/>
        <path id="패스_18924" data-name="패스 18924" d="M980.357,863.888H977.3V851.88h3.054ZM976.6,847.96l2.233-2.254,2.233,2.254-2.233,2.234Z" transform="translate(-906.132 -845.706)" fill="#1e1d1d"/>
        <path id="패스_18925" data-name="패스 18925" d="M988.552,860.735v-6.791a5.819,5.819,0,0,0-1.707-.228c-1.756,0-2.713,1.438-2.713,4.08,0,2.437.774,3.782,2.21,3.782a3.594,3.594,0,0,0,2.21-.842m0-8.863V846.7l3.055-.547V863.7h-2.12l-.364-1.025a4.987,4.987,0,0,1-3.328,1.343c-3.143,0-4.762-2.21-4.762-6.38,0-3.873,1.961-6.311,5.263-6.311a4.4,4.4,0,0,1,2.256.547" transform="translate(-904.235 -845.515)" fill="#1e1d1d"/>
        <path id="패스_18926" data-name="패스 18926" d="M996.009,855.085c2.484.865,3.349,1.844,3.349,3.6,0,2.44-1.572,3.806-4.648,3.806a12.507,12.507,0,0,1-4.42-.865l.615-2.37a11.022,11.022,0,0,0,3.781.8c1.276,0,1.732-.431,1.732-1.138s-.318-1.049-2.37-1.754c-2.461-.844-3.349-1.709-3.349-3.714,0-2.166,1.777-3.669,4.421-3.669a9.39,9.39,0,0,1,4.1.911l-.844,2.21a6.96,6.96,0,0,0-2.984-.73c-1.139,0-1.777.5-1.777,1.253,0,.661.661,1.071,2.392,1.664" transform="translate(-900.278 -843.966)" fill="#1e1d1d"/>
      </g>
      <g id="그룹_13318" data-name="그룹 13318" transform="translate(885.605 839.57)">
        <path id="패스_18927" data-name="패스 18927" d="M910.014,839.57c-15.26,0-24.638,6.742-24.405,19.655.23,12.4,10.559,19.724,24.405,19.657s24.172-7.257,24.4-19.657c.233-12.913-9.146-19.655-24.4-19.655m-10.14,26.149-3.706-4.775v4.191h-3.854V853.317h3.851v4.221l3.119-4.687,3.029,2.034-3.186,4.247,3.809,4.1Zm7.433-.584h-3.854V853.317h3.854Zm6.245,0h-4.672v-11.82h4.861c4.008,0,5.721,2.5,5.721,5.91,0,3.283-1.679,5.91-5.91,5.91m14.609-8.412a9.483,9.483,0,0,0-2.748-.777c-.717,0-1.26.154-1.26.668,0,.3.4.7,2.151,1.138a3.321,3.321,0,0,1,2.813,3.654c0,2.445-1.964,4-4.856,4a9.4,9.4,0,0,1-4.6-1.193l1.155-2.682a8.3,8.3,0,0,0,3.348.991c.493,0,1.106-.146,1.106-.842,0-.664-.453-.737-2.13-1.192a3.444,3.444,0,0,1-2.838-3.723c0-2.435,2.011-3.787,4.745-3.787a7.388,7.388,0,0,1,4.2,1.108Z" transform="translate(-885.605 -839.57)" fill="#f05c55"/>
        <path id="패스_18928" data-name="패스 18928" d="M905.01,851.306h-.557v5.8h.331c1.707,0,2.361-1.056,2.361-2.885,0-1.787-.579-2.919-2.135-2.919" transform="translate(-877.547 -834.553)" fill="#f05c55"/>
      </g>
    </g>
    <rect id="사각형_7545" data-name="사각형 7545" width="136" height="10" rx="3" transform="translate(245 171)" fill="#fff"/>
    <path id="패스_25053" data-name="패스 25053" d="M27.8-29.213h-3.05V2.27H27.8ZM10.7-27.029c-5.348,0-8.737,4.218-8.737,9.678S5.356-7.634,10.7-7.634c5.31,0,8.662-4.256,8.662-9.716S16.014-27.029,10.7-27.029Zm0,2.636c3.239,0,5.649,2.6,5.649,7.042,0,4.406-2.41,7.08-5.649,7.08s-5.687-2.674-5.687-7.08C5.017-21.794,7.465-24.393,10.7-24.393ZM55.971-22.7c0-3.389-2.975-6.327-8.549-6.327s-8.4,2.937-8.4,6.327a5.629,5.629,0,0,0,1.883,4.331v5.122H32.433v2.6H62.486v-2.6H54.05V-18.4A5.716,5.716,0,0,0,55.971-22.7Zm.113,20.675c0-3.691-3.2-6.364-8.662-6.364-5.385,0-8.586,2.674-8.586,6.364,0,3.8,3.2,6.364,8.586,6.364C52.882,4.341,56.083,1.781,56.083-2.023Zm-3.05,0c0,1.958-1.732,3.766-5.611,3.766-3.8,0-5.5-1.808-5.5-3.766s1.732-3.766,5.5-3.766C51.3-5.789,53.033-3.981,53.033-2.023ZM52.92-22.7c0,2.147-1.77,3.8-5.5,3.8-3.653,0-5.348-1.657-5.348-3.8,0-2.109,1.695-3.728,5.348-3.728C51.15-26.426,52.92-24.807,52.92-22.7Zm-5.5,6.364A12.9,12.9,0,0,0,51-16.785v3.54h-7v-3.5A13.346,13.346,0,0,0,47.422-16.334ZM69.641-8.726V-6.2H86.173V3.212h3.013V-8.726Zm24.667-9.3H89.186v-4.256h5.122v-2.561H89.186v-4.368h-3.05v18.566h3.05V-15.43h5.122Zm-29.3-2.109c0,4.03,3.163,7.607,8.134,7.607s8.172-3.578,8.172-7.607c0-3.954-3.126-7.645-8.172-7.645S65.009-24.091,65.009-20.137Zm3.013-.038a4.846,4.846,0,0,1,5.122-4.971A4.9,4.9,0,0,1,78.3-20.175a4.929,4.929,0,0,1-5.159,5.009A4.876,4.876,0,0,1,68.022-20.175Zm58.071,2.824v-2.6h-5.009v-9.264h-3.05V-5.9h3.05V-17.35ZM116.64-13.7c-3.841.49-7.683.829-11.524.979v-7.419H102.1v7.532c-2.26.075-4.519.113-6.741.113v2.636A152.131,152.131,0,0,0,116.9-11.174C116.791-12,116.715-12.869,116.64-13.7Zm5.122,16.42V.161h-15.93V-7.145h-3.088V2.722ZM97.509-27.631v2.6h12.616a41.582,41.582,0,0,1-.829,8.963l2.9.3a54.445,54.445,0,0,0,.866-10.093v-1.77ZM129.03-2.249a3.967,3.967,0,0,1,1.808,3.314c0,1.695-1.205,3.427-2.674,5.009l1.808,1.582c2.448-2.448,4.18-4.971,4.18-7.57a6.414,6.414,0,0,0-2.222-4.933Zm16.533-24.177v2.561h8.624c0,6.628-3.5,12.315-9.49,16.231l2,2.26c6.628-4.444,10.469-10.658,10.469-19.244v-1.808ZM171.7,2.27V-29.213h-2.975v11.3h-4.18V-28.874h-2.975V.877h2.975V-15.354h4.18V2.27ZM202.5-6.015v-23.2h-3.05v23.2Zm.678,8.549V-.027H186.574V-8.048h-3.013V2.534Zm-26.06-22.257c0,4.481,3.465,7.833,8.247,7.833,4.745,0,8.21-3.352,8.21-7.833,0-4.444-3.465-7.833-8.21-7.833C180.586-27.556,177.121-24.167,177.121-19.723Zm3.013,0a4.982,4.982,0,0,1,5.235-5.159,4.973,4.973,0,0,1,5.2,5.159,4.952,4.952,0,0,1-5.2,5.159A4.961,4.961,0,0,1,180.134-19.723ZM234.213-2.851c0-3.54-2.9-6.854-8.4-6.854s-8.473,3.314-8.473,6.854c0,3.465,2.975,6.7,8.473,6.7C231.238,3.852,234.213.613,234.213-2.851ZM209.245-27.594v2.561h9.9c-.151,4.783-4.481,8.737-11.26,11.147.452.791.866,1.657,1.318,2.448a22.984,22.984,0,0,0,9.076-5.5L224.76-12l1.77-2.486-6.666-4.331A12.722,12.722,0,0,0,222.2-26.2v-1.393Zm22.106,7.871v8.737h3.05V-29.213h-3.05v6.892h-6.816v2.6ZM225.815-7.145c3.728,0,5.348,2.109,5.348,4.293,0,2-1.619,4.143-5.348,4.143-3.766,0-5.423-2.147-5.423-4.143C220.392-5.036,222.049-7.145,225.815-7.145Zm42.969,4.632V-5.149h-13.52v-6.666h8.059V-27.481h-3.088v5.272H247.168v-5.272H244.08v15.666h8.1v6.666h-13.52v2.636Zm-8.549-11.863H247.168v-5.31h13.068ZM272.588-5.9a29.792,29.792,0,0,0,8.775-6.967l6.628,6.214,2.071-2.222-7.08-6.214a17.153,17.153,0,0,0,2.523-8.963v-1.017h-4.858v-4.406h-3.013v4.406h-5.122v2.636h9.9c-.113,5.046-4.331,10.394-11.411,14.122A26.575,26.575,0,0,1,272.588-5.9ZM287.5-16.032h6.967V2.27h3.05V-29.213h-3.05v10.507H287.5Zm41.237-13.181h-3.05V2.27h3.05ZM322-11.061a80.284,80.284,0,0,1-14.574,1.28v-6.138h11.3v-10.7H304.448v2.6h11.26v5.574h-11.26v11.26H305.8a97.45,97.45,0,0,0,16.533-1.28Zm41.877-7.908v-2.636h-5.31v-7.607h-3.05v18.227h3.05V-18.97Zm-14.461,5.95V-27.782h-3.05v5.009H338.19v-5.009h-3.05V-13.02Zm-3.05-2.523H338.19v-4.745h8.172ZM358.489-2.851c0-3.54-2.9-6.854-8.436-6.854-5.5,0-8.436,3.314-8.436,6.854,0,3.465,2.937,6.666,8.436,6.666C355.514,3.814,358.489.613,358.489-2.851Zm-8.436-4.293c3.766,0,5.423,2.109,5.423,4.293,0,2-1.657,4.1-5.423,4.1s-5.385-2.109-5.385-4.1C344.668-5.036,346.287-7.145,350.053-7.145Zm41.8,10.206V-8.726h-18.34V3.061ZM367.113-26.012v2.561h10.281c-.188,3.879-4.481,7.344-11.637,9.528l1.092,2.6a24.752,24.752,0,0,0,9.528-4.933l5.988,3.879,1.582-2.561-5.837-3.088a10.711,10.711,0,0,0,2.335-6.741v-1.243h-4.971v-3.766h-3.013v3.766ZM388.842.5H376.565V-6.2h12.277ZM388.8-10.911h3.05v-18.3H388.8ZM21.4,34.677h2.975V51.586h4.594V20.1H24.374V30.685H21.4V20.442H16.88V50.193H21.4ZM14.169,22.626H2.042v3.917H9.574c0,4.858-3.352,10.168-8.4,13.9l3.126,3.5c5.649-4.406,9.867-10.545,9.867-18.415ZM59.925,46.088c0-3.879-3.163-7.118-8.925-7.118s-8.925,3.239-8.925,7.118,3.163,7.08,8.925,7.08C56.686,53.168,59.925,49.967,59.925,46.088ZM33.94,21.27v3.954h9.151c-.49,3.578-4.707,7.57-10.507,9.415l1.958,3.766a23.2,23.2,0,0,0,8.963-5.385l6.1,4.632,2.486-3.766L45.765,30.12a13.794,13.794,0,0,0,2.184-7.457V21.27Zm21.353,5.122H49.907v3.992h5.385V38.33h4.82V20.1h-4.82ZM51,42.812c2.824,0,4.218,1.469,4.218,3.276,0,1.695-1.393,3.2-4.218,3.2-2.787,0-4.218-1.506-4.218-3.2C46.782,44.28,48.213,42.812,51,42.812ZM89.6,20.1H84.78V43.3H89.6V32.418h4.9V28.275H89.6ZM75.215,40.816h-4.82V51.85H90.617V47.971h-15.4ZM73.256,21.308c-5.084,0-8.775,3.54-8.775,8.247,0,4.745,3.691,8.285,8.775,8.285s8.812-3.54,8.812-8.285C82.069,24.848,78.34,21.308,73.256,21.308Zm0,3.992A4,4,0,0,1,77.4,29.555a4.127,4.127,0,1,1-8.247,0A4,4,0,0,1,73.256,25.3Zm42.894,9.189h2.9v17.1h4.594V20.1H119.05V30.5h-2.9V20.442h-4.519V50.193h4.519ZM96.906,22.212V41.343h2a47.994,47.994,0,0,0,11.185-1.054l-.452-3.879a35.067,35.067,0,0,1-8.059.979V22.212Z" transform="translate(248.465 123.105)"/>
    <g id="그룹_18923" data-name="그룹 18923" transform="translate(-85.828 77.434)" opacity="0.649">
      <g id="그룹_13320" data-name="그룹 13320" transform="translate(729.909 53.125)" opacity="0.63">
        <g id="그룹_13314" data-name="그룹 13314" transform="translate(0 0)">
          <g id="그룹_13305" data-name="그룹 13305" transform="translate(20.988)">
            <path id="사각형_6447" data-name="사각형 6447" d="M0,0H19.434a3.088,3.088,0,0,1,3.088,3.088v9.524a0,0,0,0,1,0,0H0a0,0,0,0,1,0,0V0A0,0,0,0,1,0,0Z" transform="translate(67.756)" fill="#c1a122"/>
            <g id="그룹_13304" data-name="그룹 13304">
              <g id="그룹_13301" data-name="그룹 13301">
                <g id="그룹_13300" data-name="그룹 13300">
                  <path id="사각형_6448" data-name="사각형 6448" d="M18,0H77.188a0,0,0,0,1,0,0V91.1a18,18,0,0,1-18,18H0a0,0,0,0,1,0,0V18A18,18,0,0,1,18,0Z" fill="#c1a122"/>
                </g>
              </g>
              <g id="그룹_13303" data-name="그룹 13303" transform="translate(69.187 0)">
                <g id="그룹_13302" data-name="그룹 13302">
                  <path id="패스_18908" data-name="패스 18908" d="M524.59,524.582v-2.455a9.7,9.7,0,0,1,9.7-9.694h-17.7" transform="translate(-516.588 -512.433)" fill="#c1a122"/>
                </g>
              </g>
            </g>
          </g>
          <g id="그룹_13307" data-name="그룹 13307" transform="translate(98.194)">
            <g id="그룹_13306" data-name="그룹 13306" transform="translate(1.351 1.352)">
              <path id="패스_18909" data-name="패스 18909" d="M546.378,523.628a9.7,9.7,0,0,0-9.876-9.693,9.906,9.906,0,0,0-9.512,10.015v16.17a.988.988,0,0,0,.988.988h17.412a.988.988,0,0,0,.988-.988Z" transform="translate(-526.989 -513.933)" fill="#c1a111"/>
            </g>
            <path id="패스_18910" data-name="패스 18910" d="M545.241,542.311H527.829a2.343,2.343,0,0,1-2.34-2.341V523.8a11.266,11.266,0,0,1,10.839-11.365,11.046,11.046,0,0,1,11.252,11.044v16.49A2.343,2.343,0,0,1,545.241,542.311Zm-17.049-2.7h16.686V523.479a8.343,8.343,0,0,0-8.5-8.342,8.552,8.552,0,0,0-8.186,8.664Z" transform="translate(-525.489 -512.433)" fill="#fedb3f"/>
          </g>
          <g id="그룹_13309" data-name="그룹 13309" transform="translate(98.176 84.896)">
            <g id="그룹_13308" data-name="그룹 13308">
              <path id="패스_18911" data-name="패스 18911" d="M525.47,606.671" transform="translate(-525.47 -606.671)" fill="none" stroke="#000" stroke-linecap="round" stroke-linejoin="round" stroke-width="3"/>
            </g>
          </g>
          <path id="패스_18912" data-name="패스 18912" d="M433.313,632.87a15.323,15.323,0,0,1-15.323-15.323v-7.586a1.29,1.29,0,0,1,1.29-1.29h63.6a1.29,1.29,0,0,1,1.29,1.29v7.586a15.323,15.323,0,0,0,15.323,15.323Z" transform="translate(-416.639 -521.973)" fill="#c1a122"/>
          <path id="패스_18913" data-name="패스 18913" d="M499.344,634.073H433.164A16.693,16.693,0,0,1,416.49,617.4v-7.585a2.644,2.644,0,0,1,2.641-2.642h63.6a2.644,2.644,0,0,1,2.641,2.642V617.4a13.987,13.987,0,0,0,13.971,13.972,1.351,1.351,0,1,1,0,2.7Zm-80.212-24.2.061,7.525a13.987,13.987,0,0,0,13.972,13.972h57.088A16.675,16.675,0,0,1,482.67,617.4v-7.585l-34.182.06Z" transform="translate(-416.49 -521.824)" fill="#fedb3f"/>
          <g id="그룹_13316" data-name="그룹 13316" transform="translate(35.54 13.724)">
            <g id="그룹_13310" data-name="그룹 13310" transform="translate(0 42.68)">
              <path id="패스_18914" data-name="패스 18914" d="M502.093,577.746h-44.8a1.351,1.351,0,1,1,0-2.7h44.8a1.351,1.351,0,1,1,0,2.7Z" transform="translate(-455.941 -575.043)" fill="#fedb3f"/>
            </g>
            <g id="그룹_13311" data-name="그룹 13311" transform="translate(0 53.564)">
              <path id="패스_18915" data-name="패스 18915" d="M481.4,589.828H457.292a1.351,1.351,0,1,1,0-2.7H481.4a1.351,1.351,0,1,1,0,2.7Z" transform="translate(-455.941 -587.125)" fill="#fedb3f"/>
            </g>
            <g id="그룹_13315" data-name="그룹 13315" transform="translate(8.119)">
              <g id="그룹_13312" data-name="그룹 13312" transform="translate(8.033)">
                <path id="패스_18916" data-name="패스 18916" d="M481.47,542.866a7.6,7.6,0,1,1,7.6-7.6A7.608,7.608,0,0,1,481.47,542.866Zm0-12.5a4.9,4.9,0,1,0,4.9,4.9A4.9,4.9,0,0,0,481.47,530.37Z" transform="translate(-473.87 -527.667)" fill="#fedb3f"/>
              </g>
              <g id="그룹_13313" data-name="그룹 13313" transform="translate(0 17.455)">
                <path id="패스_18917" data-name="패스 18917" d="M494.867,563.631H466.3a1.351,1.351,0,0,1-1.351-1.351v-3.5a11.749,11.749,0,0,1,11.736-11.736h7.794a11.749,11.749,0,0,1,11.736,11.736v3.5A1.351,1.351,0,0,1,494.867,563.631Zm-27.212-2.7h25.86v-2.15a9.043,9.043,0,0,0-9.033-9.033h-7.794a9.043,9.043,0,0,0-9.033,9.033Z" transform="translate(-464.953 -547.043)" fill="#fedb3f"/>
              </g>
            </g>
          </g>
        </g>
      </g>
      <path id="패스_18929" data-name="패스 18929" d="M108.51,649.629h-4.377v-4.378a1.752,1.752,0,0,0-3.5,0v4.378H96.252a1.752,1.752,0,1,0,0,3.5h4.377v4.378a1.752,1.752,0,0,0,3.5,0v-4.378h4.377a1.752,1.752,0,1,0,0-3.5Z" transform="translate(600.953 -563.188)" fill="#c1a122" opacity="0.3"/>
      <path id="패스_18930" data-name="패스 18930" d="M108.51,649.629h-4.377v-4.378a1.752,1.752,0,0,0-3.5,0v4.378H96.252a1.752,1.752,0,1,0,0,3.5h4.377v4.378a1.752,1.752,0,0,0,3.5,0v-4.378h4.377a1.752,1.752,0,1,0,0-3.5Z" transform="translate(746.797 -516.086)" fill="#c1a122" opacity="0.3"/>
      <g id="타원_1268" data-name="타원 1268" transform="translate(863.828 96.566)" fill="none" stroke="#c1a122" stroke-width="3" opacity="0.3">
        <circle cx="5" cy="5" r="5" stroke="none"/>
        <circle cx="5" cy="5" r="3.5" fill="none"/>
      </g>
    </g>
  </g>
</svg>
